{"glyphs":{"0":{"ha":772,"x_min":0,"x_max":0,"o":""},"1":{"ha":772,"x_min":0,"x_max":0,"o":""},"2":{"ha":772,"x_min":0,"x_max":0,"o":""},"3":{"ha":772,"x_min":0,"x_max":0,"o":""},"4":{"ha":772,"x_min":0,"x_max":0,"o":""},"5":{"ha":772,"x_min":0,"x_max":0,"o":""},"6":{"ha":772,"x_min":0,"x_max":0,"o":""},"7":{"ha":772,"x_min":0,"x_max":0,"o":""},"8":{"ha":772,"x_min":0,"x_max":0,"o":""},"9":{"ha":772,"x_min":0,"x_max":0,"o":""},"!":{"ha":386,"x_min":0,"x_max":0,"o":""},"\"":{"ha":493,"x_min":0,"x_max":0,"o":""},"#":{"ha":772,"x_min":0,"x_max":0,"o":""},"$":{"ha":772,"x_min":0,"x_max":0,"o":""},"%":{"ha":1235,"x_min":0,"x_max":0,"o":""},"&":{"ha":926,"x_min":0,"x_max":0,"o":""},"'":{"ha":265,"x_min":0,"x_max":0,"o":""},"(":{"ha":463,"x_min":0,"x_max":0,"o":""},")":{"ha":463,"x_min":0,"x_max":0,"o":""},"*":{"ha":541,"x_min":0,"x_max":0,"o":""},"+":{"ha":811,"x_min":0,"x_max":0,"o":""},",":{"ha":386,"x_min":0,"x_max":0,"o":""},"-":{"ha":463,"x_min":0,"x_max":0,"o":""},"­":{"ha":463,"x_min":0,"x_max":0,"o":""},".":{"ha":386,"x_min":0,"x_max":0,"o":""},"/":{"ha":386,"x_min":0,"x_max":0,"o":""},":":{"ha":386,"x_min":0,"x_max":0,"o":""},";":{"ha":386,"x_min":0,"x_max":0,"o":""},"<":{"ha":811,"x_min":0,"x_max":0,"o":""},"=":{"ha":811,"x_min":0,"x_max":0,"o":""},">":{"ha":811,"x_min":0,"x_max":0,"o":""},"?":{"ha":772,"x_min":0,"x_max":0,"o":""},"@":{"ha":1410,"x_min":393,"x_max":1017,"o":"m 667 551 l 672 551 l 683 548 l 691 551 l 751 540 l 789 543 q 870 521 870 532 q 930 486 883 521 l 973 434 q 1017 320 1017 362 l 1017 274 q 867 54 1017 150 q 683 0 779 0 l 645 0 q 539 24 583 5 q 458 103 480 60 q 436 222 436 132 l 436 250 q 441 269 437 269 l 439 282 l 441 296 l 439 298 l 436 298 q 401 138 401 188 q 417 71 401 105 l 417 68 l 412 62 q 393 127 393 100 q 433 307 393 217 q 517 480 478 437 q 610 532 543 507 q 667 551 610 538 m 610 524 l 610 521 l 615 521 l 683 537 l 683 540 l 680 543 l 677 543 l 664 540 l 661 543 l 659 543 l 610 524 m 640 513 q 669 507 650 507 q 718 526 718 517 l 718 529 q 640 513 640 524 m 791 529 l 791 524 q 819 502 800 524 l 821 505 l 824 505 q 889 445 872 469 q 935 385 908 433 q 968 307 959 351 l 968 263 q 802 54 968 113 q 745 43 767 43 q 631 54 631 46 l 629 52 l 626 52 l 572 68 q 496 119 539 75 q 463 206 463 160 l 463 220 l 458 225 l 450 179 q 547 38 450 100 l 596 16 l 621 11 l 626 11 l 626 14 l 653 11 l 710 11 q 794 30 739 11 q 897 84 828 39 q 1008 293 1008 169 l 1008 315 q 973 415 1008 353 q 878 510 924 486 l 840 526 l 838 524 l 791 529 m 721 518 l 721 515 q 797 499 721 511 l 810 488 l 819 491 l 819 496 q 756 524 772 524 l 721 518 m 444 228 l 450 228 l 496 369 q 515 407 499 369 l 512 410 l 512 412 q 591 505 512 428 l 591 507 l 588 507 q 507 423 544 478 q 447 247 447 350 l 444 228 m 593 486 l 604 486 q 631 496 619 496 l 631 499 q 623 505 631 505 q 593 486 609 505 m 520 331 l 523 315 q 517 293 523 293 l 520 279 l 520 252 q 591 92 520 168 q 688 60 644 60 l 691 62 l 694 62 l 705 60 l 713 62 l 721 60 l 775 84 l 819 119 q 772 184 819 158 l 772 190 l 791 187 q 756 250 773 250 l 751 250 l 751 252 q 721 244 721 250 q 770 198 736 224 l 770 190 l 764 190 q 705 247 734 212 l 691 250 q 637 165 641 197 l 637 163 q 648 157 648 163 l 637 149 l 631 149 l 626 155 l 626 160 l 637 193 l 634 193 l 604 168 l 596 168 l 596 176 l 661 255 l 661 258 l 656 258 l 634 239 l 631 239 l 629 241 l 626 241 q 661 293 661 287 q 675 307 661 307 q 734 380 700 327 l 764 377 l 772 380 l 775 377 l 775 374 l 772 372 l 772 369 l 775 355 l 770 339 l 772 336 l 772 334 l 770 320 q 797 274 770 274 l 838 269 l 838 263 q 789 250 838 255 l 786 247 q 827 157 810 178 l 824 144 q 832 130 826 130 q 919 315 919 208 l 919 350 q 846 461 903 416 q 726 502 781 502 l 724 499 l 721 499 l 718 502 l 715 502 q 626 456 680 498 q 520 331 524 359 m 526 377 l 528 369 q 572 415 534 369 q 659 491 608 451 l 659 494 l 650 494 q 550 434 550 464 q 526 377 543 431 m 490 426 l 490 420 l 547 486 l 547 491 l 545 491 q 493 429 511 467 l 490 426 m 922 382 l 919 374 q 930 345 926 374 l 927 334 l 930 309 q 895 190 928 257 l 832 111 q 810 100 832 102 q 740 60 787 75 l 740 57 l 743 54 l 759 54 q 867 98 867 80 q 960 263 960 154 l 960 288 q 930 382 960 317 l 922 382 m 488 315 l 488 312 q 517 377 517 344 l 517 380 l 515 380 q 488 315 488 334 m 691 301 l 691 296 l 696 296 q 743 355 724 320 l 740 355 q 691 301 720 340 m 507 323 q 471 222 473 273 q 523 109 471 144 q 588 71 549 83 l 593 71 l 599 76 l 599 79 q 509 279 509 138 l 512 320 l 509 323 l 507 323 m 724 293 l 724 288 q 756 279 724 281 l 759 282 l 751 320 q 724 293 743 320 m 672 279 l 672 274 l 677 274 l 677 279 l 672 279 m 653 231 l 659 231 l 659 236 l 653 231 z "},"A":{"ha":926,"x_min":67,"x_max":859,"o":"m 588 1104 l 596 1104 l 626 974 l 626 971 l 631 971 l 631 968 l 648 974 l 650 971 l 650 966 l 637 952 l 637 936 q 672 806 642 931 l 729 613 l 729 610 l 737 610 q 653 1044 653 947 q 645 1099 650 1044 l 648 1101 l 656 1101 l 659 1088 l 656 1085 q 732 670 677 895 q 759 602 747 602 q 767 597 767 602 l 767 589 q 759 583 767 583 l 759 581 q 827 369 767 534 q 859 290 851 320 l 854 285 q 797 412 846 285 q 737 567 772 455 q 724 578 732 578 l 707 570 q 800 155 740 444 l 797 130 l 805 95 l 802 73 l 805 54 l 802 19 l 802 8 l 794 0 q 783 16 783 5 l 781 16 l 772 11 q 734 127 753 56 l 732 127 l 732 125 l 753 0 l 745 -5 q 724 100 740 -1 q 621 559 621 527 l 610 564 l 412 548 l 409 548 q 371 472 403 548 q 262 247 273 249 l 257 252 l 287 345 q 246 271 268 326 q 195 155 200 186 l 200 155 l 203 157 l 205 157 l 208 155 l 208 149 l 200 141 l 192 141 l 184 146 q 108 -41 154 83 l 83 -109 l 86 -111 l 75 -174 l 70 -174 l 67 -163 q 132 49 73 -96 l 295 418 l 295 426 q 205 271 289 423 l 159 182 q 102 35 102 62 l 100 33 l 97 33 l 94 35 l 92 35 q 186 255 99 90 l 189 263 l 186 277 l 241 391 l 241 396 l 235 396 q 176 293 235 389 q 111 190 123 199 l 102 198 l 168 315 q 157 326 157 315 q 265 532 252 499 l 265 537 q 246 545 246 537 q 281 564 246 551 l 300 602 q 273 616 273 610 l 279 621 l 303 621 q 371 746 315 626 q 395 792 375 746 q 498 982 457 913 q 545 1066 545 1059 l 545 1088 l 558 1090 l 564 1090 q 572 1072 566 1072 q 588 1104 584 1104 m 580 1063 l 577 1050 l 577 1044 l 599 947 l 602 947 l 607 952 l 607 955 l 583 1063 l 580 1063 m 545 1031 q 439 825 545 1021 q 387 724 398 736 l 387 713 q 504 914 442 793 q 550 1028 550 1015 l 550 1031 l 545 1031 m 604 1017 l 604 1009 l 610 1015 l 607 1017 l 604 1017 m 604 1001 l 610 985 l 612 987 l 615 987 q 607 1001 612 1001 l 604 1001 m 550 998 l 534 955 l 542 955 q 555 979 550 955 l 555 998 l 550 998 m 615 971 l 615 960 l 621 960 l 621 971 l 615 971 m 623 941 l 621 939 q 702 610 688 640 l 713 608 l 721 610 q 629 939 688 712 l 626 941 l 623 941 m 604 928 q 686 610 677 610 l 688 613 l 688 616 l 612 933 l 610 933 l 604 928 m 555 925 l 555 920 l 561 925 l 555 925 m 534 911 l 534 906 l 536 906 l 536 911 l 534 911 m 531 903 l 512 863 l 512 860 q 534 901 522 860 l 534 903 l 531 903 m 574 895 l 574 892 q 623 608 605 655 l 629 608 l 634 613 l 634 616 l 580 895 l 574 895 m 450 643 q 466 637 466 643 l 466 635 q 444 629 466 629 l 433 616 l 436 613 l 455 613 l 474 616 l 498 613 l 566 613 l 572 608 l 574 610 l 602 610 q 607 618 607 610 l 566 887 l 564 887 q 488 735 545 885 q 450 643 450 656 m 412 643 l 425 640 q 485 773 436 640 q 493 795 493 784 q 412 651 461 760 l 412 643 m 395 776 l 393 768 l 395 765 l 398 765 l 401 776 l 395 776 m 621 776 l 621 770 l 623 770 l 623 776 l 621 776 m 357 640 l 360 640 q 431 757 381 640 l 431 762 l 357 640 m 623 762 l 623 757 l 634 703 l 640 703 l 626 762 l 623 762 m 382 746 l 382 741 l 385 741 l 385 746 l 382 746 m 368 719 l 368 713 l 374 719 l 368 719 m 637 700 l 637 684 q 656 613 648 613 l 659 616 l 659 618 l 640 700 l 637 700 m 347 675 q 338 659 347 668 l 338 654 q 349 670 343 654 l 349 675 l 347 675 m 401 621 l 401 616 l 409 613 l 420 616 l 420 618 l 414 624 l 401 621 m 317 567 l 322 567 q 344 605 344 594 l 341 605 q 317 567 332 605 m 379 572 q 409 600 409 574 l 406 602 l 401 602 q 379 572 379 602 m 420 581 l 420 578 l 528 597 l 528 600 l 526 602 l 520 602 l 520 600 l 488 602 l 450 602 l 436 600 l 436 602 q 420 581 420 597 m 626 581 l 629 578 l 634 578 l 640 583 l 637 597 q 626 581 632 597 m 656 597 l 656 583 l 664 583 l 664 589 l 656 597 m 702 591 l 707 586 l 718 586 l 724 591 l 718 597 l 707 597 l 702 591 m 688 594 l 688 589 l 694 594 l 688 594 m 569 575 l 569 572 l 583 570 l 615 578 l 610 583 l 596 583 q 569 575 585 575 m 740 575 l 753 543 l 756 543 l 756 551 q 745 578 751 578 l 743 575 l 740 575 m 694 570 l 694 567 q 707 529 703 529 l 696 570 l 694 570 m 629 567 l 629 564 q 680 312 634 518 l 680 304 l 688 301 q 640 567 650 548 l 629 567 m 659 567 q 772 30 732 155 l 778 30 l 669 564 l 667 567 l 659 567 m 680 553 l 680 548 l 683 548 l 683 553 l 680 553 m 347 483 l 347 480 l 349 480 l 385 543 l 382 545 l 371 545 q 347 483 361 545 m 252 448 l 306 534 l 306 540 l 303 540 q 252 448 293 540 m 325 534 l 325 532 l 333 534 l 333 540 l 330 540 l 325 534 m 688 526 l 686 515 q 775 79 710 414 l 786 38 l 783 38 l 789 22 l 794 22 l 794 95 q 691 526 767 258 l 688 526 m 281 450 l 287 450 l 322 521 l 322 524 q 281 450 302 503 m 762 518 l 762 513 l 767 513 l 767 518 l 762 518 m 366 496 q 355 475 366 485 l 295 342 l 295 336 l 298 336 q 368 488 331 399 l 371 491 l 371 496 l 366 496 m 284 372 l 290 372 q 328 464 311 406 l 328 469 q 284 372 323 467 m 271 426 q 279 445 276 426 q 271 426 273 445 m 243 439 l 243 434 l 246 434 l 246 439 l 243 439 m 238 431 l 238 426 l 241 426 l 241 431 l 238 431 m 254 399 l 260 399 l 268 420 q 254 399 254 412 m 235 363 l 243 363 l 243 372 l 235 363 m 688 288 l 688 282 l 691 282 l 691 288 l 688 288 m 726 157 l 726 149 q 734 130 729 130 l 734 136 l 729 157 l 726 157 z "},"B":{"ha":926,"x_min":108,"x_max":913,"o":"m 252 1109 q 260 1088 260 1109 q 276 1080 267 1080 l 328 1080 l 344 1085 l 360 1080 l 406 1080 q 460 1074 460 1079 l 471 1077 q 762 1036 732 1063 l 756 1031 l 740 1036 l 734 1036 l 702 1015 l 702 1009 l 705 1009 q 838 1036 800 1009 l 857 1039 q 870 1034 857 1034 l 873 1031 l 873 1028 q 829 1009 871 1022 q 789 977 791 988 q 672 911 723 946 q 474 806 485 806 q 441 787 474 798 l 441 779 l 452 776 q 610 787 523 787 l 612 787 l 802 784 l 819 781 q 876 852 819 793 l 881 852 l 886 846 l 876 827 l 878 811 l 843 776 l 843 773 l 886 779 l 908 779 l 913 773 q 870 762 913 764 q 854 754 867 754 l 824 754 q 800 722 800 733 l 802 722 q 829 711 829 718 l 829 705 l 824 700 q 816 711 817 700 l 810 711 l 713 589 l 713 586 l 715 586 l 821 689 l 824 689 l 829 684 q 729 583 829 677 l 621 456 q 479 282 539 350 l 371 144 l 368 76 l 366 73 l 360 73 l 352 79 l 349 46 l 349 35 l 352 3 l 349 3 q 341 19 341 5 l 344 111 q 300 54 322 94 l 298 57 q 290 49 290 57 l 243 0 l 238 5 l 238 14 l 273 62 l 273 65 l 265 76 l 268 119 l 268 125 l 262 125 q 173 54 187 58 l 168 60 l 168 62 q 222 136 168 83 l 243 168 l 235 168 q 227 157 235 157 l 224 157 l 216 165 q 268 231 268 222 l 268 247 q 260 708 268 506 l 205 689 l 203 689 l 197 694 l 257 730 l 260 732 l 257 735 l 257 751 q 216 724 248 751 l 192 713 l 192 722 q 208 735 200 735 l 208 743 l 205 743 q 159 716 170 716 l 157 719 l 157 724 q 257 784 171 737 l 257 787 l 252 868 l 254 879 l 252 914 l 257 914 l 257 922 l 254 920 l 252 920 l 249 922 l 249 925 l 252 955 l 249 963 l 181 966 l 181 968 l 184 979 l 162 979 l 159 982 l 157 979 l 151 979 l 146 985 l 151 993 l 170 990 q 249 1004 244 990 l 249 1006 l 246 1031 l 249 1039 q 216 1053 249 1053 l 214 1055 l 214 1058 l 205 1055 l 108 1063 l 108 1069 l 116 1077 l 195 1066 l 195 1069 l 189 1077 l 189 1080 l 197 1088 l 208 1080 l 241 1080 q 246 1107 246 1080 l 249 1109 l 252 1109 m 208 1069 l 211 1061 l 230 1063 l 243 1063 l 243 1066 l 238 1072 l 214 1072 l 211 1069 l 208 1069 m 271 1072 l 265 1063 q 336 1055 265 1058 l 338 1058 l 338 1063 l 333 1069 l 314 1069 l 290 1072 l 273 1069 l 271 1072 m 355 1072 l 352 1069 l 352 1061 l 360 1053 l 395 1053 q 414 1047 414 1052 l 425 1050 l 545 1047 l 599 1047 l 629 1050 l 640 1047 l 656 1050 q 623 1058 656 1056 l 621 1055 l 618 1055 l 596 1061 l 585 1058 l 580 1063 l 577 1061 l 558 1063 l 542 1063 l 539 1066 l 536 1063 l 520 1063 l 498 1069 l 466 1069 l 441 1066 l 431 1072 l 412 1069 l 360 1069 l 357 1072 l 355 1072 m 265 1042 q 284 1001 265 1001 q 338 1012 338 1001 l 338 1039 l 330 1047 l 295 1047 q 276 1053 276 1047 q 265 1042 267 1050 m 355 1042 l 355 1015 l 363 1006 l 444 1012 l 444 1009 l 447 1012 l 528 1012 l 564 1009 l 593 1012 l 612 1012 l 615 1009 l 618 1012 l 634 1012 l 672 1009 q 715 1034 707 1023 l 715 1036 l 645 1036 l 642 1039 l 640 1036 l 631 1036 l 621 1039 l 602 1036 l 580 1036 l 550 1039 l 536 1036 l 534 1039 l 534 1042 l 517 1036 l 501 1036 l 485 1039 l 477 1036 q 460 1042 460 1038 l 447 1039 l 436 1039 l 420 1042 l 417 1039 l 404 1042 l 355 1042 m 254 1023 l 254 1004 l 260 1004 l 260 1017 l 254 1023 m 645 1001 l 593 1004 l 585 1004 l 574 1001 l 566 1004 l 539 1001 l 515 1004 l 498 1001 l 482 1004 l 477 1004 l 477 1001 l 458 1004 l 436 1004 l 406 998 l 376 1001 q 357 990 363 998 l 360 982 l 428 985 l 431 982 l 433 982 l 450 987 l 564 990 l 572 996 l 585 993 l 650 996 l 656 1004 l 656 1006 l 645 1001 m 284 985 l 284 979 l 298 977 q 338 985 338 977 l 338 993 l 333 998 q 295 993 328 993 l 292 990 q 284 985 284 990 m 705 955 l 713 955 l 794 996 l 794 998 l 791 998 q 707 960 759 989 l 705 958 l 705 955 m 680 993 q 637 979 680 988 l 596 958 l 596 955 l 599 952 l 599 949 q 696 985 627 965 l 696 990 l 680 993 m 189 977 l 192 974 l 230 974 l 241 971 l 249 974 l 249 979 l 241 987 q 189 977 189 982 m 588 987 l 583 982 l 517 979 l 515 982 l 512 982 l 498 977 l 490 979 l 479 977 l 471 979 l 417 974 l 417 977 l 414 974 l 409 974 l 406 977 q 360 966 360 971 q 366 909 360 923 l 363 906 l 363 903 l 366 865 l 366 852 l 550 944 l 623 979 l 623 985 l 604 982 l 588 987 m 287 963 q 298 890 287 927 l 295 887 l 295 884 l 300 819 l 303 817 l 311 817 q 330 838 330 825 l 330 939 q 338 944 330 944 l 341 947 l 341 963 q 314 971 341 968 q 287 963 287 967 m 677 963 l 677 958 l 683 958 l 683 963 l 677 963 m 368 792 l 371 789 l 371 787 q 675 952 504 852 l 675 955 l 669 955 q 412 838 555 912 q 368 803 368 822 l 368 792 m 572 941 l 580 941 l 591 952 l 585 952 q 572 941 573 947 m 688 952 l 688 949 l 694 949 l 694 952 l 688 952 m 569 930 l 566 928 l 566 925 l 574 928 l 574 930 l 569 930 m 539 917 l 539 914 l 545 914 l 545 917 l 539 917 m 509 903 l 509 898 l 515 903 l 509 903 m 450 871 l 455 871 l 501 892 l 501 895 l 490 895 q 450 876 474 884 l 450 871 m 281 879 l 284 838 l 284 803 l 287 803 l 295 811 l 287 879 l 281 879 m 406 849 l 412 849 l 425 854 l 425 860 l 420 860 l 406 849 m 379 833 l 382 833 l 398 844 l 398 846 l 395 846 q 379 833 381 841 m 371 833 l 371 830 l 376 830 l 376 833 l 371 833 m 349 803 l 347 800 l 347 792 l 352 787 l 355 787 l 355 798 l 349 803 m 322 795 l 322 787 l 328 792 l 328 795 l 322 795 m 409 781 l 412 781 q 431 792 431 785 l 428 792 q 409 781 409 789 m 309 779 l 306 776 l 306 757 l 317 757 q 333 770 333 766 q 309 779 324 777 m 284 765 l 284 743 l 298 746 l 298 768 l 292 773 l 284 765 m 371 762 l 371 760 l 374 760 l 387 762 l 387 768 l 376 768 l 371 762 m 374 738 l 376 735 q 428 762 406 735 l 433 768 l 425 768 q 374 738 374 755 m 420 743 l 420 741 l 422 741 q 585 760 585 753 l 547 765 l 545 762 l 526 765 l 507 765 q 420 743 431 765 m 349 751 l 349 746 l 357 754 l 357 757 l 355 757 l 349 751 m 740 743 l 762 732 l 767 732 q 789 751 783 741 l 789 754 q 740 743 740 754 m 311 732 l 314 730 q 333 741 333 736 l 333 743 l 330 743 q 311 732 311 740 m 547 735 l 545 738 l 542 738 l 507 732 l 507 735 l 479 730 l 477 732 l 474 732 q 371 716 374 724 l 374 713 l 374 694 l 376 562 l 374 559 l 376 545 l 376 507 l 374 488 l 376 464 l 374 361 l 376 358 q 585 591 400 376 l 683 711 q 702 730 696 730 l 702 732 q 661 743 702 743 l 547 735 m 642 646 l 642 643 l 648 637 q 718 727 653 637 l 718 732 q 642 646 698 720 m 615 578 l 615 575 q 759 722 622 575 q 734 730 759 728 q 661 637 729 730 l 615 578 m 311 711 l 314 697 l 311 681 l 317 613 l 314 610 l 317 600 l 319 399 l 319 296 l 322 296 q 338 578 338 296 l 336 624 l 338 627 l 338 629 q 328 719 336 719 l 311 711 m 349 719 l 349 713 l 347 713 l 349 673 l 349 621 l 352 583 l 349 581 l 349 578 q 363 453 353 453 l 363 461 l 360 705 l 357 719 l 349 719 m 287 711 q 303 266 287 557 l 309 266 l 311 285 l 311 369 q 303 700 311 529 q 292 716 303 711 l 287 711 m 778 700 l 778 697 l 781 697 q 791 708 782 708 l 791 713 l 778 700 m 374 288 l 379 288 q 691 627 657 566 q 734 678 721 656 l 734 681 q 376 298 479 422 l 374 288 m 629 635 q 612 616 629 626 q 520 505 598 591 q 385 350 459 427 l 385 347 l 387 347 q 545 518 429 383 l 634 632 l 634 635 l 629 635 m 596 556 l 596 553 l 612 570 l 612 572 l 596 556 m 344 453 l 341 450 l 341 448 l 347 442 l 349 445 l 349 448 l 344 453 m 360 442 l 360 434 l 363 434 l 363 442 l 360 442 m 344 431 l 344 418 l 349 418 l 349 426 l 344 431 m 347 407 l 341 369 l 341 350 l 344 339 l 338 317 l 341 317 q 355 342 355 324 l 352 404 l 349 407 l 347 407 m 509 361 l 509 358 l 515 363 l 515 366 l 509 361 m 498 350 l 498 345 l 504 345 l 504 350 l 498 350 m 455 293 l 455 290 l 458 290 l 493 334 l 493 336 l 455 293 m 374 263 l 374 260 l 379 260 q 409 296 379 266 l 409 301 q 374 263 382 283 m 441 279 l 441 274 l 444 274 l 452 282 l 452 285 l 441 279 m 349 271 l 336 250 l 338 250 q 355 269 350 256 l 352 271 l 349 271 m 284 263 l 284 247 l 290 252 l 287 263 l 284 263 m 347 244 l 333 220 l 336 217 l 338 217 l 352 236 l 352 239 l 347 244 m 371 201 l 379 201 l 401 233 l 401 241 q 371 201 371 219 m 322 214 l 322 209 l 325 209 l 325 214 l 322 214 m 328 141 l 328 138 l 330 138 q 349 187 349 152 l 341 187 q 328 141 331 187 m 284 179 l 281 168 l 284 168 l 292 176 l 292 179 l 284 179 m 252 149 l 252 144 l 257 144 l 257 149 l 252 149 m 279 73 l 279 71 l 281 71 l 295 92 l 292 111 l 292 149 l 290 149 q 279 73 280 149 m 309 149 l 309 144 l 311 144 l 311 149 l 309 149 m 184 73 q 241 119 228 104 l 230 130 l 227 130 l 184 79 l 184 73 m 352 117 l 352 114 l 357 114 l 357 122 l 352 117 z "},"C":{"ha":1003,"x_min":176,"x_max":827,"o":"m 789 1149 l 794 1149 l 800 1143 q 748 1102 799 1135 l 696 1055 l 696 1050 l 702 1050 l 805 1085 l 808 1082 l 805 1067 l 813 1055 l 813 1050 l 772 1017 l 772 1015 l 775 1015 l 821 1038 l 827 1038 l 827 1032 q 604 862 803 1006 l 406 728 l 406 722 l 488 584 q 574 446 507 545 l 574 435 l 566 435 l 574 426 l 577 426 l 577 431 l 585 431 q 604 399 585 422 q 732 262 614 372 l 737 256 l 743 256 l 740 264 l 748 294 l 745 296 l 748 311 l 748 340 q 759 361 748 357 l 762 358 l 764 358 l 759 300 q 800 262 800 300 l 800 256 l 797 244 l 800 229 q 770 77 800 182 q 819 27 770 71 l 819 21 l 813 21 q 770 54 804 21 l 762 60 l 759 56 q 740 33 753 33 l 734 39 l 740 74 q 688 124 707 124 q 450 402 503 287 q 412 467 442 402 q 330 578 361 559 q 295 602 295 597 l 306 648 q 281 695 288 695 l 246 698 q 219 689 233 689 l 214 695 l 214 698 q 295 753 214 703 l 295 757 l 290 757 q 189 719 258 736 q 176 728 176 721 l 176 733 q 260 801 195 756 q 317 839 265 812 l 317 844 l 224 801 l 219 801 l 216 804 l 214 804 q 344 880 214 815 q 691 1090 458 932 q 753 1123 734 1123 l 789 1149 m 677 1064 q 599 1006 602 1015 l 602 1006 q 677 1061 667 1030 l 683 1061 l 683 1064 l 677 1064 m 729 1029 l 732 1029 l 786 1055 l 786 1061 l 783 1061 l 732 1035 l 729 1032 l 729 1029 m 705 1038 l 705 1032 l 713 1032 l 715 1041 l 713 1041 l 705 1038 m 672 1021 l 680 1021 l 696 1032 l 691 1032 q 672 1021 672 1025 m 585 944 l 585 941 q 707 1015 671 986 l 705 1015 q 585 944 627 987 m 759 1006 l 759 1003 l 764 1008 l 764 1012 l 759 1006 m 496 848 l 496 844 q 694 968 557 871 q 721 994 721 989 l 718 994 q 496 848 540 888 m 455 912 l 463 912 q 515 939 473 922 q 604 991 600 981 l 602 991 q 455 915 566 984 l 455 912 m 422 753 l 422 751 l 425 751 l 517 812 q 705 950 668 918 l 734 968 l 732 970 l 732 973 q 422 753 545 853 m 189 739 l 189 733 l 200 730 q 371 809 283 757 q 558 939 540 903 l 561 941 l 558 944 l 382 853 l 257 786 l 192 739 l 189 739 m 355 868 l 355 865 l 357 865 q 368 874 368 869 l 366 874 l 355 868 m 341 857 l 341 853 l 349 862 l 347 862 l 341 857 m 325 850 l 325 848 l 333 848 l 333 850 l 325 850 m 441 792 l 441 786 l 450 786 l 517 842 l 515 842 l 441 792 m 352 766 l 352 762 l 357 762 q 458 827 419 793 l 458 833 q 352 766 375 790 m 363 757 l 363 753 q 371 736 365 736 l 404 768 l 404 774 l 398 774 q 363 757 375 757 m 328 757 l 328 751 l 333 751 l 338 757 l 328 757 m 309 742 l 309 739 l 314 739 l 322 748 l 314 748 l 309 742 m 306 719 l 333 704 q 352 722 352 710 q 338 742 352 738 q 306 719 306 728 m 281 715 l 281 707 l 292 707 l 300 715 l 290 719 l 281 715 m 374 704 l 374 701 q 409 610 374 692 q 577 385 436 545 l 580 385 l 504 493 q 398 671 465 549 q 379 704 393 671 l 374 704 m 406 695 l 406 686 l 490 543 l 545 460 l 550 460 l 433 657 q 406 695 430 669 m 303 692 l 303 686 l 309 686 l 309 692 l 303 692 m 352 680 l 385 631 l 385 622 l 393 628 q 366 692 382 643 l 360 692 l 352 680 m 314 625 l 311 610 l 311 604 l 336 593 l 336 598 l 319 625 l 314 625 m 420 560 l 420 555 l 422 555 l 422 560 l 420 560 m 398 546 l 398 543 q 414 519 408 521 l 414 522 q 398 546 404 545 m 482 484 l 482 481 l 488 475 l 488 484 l 482 484 m 444 458 l 444 452 q 485 399 449 452 q 490 391 490 399 l 493 387 l 498 387 l 498 391 l 450 458 l 444 458 m 553 455 l 553 449 l 558 449 l 558 455 l 553 455 m 558 446 l 564 440 l 564 446 l 558 446 m 534 396 l 534 387 q 577 332 540 387 q 726 197 675 223 q 536 396 711 220 l 534 396 m 498 382 l 504 376 l 507 376 l 507 382 l 498 382 m 507 358 l 507 355 l 512 355 l 512 358 l 507 358 m 517 347 l 517 344 q 640 197 569 271 l 642 197 l 642 212 q 574 294 631 212 l 520 347 l 517 347 m 626 340 l 631 335 l 631 340 l 626 340 m 756 256 l 756 250 q 781 212 756 236 l 781 206 l 775 200 l 772 200 l 762 209 l 753 209 q 775 156 753 188 l 781 156 q 789 244 789 201 q 772 288 785 288 l 770 288 q 756 256 760 288 m 688 279 l 694 279 l 694 285 l 688 279 m 696 276 q 729 241 696 270 l 737 241 l 737 247 q 705 273 726 247 l 696 276 m 623 250 l 623 247 q 669 197 647 213 q 734 115 701 152 l 737 115 l 740 124 l 737 127 l 740 147 l 740 165 q 629 247 694 193 l 626 250 l 623 250 m 753 153 l 751 150 l 751 106 l 753 92 l 762 92 l 775 130 l 775 147 l 753 153 z "},"D":{"ha":1003,"x_min":75,"x_max":927,"o":"m 135 1139 l 154 1139 l 205 1134 l 241 1134 q 330 1120 286 1134 q 344 1137 334 1132 q 352 1115 349 1137 l 355 1112 l 382 1112 q 466 1080 401 1112 q 699 985 585 1036 q 819 901 819 924 l 824 873 q 927 819 927 833 l 927 814 q 851 746 914 792 q 751 621 751 647 l 764 627 l 767 618 q 667 467 724 573 q 526 263 551 330 q 512 233 518 263 q 452 125 489 199 l 387 0 l 379 0 l 379 3 q 498 236 404 60 q 504 255 502 236 l 504 258 l 501 258 q 360 54 467 199 q 322 3 326 3 l 317 8 l 352 76 l 349 76 l 300 43 l 287 38 l 284 41 l 284 49 l 303 71 q 295 95 301 95 l 292 95 l 254 65 l 252 65 l 243 73 l 243 79 l 252 92 l 246 92 l 238 90 l 235 92 l 235 130 l 238 141 l 235 144 l 281 808 l 287 1006 l 290 1009 l 292 1009 q 303 944 300 1009 l 300 941 l 300 939 q 317 911 300 918 l 309 846 l 309 830 q 314 719 309 741 l 311 708 l 314 643 l 317 632 l 319 632 l 322 646 l 322 882 l 319 906 q 325 955 325 920 l 325 1023 q 276 1053 325 1042 q 252 1061 276 1059 q 208 1080 241 1069 q 102 1115 149 1115 l 92 1115 q 75 1123 77 1115 q 97 1134 75 1130 l 113 1131 l 116 1131 q 135 1139 125 1131 m 154 1128 l 154 1126 l 159 1126 l 159 1128 l 154 1128 m 262 1123 l 262 1118 l 317 1107 l 319 1107 l 319 1109 q 273 1126 319 1116 l 262 1123 m 249 1123 l 249 1120 l 260 1120 l 260 1123 l 249 1123 m 276 1107 l 273 1104 l 273 1101 l 281 1101 l 276 1107 m 360 1104 l 357 1101 l 357 1096 q 417 1077 412 1082 l 433 1077 l 433 1080 l 425 1093 l 422 1090 l 420 1090 l 382 1104 l 368 1101 l 360 1104 m 219 1093 q 325 1047 219 1082 l 325 1055 q 222 1093 319 1064 l 219 1093 m 436 1080 l 436 1074 l 450 1072 l 450 1074 l 444 1080 l 436 1080 m 363 1077 l 363 1074 l 368 1069 l 371 1069 l 371 1077 l 363 1077 m 385 1069 l 385 1063 l 395 1058 l 401 1058 l 401 1063 l 390 1069 l 385 1069 m 409 1061 l 409 1053 q 574 993 420 1053 q 732 928 645 958 l 732 930 q 718 944 730 941 l 713 958 l 710 955 l 705 955 q 585 1009 666 987 q 409 1061 438 1056 m 338 1047 l 338 1044 l 344 1036 l 344 1034 q 333 1017 333 1025 l 336 1006 l 333 993 l 336 990 l 333 977 l 333 968 l 336 944 l 333 917 l 333 898 l 330 887 l 333 879 l 330 865 l 333 849 l 330 833 l 333 800 l 330 765 l 333 746 l 330 694 l 333 678 l 330 670 l 333 667 l 330 654 l 330 586 l 328 570 q 336 556 331 556 l 338 556 l 338 562 l 341 562 l 336 589 l 349 890 l 347 911 l 349 911 l 347 920 l 349 1020 l 347 1034 q 352 1042 352 1034 q 344 1053 348 1053 l 338 1047 m 366 1042 l 363 1039 l 363 1031 q 463 998 425 998 l 469 998 l 469 1004 l 366 1042 m 368 1017 l 363 1004 q 374 703 370 918 l 371 700 l 374 686 l 374 613 l 376 602 l 374 594 l 376 575 l 374 562 l 376 559 l 376 556 l 374 540 l 376 510 l 374 483 l 376 469 l 374 426 l 374 307 l 376 307 q 498 450 446 395 q 688 686 586 573 l 762 784 l 762 800 q 737 825 751 800 q 672 882 715 840 l 672 887 l 677 887 q 767 803 755 824 l 772 803 q 786 827 786 817 q 748 876 772 876 q 664 909 704 884 l 656 909 l 656 906 l 669 892 q 661 887 669 887 q 561 936 608 936 l 469 971 q 463 979 463 971 l 460 977 l 458 977 q 395 996 412 996 l 390 996 q 368 1017 387 1017 m 488 1015 l 493 1009 l 493 1015 l 488 1015 m 512 1004 l 517 998 l 520 998 l 520 1004 l 512 1004 m 523 998 l 523 993 l 536 993 l 536 998 l 523 998 m 539 993 q 626 952 547 984 l 634 952 l 631 960 l 618 960 q 545 993 602 971 l 539 993 m 479 982 l 479 974 l 553 949 l 566 949 l 566 952 q 479 982 508 981 m 640 947 l 656 941 l 650 952 l 645 952 l 640 947 m 667 941 l 667 933 l 675 933 l 680 939 l 667 941 m 745 933 l 764 922 l 764 925 l 751 939 l 745 933 m 683 933 l 688 928 l 694 928 l 688 933 l 683 933 m 707 922 q 753 901 710 915 l 756 903 l 756 906 q 707 922 744 922 m 791 917 l 791 914 q 810 884 800 884 l 810 901 q 794 917 805 911 l 791 917 m 686 909 l 686 906 l 691 906 l 691 909 l 686 909 m 713 901 l 718 895 l 718 901 l 713 901 m 781 871 l 786 846 l 789 846 l 794 852 l 794 863 l 786 871 l 781 871 m 824 854 q 794 711 824 773 l 794 708 l 913 814 l 913 817 q 824 854 899 833 m 781 798 l 781 792 l 783 792 l 783 798 l 781 798 m 539 491 l 542 491 q 724 686 724 659 q 770 768 770 743 l 770 776 l 767 776 q 591 562 711 695 l 539 491 m 791 738 l 791 735 l 794 735 l 802 757 q 791 738 791 753 m 352 711 l 352 681 l 355 681 l 355 711 l 352 711 m 789 708 l 789 703 l 791 703 l 791 708 l 789 708 m 292 689 l 292 491 l 290 439 l 292 437 l 292 434 l 287 410 l 290 399 l 284 217 q 260 136 268 217 q 252 106 256 136 l 252 103 l 254 103 q 295 203 285 161 l 298 591 l 298 624 l 300 627 l 298 629 l 298 694 l 292 689 m 753 684 l 748 670 l 748 667 l 759 681 l 759 684 l 753 684 m 352 673 l 347 643 l 347 589 l 349 570 l 355 575 l 355 597 l 357 635 l 355 673 l 352 673 m 740 662 l 740 656 l 743 656 l 743 662 l 740 662 m 317 618 l 317 602 l 319 602 l 319 618 l 317 618 m 477 285 l 479 285 q 656 513 602 414 l 713 602 l 710 602 q 553 407 646 534 l 477 288 l 477 285 m 376 282 l 376 271 l 382 271 q 653 581 621 515 l 669 600 l 667 600 q 482 407 484 423 l 428 339 q 376 282 398 317 m 309 562 l 306 543 l 306 494 l 309 477 l 306 464 l 309 448 l 306 418 l 306 369 l 303 339 l 306 336 l 303 323 l 303 222 l 306 222 q 333 258 319 231 l 330 271 l 330 304 l 311 562 l 309 562 m 347 556 l 347 534 l 352 534 l 352 556 l 347 556 m 634 442 l 640 442 l 667 486 l 667 488 q 634 442 634 453 m 273 486 l 273 469 l 276 469 l 276 486 l 273 486 m 355 472 q 338 393 350 393 l 338 391 l 344 279 l 344 274 q 360 442 360 274 l 360 469 l 357 472 l 355 472 m 542 423 l 547 423 l 547 429 l 542 423 m 374 182 l 379 182 q 479 317 419 218 l 542 418 l 542 420 l 536 420 q 374 239 374 254 l 374 182 m 262 418 l 257 358 l 260 355 l 260 353 q 249 247 255 346 l 252 244 l 252 241 l 246 174 l 249 165 l 243 144 l 243 136 l 249 136 q 268 250 268 224 l 268 385 l 271 396 l 268 407 l 268 418 l 262 418 m 498 277 l 493 266 l 493 263 l 496 263 l 504 271 l 504 277 l 498 277 m 417 174 q 425 165 425 174 l 433 174 l 425 176 q 482 266 441 211 l 482 271 q 417 174 431 222 m 303 182 l 306 182 q 347 239 339 212 l 352 258 l 347 258 q 303 182 303 212 m 482 255 l 444 193 l 447 193 q 488 255 488 243 l 482 255 m 347 157 l 349 155 q 366 198 366 155 l 366 228 l 363 228 q 347 157 356 228 m 338 198 l 306 157 l 306 146 l 309 136 l 306 125 l 309 122 l 309 119 q 344 195 335 119 l 341 198 l 338 198 m 404 187 q 368 117 368 136 l 368 111 l 374 111 l 409 187 l 404 187 m 336 111 l 338 111 l 360 138 l 360 146 q 336 111 347 146 m 257 81 l 260 81 q 298 114 292 101 l 298 141 l 295 141 l 273 109 q 257 81 257 101 m 306 100 l 309 84 l 314 84 q 325 111 321 84 l 325 117 l 322 117 l 306 100 m 330 81 l 333 81 q 360 114 360 92 l 360 117 l 357 117 q 330 81 336 96 z "},"E":{"ha":926,"x_min":123,"x_max":804,"o":"m 378 954 q 399 900 381 954 q 410 878 404 899 l 766 878 l 774 870 q 730 859 774 861 l 728 862 l 728 865 l 654 867 l 470 867 l 475 862 l 758 857 l 768 857 l 777 848 l 774 840 q 785 821 785 836 l 785 813 l 768 802 l 763 802 q 758 810 758 802 q 440 827 591 827 q 459 800 452 803 l 725 800 l 798 797 l 804 789 q 768 781 804 782 l 763 786 l 467 786 l 467 783 q 592 686 492 745 q 744 599 692 612 l 758 610 l 760 610 l 768 602 l 755 593 l 755 588 q 771 577 765 587 l 771 572 l 766 566 l 730 580 q 703 564 703 568 q 728 553 728 557 l 728 550 l 714 550 l 692 555 q 451 409 661 543 q 264 216 327 307 l 258 192 l 261 189 l 261 186 l 256 165 l 258 135 l 256 135 q 313 48 271 73 q 467 7 345 22 l 486 10 l 519 10 q 736 102 608 10 l 749 146 l 755 146 l 760 140 l 760 127 q 720 64 760 112 l 725 48 l 714 18 l 717 18 l 763 56 l 766 56 l 766 54 q 614 -58 700 -22 q 486 -87 558 -77 l 475 -85 q 424 -93 470 -90 q 223 -22 272 -93 l 229 -17 q 340 -77 273 -63 l 342 -79 l 367 -79 q 399 -85 399 -80 l 413 -82 l 437 -82 l 437 -77 l 421 -77 l 421 -66 l 429 -66 l 432 -68 l 435 -66 l 497 -71 q 646 -25 601 -50 q 714 43 714 12 l 714 54 l 709 59 l 706 59 q 551 -3 681 35 q 416 -25 460 -25 l 405 -25 l 389 -22 l 386 -25 l 383 -25 l 359 -20 l 356 -22 q 302 -12 325 -20 l 302 -20 q 326 -31 309 -31 q 378 -55 326 -39 l 418 -63 l 418 -66 l 413 -71 l 410 -71 q 337 -50 383 -71 q 242 7 330 -50 l 207 21 l 204 21 l 204 10 q 220 -14 216 10 l 220 -17 l 215 -17 l 177 48 l 161 64 l 158 64 q 136 2 149 64 l 136 -28 l 144 -58 l 139 -58 q 123 -20 131 -56 l 123 -17 q 147 78 123 17 q 136 140 136 116 q 250 412 136 272 l 291 450 q 551 585 388 518 l 554 588 l 554 591 l 486 615 l 486 618 l 508 618 q 587 596 558 596 l 592 596 q 329 718 435 680 q 315 724 315 718 l 321 729 l 332 729 q 543 637 356 729 l 546 637 l 546 640 q 443 696 505 658 q 332 748 396 724 l 332 751 l 337 756 q 383 740 352 756 l 386 740 l 386 743 l 321 789 q 291 800 291 793 q 304 805 291 805 l 288 827 l 275 824 l 267 824 l 261 829 q 280 838 261 838 l 280 843 q 248 854 280 854 l 218 854 l 207 846 q 185 857 192 846 l 185 859 l 191 865 l 193 865 l 261 867 q 229 930 233 910 l 237 935 q 253 903 241 935 l 277 870 q 294 876 294 872 q 272 916 272 908 l 272 919 l 277 919 q 307 876 291 910 l 389 878 l 397 878 l 397 881 q 370 949 375 921 l 378 954 m 294 854 l 294 851 q 342 802 294 842 l 351 802 l 307 854 l 294 854 m 508 843 l 508 840 l 652 832 l 687 835 l 771 824 q 709 840 764 840 l 701 840 l 682 838 l 676 843 l 508 843 m 345 829 q 383 800 368 800 l 383 802 l 353 829 l 345 829 m 375 829 l 394 810 l 413 813 l 397 829 l 375 829 m 418 829 l 427 816 l 429 816 l 429 819 l 421 829 l 418 829 m 361 789 q 380 775 361 785 l 380 778 q 361 789 368 789 m 391 789 l 391 786 q 440 748 400 774 l 440 751 q 391 789 402 789 m 421 786 q 503 710 498 710 l 503 713 q 427 786 441 782 l 421 786 m 524 713 q 608 656 557 671 l 611 656 l 611 659 l 527 713 l 524 713 m 513 677 l 513 675 l 532 661 l 532 664 l 513 677 m 638 604 l 638 602 l 644 602 l 644 604 l 638 604 m 701 602 q 665 577 696 593 l 665 574 l 668 574 l 720 591 q 701 602 720 596 m 652 588 l 657 583 l 657 588 l 652 588 m 218 227 l 220 227 q 275 292 269 271 q 383 460 306 377 q 519 545 444 511 q 587 561 567 561 l 587 555 q 356 414 427 511 q 288 306 324 381 l 286 295 l 288 295 q 459 439 413 395 q 505 474 500 474 l 505 479 l 429 450 l 427 450 l 427 455 q 546 515 427 462 q 622 564 563 519 l 622 569 l 597 574 q 416 504 541 567 q 261 344 322 435 q 218 227 218 256 m 592 564 l 597 564 l 597 558 l 592 558 l 592 564 m 489 450 l 494 450 q 665 555 637 532 l 663 555 q 524 479 547 504 l 489 450 m 177 170 l 177 157 l 174 154 l 174 151 l 177 149 l 180 149 q 220 279 204 200 q 334 447 254 365 l 351 463 l 351 469 q 199 281 241 404 q 177 170 185 247 m 212 347 l 212 341 q 220 355 218 341 l 212 347 m 144 154 l 147 146 l 144 130 q 158 94 152 94 l 161 94 l 177 249 l 210 336 q 161 238 199 336 l 144 154 m 272 254 l 272 252 l 275 252 q 334 319 314 291 l 332 319 q 272 254 272 276 m 212 195 l 212 181 l 215 181 q 258 243 258 226 l 258 249 q 212 195 235 235 m 245 200 q 210 143 210 157 l 210 124 q 253 24 216 80 q 321 -6 281 -6 l 348 -9 q 356 -14 348 -14 l 372 -12 l 410 -14 q 497 -6 455 -14 l 497 -1 l 492 -1 l 478 2 l 465 -1 l 429 5 l 421 2 q 280 62 312 22 q 248 149 248 94 l 250 197 l 248 200 l 245 200 m 193 132 l 191 119 l 191 116 l 196 111 l 201 116 l 201 132 l 193 132 m 180 105 l 180 97 q 218 29 180 50 q 234 24 222 24 l 242 16 l 245 18 l 245 21 q 210 86 221 47 q 191 105 210 95 l 180 105 m 163 89 l 163 78 l 169 78 l 169 89 l 163 89 m 144 -63 l 147 -63 q 234 -136 186 -113 l 264 -155 l 264 -158 l 261 -158 q 139 -68 219 -158 l 144 -63 z "},"F":{"ha":848,"x_min":66,"x_max":782,"o":"m 256 1278 l 264 1278 l 258 1204 l 261 1202 l 261 1199 l 253 1126 l 256 1123 l 256 1120 l 253 1109 l 258 1093 l 256 1080 l 264 1069 l 519 1069 l 606 1074 l 657 1074 l 663 1069 l 654 1061 l 603 1061 q 380 1031 534 1061 l 372 1031 l 372 1025 l 375 1025 l 399 1031 l 416 1028 l 443 1031 l 443 1028 l 649 1044 l 652 1042 l 671 1044 l 717 1044 l 725 1036 l 717 1031 l 684 1031 q 486 1012 629 1031 l 424 1001 l 424 998 l 429 998 l 429 996 l 519 1004 l 519 1001 q 701 1012 525 1009 l 749 1012 l 766 1015 q 782 1006 782 1011 q 456 955 782 992 l 329 933 l 329 917 l 334 911 l 454 920 l 454 911 l 413 906 l 410 909 l 334 903 l 329 892 l 332 865 l 329 863 l 332 844 l 332 808 l 329 776 l 332 743 l 332 711 l 337 705 l 616 741 l 622 732 q 399 703 622 725 l 340 692 l 340 689 l 342 689 l 494 692 l 549 692 l 559 694 l 562 692 l 565 692 l 597 694 l 625 686 l 673 692 l 695 689 l 698 692 l 701 692 l 711 689 l 711 681 l 627 675 l 625 678 l 614 675 q 332 654 332 663 l 332 640 l 570 659 l 589 654 l 644 656 l 646 656 l 652 651 l 652 648 l 646 640 l 627 643 q 530 627 597 643 l 524 637 q 332 610 474 635 l 332 605 l 329 553 l 332 551 l 329 543 l 332 355 l 329 171 l 332 157 l 329 155 l 329 152 l 332 138 l 329 119 l 332 103 l 329 103 l 332 100 l 332 98 q 342 -27 332 52 l 340 -27 q 321 149 326 -27 l 315 149 l 307 109 l 307 95 l 310 84 l 307 81 l 310 68 l 310 3 l 304 -3 l 299 -3 l 299 3 l 296 3 l 299 49 l 299 119 q 280 236 286 174 l 275 236 q 264 179 271 179 l 267 165 q 261 76 261 137 l 264 68 l 261 52 l 261 8 l 256 3 l 253 5 l 253 46 l 256 179 l 258 182 l 258 184 q 239 285 245 285 l 237 266 l 237 138 l 239 109 l 237 106 q 253 -16 245 -16 l 248 -16 l 239 -11 l 237 -11 l 237 -144 l 250 -269 l 248 -269 q 226 -90 231 -261 l 226 -33 l 223 -16 l 226 -3 l 226 19 l 223 30 l 226 33 l 226 35 l 218 369 l 218 621 q 204 627 218 627 l 204 629 l 185 627 l 155 627 l 150 632 q 196 648 150 641 l 210 651 l 212 654 l 212 656 l 182 659 l 161 656 l 153 659 l 134 656 l 71 656 l 66 662 l 77 673 l 93 673 q 112 667 112 672 l 115 670 l 117 670 l 128 667 l 131 670 l 134 670 l 166 667 l 169 670 l 172 670 l 182 667 l 193 667 l 207 670 l 207 667 l 218 675 l 215 678 l 182 678 l 177 684 q 218 694 177 692 l 218 754 l 220 768 l 218 784 l 218 892 q 177 903 218 899 l 174 906 l 174 909 l 218 925 l 218 936 l 207 936 l 180 933 l 172 947 l 134 941 l 128 949 q 215 968 143 958 l 220 977 l 220 996 l 215 1001 l 163 998 l 163 1004 q 218 1017 163 1013 l 220 1020 l 220 1112 l 229 1112 l 229 1077 l 234 1072 l 239 1096 q 256 1278 239 1183 m 258 1044 l 258 1028 l 264 1023 l 283 1025 l 283 1023 q 294 1044 294 1023 l 302 1050 l 310 1044 l 323 1044 q 329 1034 323 1034 l 459 1053 l 459 1058 l 448 1061 l 427 1058 l 405 1061 l 402 1058 l 399 1058 l 386 1061 l 361 1058 l 361 1061 l 359 1058 l 342 1061 l 326 1058 l 313 1061 l 310 1058 l 307 1058 l 294 1061 l 275 1058 l 272 1061 l 269 1061 q 258 1044 258 1058 m 229 1050 l 229 1023 l 237 1023 l 234 1025 l 234 1050 l 229 1050 m 462 1020 l 446 1023 l 370 1015 l 367 1017 l 364 1017 q 326 1006 326 1015 l 326 993 l 334 993 l 481 1020 q 473 1025 481 1025 l 462 1020 m 261 1001 l 261 979 l 267 979 q 296 996 294 979 l 294 1009 q 261 1001 261 1008 m 397 996 l 397 993 l 416 993 l 416 998 l 397 996 m 329 960 l 332 958 l 332 955 q 592 987 540 977 l 616 987 l 622 993 l 619 996 q 329 963 412 979 l 329 960 m 229 985 l 229 979 l 231 979 l 231 985 l 229 985 m 288 960 l 286 958 l 286 955 l 294 955 l 288 960 m 269 955 l 269 949 l 277 949 l 283 955 l 269 955 m 267 936 l 267 933 l 286 933 l 291 939 l 291 944 l 288 944 q 267 936 267 943 m 229 936 l 229 928 l 234 928 l 234 930 l 229 936 m 264 920 l 272 909 l 291 909 l 296 914 l 296 922 l 291 930 l 264 920 m 267 898 q 280 700 272 700 l 294 700 l 302 705 l 296 890 l 296 892 l 288 901 l 272 901 l 269 898 l 267 898 m 226 895 l 229 879 l 226 854 l 229 841 l 226 838 l 226 836 l 229 819 l 229 800 l 234 806 l 234 898 l 231 898 l 229 895 l 226 895 m 250 841 l 248 732 l 248 697 l 256 697 l 258 700 l 261 700 l 256 841 l 250 841 m 229 798 l 229 792 l 231 792 l 231 798 l 229 798 m 397 684 l 402 678 l 408 678 l 408 684 l 397 684 m 277 675 l 277 670 l 294 670 l 299 675 l 294 681 l 283 681 l 277 675 m 334 678 l 334 673 l 337 673 l 356 675 l 356 678 l 334 678 m 275 646 l 277 637 l 296 637 l 302 643 l 302 648 l 296 654 q 275 646 283 654 m 248 643 l 253 637 l 256 637 l 261 643 l 261 648 l 253 648 l 248 643 m 245 624 l 245 393 l 248 382 l 245 380 l 245 377 l 256 263 l 261 263 l 261 282 l 264 393 l 261 396 l 261 399 l 264 410 l 264 420 l 261 448 l 264 461 l 261 483 l 264 483 l 261 486 l 264 513 l 261 526 l 264 545 q 258 624 264 594 l 245 624 m 277 594 l 280 391 l 283 388 l 283 385 l 280 374 q 288 274 283 274 l 286 271 l 286 269 l 294 222 l 294 198 l 299 198 l 294 472 l 291 480 l 294 483 l 296 483 l 299 480 l 302 480 l 304 483 l 304 488 l 299 494 l 294 488 l 291 491 l 291 494 l 294 513 l 291 532 l 294 567 l 291 586 l 294 589 l 296 589 l 299 562 l 302 562 l 302 602 l 283 602 q 277 594 277 602 m 304 296 l 304 252 l 307 252 l 313 258 l 313 296 l 304 296 m 277 247 l 277 241 l 280 241 l 280 247 l 277 247 m 307 239 l 307 198 l 310 179 l 315 184 l 315 220 l 310 239 l 307 239 z "},"G":{"ha":1080,"x_min":87,"x_max":993,"o":"m 977 1009 l 987 1009 l 993 1004 q 977 996 990 996 l 952 996 l 930 990 l 928 993 q 711 958 711 964 l 711 955 l 765 955 l 770 949 q 673 933 770 941 l 673 930 q 819 911 819 922 l 808 906 l 789 914 l 787 911 l 768 914 l 762 914 q 719 895 741 895 l 708 895 l 708 890 l 806 890 l 811 884 l 800 879 l 789 882 l 765 879 l 751 882 l 743 879 l 724 882 l 694 879 l 678 882 l 667 879 l 665 882 l 662 882 l 654 879 l 648 879 l 648 882 l 627 879 q 296 841 296 858 q 320 795 320 817 q 336 757 331 789 l 347 743 l 345 732 q 377 659 349 730 l 467 526 l 467 524 l 464 521 l 464 518 q 496 483 474 518 l 537 429 l 534 429 q 496 469 520 429 l 450 526 l 450 521 l 448 521 l 480 453 q 613 307 486 414 l 632 288 l 635 288 l 635 296 l 600 342 q 589 350 600 350 l 534 420 l 537 429 q 637 304 637 317 l 643 304 q 757 540 666 329 l 784 600 q 754 616 784 609 q 602 656 704 637 l 600 654 l 591 654 l 583 659 l 559 659 l 556 662 l 553 659 l 510 659 l 494 662 l 486 659 l 475 662 l 456 659 l 453 662 l 450 662 l 439 659 l 437 662 l 437 665 l 442 670 l 515 670 l 529 673 l 529 675 q 483 692 483 681 q 499 700 483 700 l 491 711 l 496 716 l 540 716 l 551 713 l 570 716 l 746 716 q 901 703 838 716 l 920 708 q 971 689 920 699 q 990 670 987 678 q 925 572 990 646 l 933 559 l 933 556 q 781 312 857 465 q 684 133 684 158 l 697 117 l 697 111 l 692 106 l 689 106 l 678 114 l 673 109 l 675 95 l 667 90 l 662 90 l 656 106 q 629 54 650 106 l 651 11 l 651 5 l 646 0 l 627 33 l 624 33 l 621 30 l 608 8 l 602 14 q 613 49 602 28 q 559 136 613 60 q 450 274 522 190 q 431 304 437 287 q 382 358 423 304 l 345 404 l 345 415 l 347 415 q 564 144 505 230 l 581 127 l 578 119 l 581 119 q 616 68 585 119 q 640 122 627 74 q 605 168 640 135 l 602 168 q 591 144 596 168 l 583 136 l 581 136 l 594 179 q 575 203 591 191 q 567 214 575 214 q 559 231 559 223 l 551 228 q 399 423 532 239 q 363 477 392 427 q 290 605 323 537 q 263 651 284 606 q 222 746 248 653 l 193 792 q 92 879 119 879 l 87 884 l 87 887 l 92 892 l 103 892 l 190 901 l 198 901 l 203 906 l 157 903 l 127 903 l 122 909 l 130 917 q 749 977 566 947 l 977 1009 m 591 936 l 637 939 l 654 939 l 654 944 l 635 944 q 591 936 591 944 m 553 933 l 556 933 l 567 936 l 578 933 l 581 936 l 581 939 l 559 939 l 553 933 m 269 892 l 269 887 q 285 873 275 887 l 567 917 l 567 920 l 488 920 l 472 917 l 469 920 l 467 920 q 269 892 269 901 m 602 909 l 591 911 l 475 892 l 475 895 l 315 868 l 315 865 l 317 865 l 600 895 l 602 895 l 605 892 l 608 892 l 724 906 l 724 911 l 678 914 l 632 914 q 602 909 613 914 m 187 876 l 187 863 l 201 846 q 231 863 218 863 q 241 871 241 863 l 239 879 l 247 884 l 250 884 l 260 868 l 266 868 l 266 890 l 247 892 q 187 876 187 886 m 127 879 q 155 854 127 874 q 187 817 155 848 l 190 817 l 190 819 q 165 865 190 835 l 168 887 l 155 887 q 127 879 135 886 m 298 868 l 298 863 l 304 863 l 304 868 l 298 868 m 222 836 l 222 833 q 285 716 222 816 q 347 665 318 716 l 347 662 l 339 662 q 304 700 311 700 l 296 705 l 293 703 q 396 537 297 682 l 396 534 l 401 534 q 363 624 401 554 l 347 648 l 347 662 q 363 643 363 654 l 369 643 l 369 646 l 331 719 q 274 822 311 766 l 274 827 l 277 830 l 277 833 q 309 779 287 833 l 312 776 l 317 776 l 317 781 l 290 841 l 279 841 l 279 836 l 277 836 l 260 841 l 222 836 m 684 708 l 684 703 l 689 703 l 684 708 m 724 705 l 724 700 l 727 700 q 841 678 826 692 l 833 670 l 746 681 l 743 678 l 665 689 l 662 686 q 562 692 634 692 l 559 692 l 553 686 q 627 670 619 675 l 635 673 l 800 637 l 806 643 q 814 632 810 643 l 817 629 l 827 629 l 841 640 l 846 640 l 846 624 l 852 624 l 892 689 l 892 694 l 852 703 l 822 703 l 819 705 l 817 703 l 760 708 l 749 705 l 732 708 l 724 705 m 863 621 q 876 610 875 616 l 871 602 l 857 605 q 846 581 852 605 q 814 521 837 581 l 762 399 l 673 157 l 673 149 l 678 149 q 784 350 720 245 q 884 564 872 504 q 852 583 855 572 l 860 586 q 890 575 880 575 q 917 686 903 610 l 911 692 q 863 621 900 692 m 901 578 l 903 570 l 911 570 q 977 654 922 576 l 979 670 q 936 689 964 684 q 922 654 922 689 l 901 578 m 762 629 l 762 624 l 789 616 l 792 618 l 792 621 q 762 629 777 629 m 315 624 l 315 618 q 355 562 332 581 l 355 567 q 315 624 325 618 m 806 616 l 806 605 l 811 605 l 817 610 l 817 616 l 806 616 m 391 613 q 410 581 391 597 l 412 581 l 412 583 l 396 613 l 391 613 m 258 608 l 263 608 l 263 605 l 258 597 l 258 575 q 285 502 258 559 l 285 499 l 282 499 q 271 515 271 499 q 247 570 262 515 l 247 589 q 258 608 247 604 m 798 589 l 803 589 l 803 594 l 798 589 m 814 589 q 773 494 780 536 l 773 491 l 776 491 q 819 586 809 552 l 817 589 l 814 589 m 779 570 l 768 548 l 765 537 l 765 534 l 770 534 l 781 567 l 781 570 l 779 570 m 887 537 l 890 537 l 906 556 l 901 562 l 898 562 q 887 537 891 562 m 358 559 l 355 548 l 358 545 l 363 545 l 363 553 l 358 559 m 355 529 l 355 524 l 358 524 l 358 529 l 355 529 m 760 529 l 746 494 l 751 494 l 765 526 l 765 529 l 760 529 m 429 521 l 434 510 l 437 510 l 437 513 l 434 526 l 429 521 m 374 515 l 374 510 q 415 448 410 448 l 429 429 q 434 420 434 429 l 437 418 l 442 418 q 377 515 442 441 l 374 515 m 439 510 l 439 505 l 442 505 l 442 510 l 439 510 m 792 507 l 792 502 l 798 507 l 792 507 m 282 496 l 290 496 q 315 458 294 496 l 345 420 l 345 415 l 339 415 q 282 491 307 448 l 282 496 m 448 491 l 448 486 l 453 480 l 456 480 l 456 483 l 448 491 m 741 377 q 787 488 748 378 q 741 377 770 488 m 754 483 q 697 369 737 456 l 697 366 l 700 366 q 760 480 760 456 l 757 483 l 754 483 m 458 464 l 458 458 l 464 458 l 458 464 m 469 453 l 469 445 l 472 445 l 472 453 l 469 453 m 439 407 l 439 404 l 445 404 l 445 407 l 439 407 m 656 282 q 678 228 678 261 q 730 372 688 228 l 732 396 q 656 288 727 396 l 656 282 m 477 374 l 483 369 l 483 374 l 477 374 m 524 374 q 608 247 524 360 l 624 269 l 624 277 q 543 355 619 288 l 529 374 l 524 374 m 483 366 l 488 361 l 488 366 l 483 366 m 627 225 l 627 222 q 659 168 627 210 q 673 212 673 195 q 643 252 673 224 l 640 252 q 627 225 633 252 m 613 239 l 613 233 l 616 233 l 621 239 l 621 241 l 613 239 m 659 125 l 659 114 l 662 114 l 667 119 l 667 125 l 659 125 z "},"H":{"ha":1003,"x_min":186,"x_max":816,"o":"m 729 1096 q 737 1080 734 1096 l 734 1058 l 737 1055 l 740 1055 q 751 1074 747 1074 l 753 1074 l 759 1069 l 694 675 l 710 670 q 740 779 723 670 q 781 982 767 888 q 797 1050 790 1050 l 800 1050 l 805 1044 q 751 670 805 918 l 764 667 l 810 667 l 816 662 l 800 646 l 778 646 l 753 648 q 732 581 740 648 q 661 277 724 574 q 602 57 633 113 l 593 57 l 604 212 l 604 220 l 593 198 l 591 198 l 588 201 l 588 203 q 612 502 596 436 l 640 632 l 634 643 l 623 640 l 564 646 l 558 646 l 558 643 l 414 651 l 341 648 l 338 646 l 338 564 l 347 290 l 344 269 l 347 266 l 344 252 l 344 198 q 325 106 341 106 q 306 260 307 106 l 306 312 l 309 320 l 306 334 l 306 450 l 309 453 l 306 456 l 306 507 l 303 643 l 290 648 q 273 621 275 648 l 273 453 l 276 442 l 273 439 l 273 437 l 276 109 l 276 35 l 279 11 l 271 0 q 241 163 262 0 q 222 388 230 220 l 227 651 l 230 654 l 186 662 l 186 667 l 195 675 l 216 675 l 219 673 l 230 675 l 233 703 l 197 711 l 195 713 l 195 716 l 200 722 l 227 722 q 238 784 233 722 l 235 787 l 235 789 l 241 817 l 238 833 l 243 857 l 243 882 l 246 892 l 243 895 l 249 955 l 246 963 l 249 974 l 249 993 l 257 993 l 260 979 l 260 968 l 243 722 l 265 716 q 271 724 271 716 l 281 1039 q 290 1050 286 1050 l 298 1042 l 298 1015 l 306 941 l 303 911 l 309 895 l 309 817 l 311 800 l 309 798 l 309 795 l 311 784 l 306 770 q 314 741 314 770 l 314 732 l 311 719 l 319 713 l 322 713 l 322 770 l 325 781 l 322 800 l 322 895 l 328 1042 l 330 1044 l 336 1044 l 341 1039 l 341 1023 l 344 1006 l 341 996 l 344 993 l 341 979 l 341 968 l 344 958 l 341 939 l 341 852 l 344 836 l 341 822 l 341 811 l 344 787 l 341 760 l 341 716 l 347 711 l 360 711 l 379 708 l 387 711 l 488 708 l 645 708 q 659 773 652 708 l 675 871 q 724 1093 713 1074 l 726 1096 l 729 1096 m 718 1050 l 661 727 l 659 703 q 699 871 665 703 q 726 1023 726 972 l 726 1044 l 721 1050 l 718 1050 m 290 947 l 287 933 l 290 922 l 284 884 l 287 868 q 279 716 279 840 l 281 716 l 300 713 l 303 722 l 300 806 l 303 817 q 295 947 298 839 l 290 947 m 772 838 l 772 833 l 775 833 l 775 838 l 772 838 m 764 803 l 764 784 l 767 784 l 767 803 l 764 803 m 759 781 l 759 776 l 764 781 l 759 781 m 759 770 l 759 762 l 762 762 l 762 770 l 759 770 m 753 749 l 751 735 l 756 735 l 756 749 l 753 749 m 748 719 l 748 705 l 751 705 l 751 719 l 748 719 m 238 684 l 246 673 l 262 673 l 268 678 l 268 700 l 252 705 q 238 684 238 701 m 276 694 l 276 678 l 281 673 l 303 673 l 303 694 l 298 700 l 281 700 l 276 694 m 477 700 l 477 694 l 490 692 l 498 694 q 642 678 498 689 l 648 694 l 621 700 l 618 697 l 615 697 l 602 700 l 574 697 l 547 700 l 520 697 l 501 700 l 498 697 l 496 697 l 485 700 l 477 700 m 317 697 l 311 675 l 314 673 l 322 673 l 322 692 l 317 697 m 338 692 q 349 673 338 673 l 360 670 l 615 667 l 615 673 l 596 673 l 444 689 l 436 686 l 349 697 l 338 692 m 621 673 l 621 670 l 626 670 l 626 673 l 621 673 m 311 624 l 317 586 l 314 553 l 314 336 l 317 279 l 314 247 l 317 239 l 314 228 l 317 168 l 322 168 l 322 174 q 328 193 323 193 l 325 206 l 325 635 l 322 648 l 319 648 q 311 624 314 648 m 238 635 l 233 529 l 235 507 l 233 467 l 235 453 l 230 429 l 233 420 l 230 418 l 233 399 l 233 350 q 241 258 233 290 l 238 247 l 246 209 l 243 206 l 243 203 q 268 68 261 68 l 268 71 l 265 618 l 268 640 l 265 643 l 262 643 q 238 635 238 641 m 669 637 l 637 461 l 637 458 l 642 453 l 667 578 l 675 624 l 675 637 l 669 637 m 686 635 l 634 345 l 637 328 q 667 450 642 328 l 710 629 l 707 637 l 699 637 l 686 635 m 623 393 l 610 288 l 610 269 l 615 263 q 621 353 621 298 l 626 372 l 626 393 l 623 393 m 667 385 l 667 377 l 669 377 l 669 385 l 667 385 m 659 350 l 653 326 l 653 320 l 659 320 l 659 331 l 661 347 l 661 350 l 659 350 m 631 320 l 631 315 l 637 315 l 637 326 l 631 320 m 645 296 l 637 258 l 637 247 l 642 247 l 642 255 l 648 285 l 648 296 l 645 296 m 610 182 l 612 179 l 612 176 l 604 98 l 607 98 q 629 203 618 98 q 612 182 612 203 l 610 182 z "},"I":{"ha":386,"x_min":80,"x_max":305,"o":"m 290 1014 q 305 937 298 1014 l 302 922 q 281 728 302 850 l 284 724 q 210 163 241 503 q 187 66 193 66 q 174 96 178 66 l 239 642 q 244 676 239 669 l 241 684 l 248 745 l 241 745 l 195 477 l 198 475 l 180 368 l 183 365 l 183 361 l 165 227 l 168 224 q 119 -56 168 146 l 117 -59 l 107 -59 l 107 18 l 117 18 l 117 -1 l 119 -1 q 141 79 125 -1 l 132 102 l 132 123 l 134 142 l 132 145 l 134 161 l 134 295 l 132 310 q 104 139 124 310 l 92 75 l 86 75 l 83 79 l 80 79 q 153 694 111 457 l 150 706 q 174 907 162 739 q 183 1005 180 907 l 187 1008 l 198 1008 l 198 1005 q 174 755 198 922 l 178 752 l 168 657 l 165 657 l 168 648 l 159 569 l 165 569 l 217 798 q 251 949 241 874 q 269 971 269 949 q 284 1011 275 977 l 287 1014 l 290 1014 m 278 968 l 266 920 l 272 901 l 272 864 l 266 840 l 266 831 q 284 905 271 831 l 281 907 l 284 929 l 284 968 l 278 968 m 266 822 l 263 806 l 266 804 l 269 804 l 272 806 l 272 816 l 266 822 m 229 770 l 229 764 l 235 764 l 235 770 l 229 770 m 227 755 l 227 749 l 229 749 l 229 755 l 227 755 m 220 730 l 220 724 l 227 724 l 227 736 l 220 730 m 217 712 l 217 691 l 227 701 l 223 712 l 217 712 m 205 645 l 205 639 l 208 639 l 208 645 l 205 645 m 205 633 l 205 621 l 210 621 l 210 633 l 205 633 m 146 395 l 150 392 l 146 377 l 146 355 l 153 349 q 180 572 180 538 q 187 587 187 572 l 190 587 l 187 590 l 187 596 l 193 621 q 153 438 178 621 l 146 395 m 198 600 l 198 587 l 205 587 l 205 606 l 198 600 m 146 602 l 146 593 l 150 593 l 150 602 l 146 602 m 144 572 l 117 355 l 113 353 l 113 349 l 117 347 l 113 331 l 113 307 l 107 298 l 107 283 q 150 566 125 283 l 150 569 l 146 572 l 144 572 m 195 569 l 193 553 l 193 541 l 198 541 l 198 569 l 195 569 m 187 520 l 187 505 l 193 505 l 193 514 l 187 520 m 180 475 l 180 463 l 187 463 l 187 475 l 180 475 m 174 453 l 174 447 l 180 441 l 183 453 l 174 453 m 162 347 l 162 340 l 168 347 l 162 347 m 146 337 l 144 322 l 144 319 l 146 319 l 153 325 l 153 331 l 146 337 m 146 310 l 146 295 l 150 295 l 150 310 l 146 310 z "},"J":{"ha":694,"x_min":85,"x_max":609,"o":"m 601 1020 l 604 1020 l 609 1015 q 574 781 598 979 l 566 659 l 571 654 l 571 648 l 568 618 l 571 583 l 568 559 l 571 543 l 571 537 l 568 537 l 571 524 l 571 458 l 568 442 l 571 439 l 571 437 l 566 369 l 568 347 l 566 328 l 568 312 q 563 279 567 279 l 566 266 l 566 201 l 568 155 l 566 155 l 568 152 l 568 103 q 579 81 579 93 l 574 60 q 582 22 574 33 l 582 16 l 574 8 l 568 14 l 568 27 l 560 30 q 544 5 550 6 l 538 5 q 517 65 529 5 l 514 65 q 509 35 509 65 q 495 8 501 8 l 492 8 l 484 16 q 500 54 498 16 l 492 57 q 476 49 476 54 l 484 33 l 484 22 l 479 22 q 468 46 475 22 l 457 54 l 454 52 l 452 52 l 441 54 q 389 0 433 0 q 251 35 344 0 q 167 87 216 35 q 126 174 146 110 q 85 255 90 222 q 118 263 91 263 l 121 266 l 121 298 q 132 339 121 339 l 134 336 l 129 304 l 132 301 l 134 301 q 145 320 134 309 l 148 331 l 148 369 l 153 374 l 159 350 l 156 320 l 159 282 l 159 277 l 167 266 l 164 241 q 218 146 185 174 q 237 130 218 141 q 324 95 283 95 q 449 122 403 95 l 449 125 l 446 195 l 446 201 l 444 212 l 446 222 l 446 263 l 452 279 l 449 290 l 452 293 l 452 296 l 449 298 l 449 301 l 452 320 l 449 336 l 468 608 l 465 651 l 465 681 l 468 684 l 465 686 l 465 689 l 468 705 l 465 708 l 465 711 l 468 719 l 465 735 l 465 741 l 468 741 l 465 773 l 465 789 l 463 892 l 468 917 l 465 939 l 468 963 l 473 963 l 476 936 l 476 922 l 473 906 q 484 738 479 888 l 487 727 l 490 727 l 492 735 l 495 854 l 495 860 l 492 911 l 495 922 l 500 922 q 522 911 500 913 l 519 901 l 525 770 l 522 768 l 522 765 l 525 762 l 525 760 l 522 757 l 522 754 l 525 738 l 522 716 l 525 673 l 522 654 l 525 651 l 525 648 l 522 635 l 525 594 l 525 589 l 522 586 l 525 583 l 522 564 l 522 540 l 525 515 l 522 502 l 525 499 l 530 499 l 530 505 l 533 532 l 530 545 q 555 741 538 563 l 555 768 l 552 806 l 555 814 q 544 873 549 820 l 547 876 l 549 876 q 563 811 555 869 q 590 979 571 811 l 595 1006 l 598 1006 l 595 1009 l 595 1015 l 601 1020 m 509 795 l 509 787 l 511 787 l 506 724 l 509 711 l 503 705 l 509 689 l 509 659 l 506 640 l 509 616 l 509 521 l 511 521 l 514 524 l 517 524 l 514 543 l 514 578 l 517 602 l 514 618 l 517 629 l 514 654 l 514 700 l 511 711 l 517 730 l 514 732 l 514 735 l 517 754 l 514 768 l 517 768 l 514 770 l 514 795 l 509 795 m 492 659 l 492 648 l 495 640 l 492 627 l 492 602 l 498 602 l 498 665 l 492 659 m 471 656 l 471 651 l 476 656 l 471 656 m 555 635 l 549 578 l 544 572 l 544 570 l 530 363 l 533 301 q 549 241 539 301 l 552 241 l 560 326 l 557 345 l 560 515 l 560 635 l 555 635 m 476 515 l 476 458 l 473 429 l 476 407 l 473 407 l 476 404 l 476 401 l 473 393 l 476 369 l 476 361 l 473 347 l 476 331 l 476 290 l 473 288 l 476 285 l 476 250 l 473 236 l 479 152 l 481 149 l 484 149 q 509 212 498 149 q 500 315 509 256 l 509 323 l 509 326 q 492 494 509 382 l 495 507 l 490 513 l 490 524 l 487 564 q 476 515 481 564 m 457 355 l 457 353 l 463 331 l 454 320 l 460 304 l 460 279 l 454 274 l 457 255 l 457 244 l 454 236 l 457 222 l 457 214 l 454 182 l 460 130 l 465 136 l 465 174 l 463 182 l 465 195 l 465 339 q 457 355 465 353 m 142 298 l 142 293 l 148 288 l 151 290 l 151 293 l 145 298 l 142 298 m 132 296 l 129 282 l 129 263 l 140 263 q 132 296 137 296 m 528 274 l 528 250 l 530 236 l 528 220 l 528 201 l 530 201 q 538 260 538 233 l 536 260 q 530 274 530 260 l 528 274 m 96 250 q 118 206 96 233 l 121 206 l 121 239 l 118 252 l 102 252 l 99 250 l 96 250 m 129 244 l 132 217 l 132 195 q 175 146 146 164 l 178 149 l 178 152 l 159 184 l 159 209 q 140 250 147 250 l 137 250 l 129 244 m 541 209 l 538 190 q 552 141 545 141 l 552 157 l 547 209 l 541 209 m 528 198 l 528 190 l 530 190 l 530 198 l 528 198 m 528 184 l 525 171 l 525 95 q 538 19 525 51 l 544 19 q 560 73 560 41 l 557 76 l 557 79 l 560 87 q 530 184 530 149 l 528 184 m 148 152 l 148 144 q 183 81 148 132 q 235 49 205 60 l 245 49 q 156 149 186 130 l 153 152 l 148 152 m 495 149 q 487 130 487 139 l 492 125 l 495 125 l 500 146 l 498 149 l 495 149 m 471 68 l 473 65 l 481 65 q 503 103 503 65 l 509 119 l 506 122 l 503 122 l 481 81 q 471 68 471 79 m 463 114 l 463 100 l 468 95 q 481 117 481 102 l 479 119 l 468 119 l 463 114 m 213 109 q 319 35 256 35 q 397 52 361 35 q 335 65 397 58 q 311 71 335 71 q 227 106 304 77 l 224 114 l 221 114 l 213 109 m 365 87 l 354 87 l 354 84 q 416 68 354 76 q 422 76 416 76 l 433 71 l 454 79 l 454 100 l 446 109 q 365 87 403 92 m 346 87 l 346 84 l 351 84 l 351 87 l 346 87 m 330 27 l 327 27 l 327 16 l 340 16 l 346 11 l 349 14 l 395 11 l 406 11 q 427 49 427 20 l 419 49 q 330 27 395 36 z "},"K":{"ha":926,"x_min":56,"x_max":870,"o":"m 233 1147 l 238 1147 l 238 1131 l 241 1118 l 238 1109 l 241 1069 l 238 1009 q 249 979 249 991 l 254 979 l 249 1034 l 249 1036 l 254 1036 l 300 724 l 306 724 q 317 738 311 726 l 281 1055 l 281 1077 l 287 1082 l 292 1077 l 292 1020 l 295 1006 l 300 1012 l 300 1077 l 306 1082 l 311 1066 l 309 1050 l 311 1031 l 309 1012 l 311 1009 l 311 1006 l 309 996 l 314 966 l 311 944 q 341 751 330 751 q 460 879 397 782 q 607 979 550 979 l 615 979 l 615 974 l 607 966 l 596 971 q 469 876 550 962 q 425 822 435 822 l 425 814 l 428 814 q 661 982 554 899 l 667 982 l 669 979 l 669 977 l 626 930 l 626 928 q 653 947 635 928 q 786 1044 754 1026 l 789 1042 l 789 1036 q 686 936 762 1004 l 686 933 q 705 941 696 941 l 707 939 l 707 933 q 466 708 595 840 l 466 705 q 588 507 466 676 q 810 290 655 455 q 865 228 810 283 l 870 217 l 870 214 l 865 209 q 832 247 859 220 l 827 247 q 821 233 827 233 q 772 269 792 243 l 770 271 l 767 271 q 759 258 765 258 l 756 258 q 677 339 677 327 l 577 445 q 553 475 553 467 l 550 475 l 545 469 l 545 467 q 726 266 595 396 q 751 244 733 266 l 743 236 q 555 429 628 332 q 409 591 514 484 q 366 610 382 608 l 360 605 l 409 274 l 406 271 l 409 258 l 409 228 l 412 212 l 409 203 l 404 203 q 368 315 390 203 l 363 309 l 363 247 l 366 220 l 360 160 l 363 146 l 360 127 l 363 109 l 360 109 q 379 65 360 82 l 379 62 l 374 57 l 371 57 q 357 81 357 65 q 347 57 353 81 l 338 57 l 336 60 l 333 60 l 330 57 l 330 19 q 344 8 336 8 l 344 5 l 338 0 l 333 0 q 300 49 312 9 q 268 483 288 49 l 265 486 l 265 488 l 268 491 l 268 494 l 260 532 l 262 534 l 262 537 l 257 559 l 260 559 l 252 578 l 257 597 l 252 610 l 254 618 l 249 640 q 189 600 233 640 l 189 594 l 208 597 l 208 594 q 181 583 208 589 l 176 594 l 170 594 q 56 532 72 532 l 56 540 q 92 556 56 547 q 200 629 178 606 q 246 681 246 669 q 192 1020 224 846 q 173 1107 183 1088 l 173 1115 l 178 1120 l 195 1074 l 192 1074 l 200 1053 l 197 1044 l 227 941 l 230 941 l 230 949 l 208 1080 l 211 1082 l 214 1082 q 224 1047 222 1082 l 230 1047 l 230 1134 l 233 1147 m 227 939 l 227 928 l 230 928 l 230 939 l 227 939 m 642 914 l 642 911 q 659 925 654 916 l 659 928 l 656 928 l 642 914 m 615 920 l 615 917 l 621 922 l 621 925 l 615 920 m 252 920 l 249 909 q 273 781 260 835 l 276 781 l 276 784 q 254 920 276 824 l 252 920 m 379 746 l 382 746 q 580 898 522 842 l 596 917 l 593 920 l 401 781 l 379 746 m 629 906 l 629 901 l 637 909 l 629 906 m 509 817 l 509 814 q 593 882 530 821 l 593 887 q 509 817 563 869 m 414 681 l 414 678 l 422 678 l 623 873 l 623 876 l 621 876 q 444 708 527 809 l 414 681 m 349 703 l 349 700 l 352 700 q 460 787 435 759 l 455 787 q 349 703 383 741 m 466 768 l 471 768 l 479 776 l 479 779 q 466 768 467 773 m 341 727 l 341 724 l 347 724 q 374 762 370 743 q 341 727 341 743 m 390 700 q 404 686 392 692 l 409 686 q 466 751 455 733 l 460 751 l 390 700 m 303 708 l 303 694 q 319 711 319 694 l 319 719 l 317 719 l 303 708 m 450 694 l 450 684 l 455 684 l 455 689 l 450 694 m 314 689 l 314 681 l 317 681 l 322 686 l 322 689 l 314 689 m 352 673 l 352 665 l 371 646 l 376 651 l 376 656 q 363 678 363 670 l 357 678 l 352 673 m 422 665 l 450 629 l 452 629 l 436 673 l 428 673 q 422 665 422 673 m 447 670 q 485 608 462 631 q 534 548 504 572 l 534 553 q 450 670 494 620 l 447 670 m 317 648 l 317 640 l 322 635 l 325 635 l 325 656 l 317 648 m 230 646 l 235 646 l 241 651 l 241 654 l 230 646 m 341 648 l 341 635 l 347 629 l 349 632 l 349 635 q 341 648 346 648 m 390 629 l 390 624 l 398 624 l 398 635 l 395 635 l 390 629 m 401 624 l 401 616 l 406 616 l 404 624 l 401 624 m 439 624 l 444 618 l 444 624 l 439 624 m 317 621 l 317 618 q 325 597 317 599 l 330 605 q 317 621 330 621 m 287 608 l 300 529 l 303 529 l 303 548 l 295 610 l 292 610 l 290 608 l 287 608 m 452 608 l 452 602 l 460 602 l 460 608 l 452 608 m 347 600 q 385 279 347 494 l 395 236 l 401 241 l 401 247 q 352 600 395 322 l 347 600 m 471 597 l 471 591 l 474 591 l 474 597 l 471 597 m 325 583 l 325 581 l 330 537 l 336 537 q 328 583 336 583 l 325 583 m 271 537 l 271 518 l 276 524 l 276 537 l 271 537 m 507 532 l 507 529 l 517 518 l 517 521 l 507 532 m 517 515 l 528 505 l 531 505 l 520 515 l 517 515 m 276 507 l 273 494 l 284 382 l 281 372 l 287 347 l 284 336 l 290 290 l 287 266 l 292 236 l 290 222 q 298 149 292 165 l 295 130 l 300 114 l 298 114 q 317 41 308 41 l 317 43 l 311 141 l 314 144 l 314 146 q 292 407 309 159 l 279 507 l 276 507 m 333 472 l 333 464 l 336 464 l 336 472 l 333 472 m 631 456 l 631 453 q 669 412 631 446 l 672 412 l 672 418 l 631 456 m 602 450 l 602 445 l 604 445 l 604 450 l 602 450 m 615 431 l 615 429 q 659 385 621 417 l 659 388 q 618 431 659 395 l 615 431 m 677 407 l 683 401 l 683 407 l 677 407 m 330 396 l 336 380 l 333 377 l 344 260 l 349 260 l 347 282 l 349 296 l 336 401 l 330 396 m 664 382 l 664 372 l 669 377 l 664 382 m 726 328 l 726 326 q 805 252 749 298 l 810 258 l 810 260 l 732 328 l 726 328 m 344 233 l 344 228 l 347 228 l 347 233 l 344 233 m 338 163 l 338 155 l 344 155 l 344 163 l 338 163 m 338 111 l 336 103 q 344 79 338 79 l 347 92 l 347 98 l 344 111 l 338 111 z "},"L":{"ha":772,"x_min":143,"x_max":629,"o":"m 273 1044 q 290 890 280 1044 l 287 887 l 287 884 l 292 854 l 290 852 q 306 524 300 749 l 311 505 l 314 505 l 317 532 l 317 678 l 314 830 l 317 841 q 309 955 309 854 l 311 958 l 314 958 q 352 678 325 958 q 363 540 359 625 q 330 168 363 291 l 333 168 l 490 179 l 498 176 l 561 184 l 569 182 l 577 190 q 602 165 577 185 l 602 160 l 588 146 l 588 144 l 629 98 l 629 90 q 593 81 629 83 l 585 84 l 577 81 l 536 87 l 526 84 l 482 90 l 479 87 l 477 87 l 452 90 l 450 90 l 436 87 q 401 95 401 90 l 387 92 l 374 92 l 344 95 l 333 92 l 314 95 q 306 19 306 76 l 309 11 l 317 11 l 333 27 l 336 27 l 336 19 q 319 0 324 0 l 309 0 l 295 19 l 287 16 q 279 57 279 29 l 279 79 q 257 90 279 85 q 252 100 257 100 l 241 100 q 230 52 235 100 l 222 52 l 219 60 l 222 95 l 219 106 l 200 106 q 143 125 143 117 l 143 127 l 149 133 l 205 133 q 222 144 222 133 q 238 876 222 354 l 241 887 l 235 914 l 238 960 l 246 966 l 252 949 l 254 949 l 268 998 l 265 1034 l 273 1044 m 265 958 q 254 822 257 897 l 262 738 l 260 730 l 262 692 l 262 667 q 268 648 263 648 l 265 629 l 265 627 l 268 602 l 265 600 q 273 510 268 510 l 271 491 l 276 431 l 273 418 l 279 366 l 276 347 l 279 345 l 279 342 l 276 339 l 281 187 q 290 165 283 165 l 298 165 l 298 228 l 295 363 l 298 372 l 295 396 q 271 949 295 534 l 268 958 l 265 958 m 325 817 l 322 803 l 322 787 l 328 746 l 325 727 l 328 716 l 325 705 l 328 703 l 328 700 l 325 697 l 328 678 l 328 659 l 325 616 l 328 608 l 325 589 l 325 583 l 328 583 l 325 570 l 325 556 l 328 543 l 322 480 l 325 461 l 319 429 l 314 212 l 317 182 l 314 171 l 317 168 l 319 168 q 352 469 352 271 l 352 491 l 355 494 l 352 496 l 355 518 q 330 817 355 592 l 325 817 m 246 751 l 249 724 l 252 724 l 254 749 l 252 751 l 246 751 m 249 708 l 246 694 l 246 681 l 243 586 l 246 545 l 243 426 l 246 423 l 243 410 l 243 328 l 246 315 l 243 298 l 243 244 l 246 233 q 241 163 241 215 l 243 160 l 249 160 l 273 168 l 273 171 l 254 708 l 249 708 m 311 496 l 309 480 l 311 469 l 314 469 l 314 496 l 311 496 m 230 296 l 230 288 l 233 288 l 233 296 l 230 296 m 233 260 l 233 255 l 235 255 l 235 260 l 233 260 m 230 247 l 230 228 l 235 228 l 235 247 l 230 247 m 414 157 l 414 152 l 428 152 l 493 157 l 496 157 l 501 163 l 496 163 l 496 165 l 414 157 m 536 157 l 542 152 l 545 155 l 545 157 l 536 157 m 241 144 l 241 138 l 243 136 l 243 133 l 262 136 l 273 136 l 273 141 l 254 144 l 241 144 m 287 138 l 290 136 l 292 136 l 295 138 l 295 144 l 292 144 l 287 138 m 542 133 l 539 136 l 520 130 l 488 133 l 404 119 l 395 122 q 355 109 395 119 l 355 103 l 363 100 l 371 103 l 447 100 l 458 103 q 547 98 490 98 l 558 98 l 574 100 l 591 95 l 607 95 l 612 100 q 580 133 587 132 l 577 125 l 574 125 l 569 130 l 572 141 l 569 144 l 566 144 q 561 136 561 144 l 558 133 l 542 133 m 311 125 l 311 117 l 317 111 l 330 111 l 366 122 l 385 122 l 390 127 l 390 130 l 371 133 l 311 125 m 284 119 l 284 114 l 290 109 l 292 109 l 298 114 l 298 122 l 292 127 l 284 119 m 205 119 l 219 114 l 219 117 l 222 119 l 222 122 l 219 125 l 211 125 l 205 119 m 238 119 l 238 117 q 260 111 238 111 l 265 106 l 268 106 l 276 114 l 276 119 l 271 125 l 243 125 l 238 119 m 344 109 l 344 103 l 352 103 l 347 109 l 344 109 m 290 92 l 287 65 l 287 54 l 292 49 l 295 57 l 292 60 l 292 62 l 298 79 l 295 87 l 298 90 l 295 92 l 290 92 z "},"M":{"ha":1157,"x_min":163,"x_max":994,"o":"m 951 1145 l 961 1085 l 958 1081 l 958 1078 l 961 1065 l 958 1042 l 961 1029 l 958 1013 l 964 978 l 958 923 l 961 913 l 958 890 l 958 843 l 990 413 l 994 367 l 990 322 l 990 218 l 987 151 l 990 141 q 968 -43 977 2 l 961 -43 q 948 64 948 -43 l 948 90 l 945 106 l 942 106 l 939 83 l 939 -279 l 936 -298 l 939 -301 l 939 -305 l 932 -340 l 923 -340 l 929 -224 l 929 70 l 923 106 l 923 176 l 916 184 l 916 179 l 910 -4 l 913 -7 l 913 -12 l 906 -50 l 910 -53 l 900 -127 l 903 -136 q 893 -157 900 -157 l 887 -150 l 887 -76 q 874 -63 874 -76 l 871 -63 l 874 2 l 874 197 q 838 732 874 370 l 835 732 l 751 616 l 645 496 l 645 494 q 732 357 730 382 l 726 351 l 722 351 l 684 387 l 681 387 l 681 377 l 735 286 q 761 245 761 260 l 761 241 l 755 235 l 606 435 l 603 435 l 603 429 l 606 426 l 606 422 l 603 418 l 600 418 l 564 448 l 562 448 q 667 286 595 385 l 667 283 l 661 277 l 658 277 q 544 439 618 317 q 476 545 509 503 q 399 645 423 604 q 389 665 392 645 l 376 665 l 376 661 q 519 448 432 557 l 519 441 q 538 422 528 441 l 538 413 l 532 406 q 409 526 450 476 l 409 532 l 418 532 l 463 484 l 483 461 l 486 461 l 486 465 l 435 542 l 366 655 l 363 655 l 361 652 l 361 635 q 409 548 366 599 l 409 535 l 402 535 q 387 561 396 535 q 366 583 378 561 l 361 583 l 361 574 l 363 545 l 361 542 l 361 538 l 363 509 l 361 481 l 363 477 q 328 99 351 239 l 332 -33 q 309 -159 332 -159 l 302 -153 l 302 -123 l 299 -123 l 279 -144 l 277 -144 q 238 128 244 -144 q 224 357 231 357 l 228 374 l 224 406 l 221 406 l 218 383 l 218 345 l 221 332 l 218 328 l 221 306 l 221 57 l 215 51 l 212 51 q 205 60 205 51 l 209 64 l 205 80 l 205 93 l 209 122 l 205 132 l 209 135 l 205 158 l 205 199 l 209 202 l 205 205 l 205 264 l 199 429 l 202 431 l 202 435 q 196 522 196 467 l 196 532 l 199 529 l 202 529 l 205 532 l 205 538 q 196 545 205 545 l 196 574 q 205 581 205 574 q 163 1068 205 779 l 167 1111 l 167 1114 l 173 1120 l 180 1104 l 176 1090 q 205 901 186 1053 l 202 890 l 209 856 l 205 856 q 221 645 221 743 l 221 642 l 228 616 l 224 601 l 231 555 l 228 551 l 228 548 l 234 481 l 231 481 l 238 454 l 234 422 l 241 361 l 241 354 l 238 354 l 241 332 q 251 144 241 216 l 247 141 l 247 138 l 251 125 l 247 112 l 251 102 l 247 102 l 254 47 l 251 44 l 251 41 l 257 22 l 254 -1 q 270 -127 260 -84 l 279 -127 q 302 -17 302 -106 l 302 54 l 299 83 l 302 86 l 299 119 l 299 228 l 296 277 l 299 299 q 244 784 286 468 q 218 949 244 841 l 228 965 q 209 1023 209 1006 l 209 1026 l 215 1034 q 228 1013 220 1034 l 231 1013 q 247 1036 231 1031 l 202 1104 l 202 1107 l 209 1114 l 279 1013 l 283 1017 l 283 1021 l 279 1114 l 279 1126 l 286 1133 l 296 1133 l 338 916 q 383 830 338 907 q 448 713 414 782 l 448 703 l 444 703 q 402 778 423 718 q 363 846 394 778 l 361 848 l 348 869 l 340 869 l 340 865 q 467 652 359 797 l 470 652 l 470 655 l 451 687 l 451 700 l 454 700 q 470 677 462 700 l 473 677 l 473 681 q 451 758 451 726 l 451 764 l 454 764 q 483 716 466 755 q 519 665 496 705 l 522 661 l 526 661 l 532 671 q 473 768 505 698 q 444 833 444 810 l 448 833 q 483 768 461 822 q 554 635 540 678 q 625 526 613 537 q 825 851 746 705 l 825 871 l 822 991 l 832 998 q 851 913 840 998 l 855 913 q 864 937 864 926 l 864 975 l 861 1007 l 871 1013 q 880 998 878 1013 l 887 1004 l 887 1007 l 884 1085 l 887 1098 l 893 1098 l 900 1090 l 903 998 l 903 994 l 906 994 l 929 1013 l 932 1013 l 932 1007 q 906 968 906 979 l 948 1004 l 948 1055 l 945 1143 l 948 1145 l 951 1145 m 290 1075 l 290 1072 q 296 1055 290 1055 l 292 1034 l 292 1021 l 309 955 l 315 955 l 315 971 l 296 1081 l 290 1075 m 251 1029 l 251 1021 q 264 998 251 1009 l 277 965 l 283 965 l 283 968 q 257 1026 283 987 l 257 1029 l 251 1029 m 903 923 l 903 920 l 910 920 q 932 971 932 961 l 929 971 q 903 923 903 954 m 286 958 l 286 952 l 290 952 l 290 958 l 286 958 m 929 916 q 945 836 932 880 l 948 836 l 948 942 q 929 916 938 939 m 302 939 l 302 920 l 328 878 l 328 884 q 302 939 319 939 m 267 937 l 267 932 l 283 884 l 292 884 q 267 937 292 913 m 244 910 l 264 825 l 270 833 q 244 910 270 883 m 835 907 l 835 897 l 842 903 l 838 907 l 835 907 m 878 901 l 878 878 l 884 878 l 884 901 l 878 901 m 919 887 l 916 878 l 936 513 l 939 513 l 945 519 l 948 703 q 923 887 948 755 l 919 887 m 861 882 l 858 878 l 858 848 l 864 848 l 867 865 l 867 874 l 861 882 m 302 871 l 302 869 q 338 807 319 819 l 338 810 q 306 871 338 826 l 302 871 m 842 843 l 838 825 l 842 823 l 845 823 l 848 825 l 848 843 l 842 843 m 783 739 q 832 812 832 793 l 832 820 l 829 820 q 783 739 784 759 m 884 820 l 884 771 l 890 764 l 893 784 l 890 820 l 884 820 m 283 817 q 299 755 288 755 l 302 755 q 286 817 294 817 l 283 817 m 254 800 l 254 797 q 283 561 270 629 l 286 558 l 290 558 l 290 561 q 267 781 281 781 l 267 797 l 254 800 m 871 784 l 871 778 l 874 778 l 874 784 l 871 784 m 335 774 l 335 768 l 338 768 l 338 774 l 335 774 m 361 771 l 361 768 l 366 762 l 366 771 l 361 771 m 871 771 l 867 762 l 874 716 l 880 716 l 874 771 l 871 771 m 848 736 q 878 439 871 457 l 874 426 l 880 393 l 884 393 l 884 406 l 880 487 l 884 487 l 858 764 q 848 736 850 764 m 309 758 l 309 751 q 345 652 309 703 l 348 648 l 351 648 l 351 671 q 315 758 339 724 l 309 758 m 825 755 l 825 745 l 832 751 l 832 755 l 825 755 m 358 745 q 435 616 358 716 q 451 581 451 593 l 467 587 q 396 697 467 608 q 383 710 396 710 q 366 745 366 735 l 358 745 m 392 723 l 392 713 l 399 720 l 396 723 l 392 723 m 890 716 l 890 710 l 893 710 l 893 716 l 890 716 m 874 694 l 878 674 l 880 674 l 880 694 l 874 694 m 292 690 l 292 684 l 296 684 l 296 690 l 292 690 m 312 671 l 312 609 l 315 591 l 312 578 l 315 561 l 312 515 l 312 490 l 315 441 l 312 422 l 315 400 l 312 390 l 325 197 l 328 197 q 351 526 351 311 l 351 596 q 315 671 328 671 l 312 671 m 476 671 l 476 665 l 486 655 l 486 658 q 476 671 481 671 m 878 655 q 887 642 882 642 l 887 648 l 884 665 q 878 655 878 665 m 742 648 l 742 645 l 745 645 l 751 652 l 751 655 l 748 655 l 742 648 m 299 652 l 299 645 l 302 645 l 302 652 l 299 652 m 486 652 l 493 645 l 493 652 l 486 652 m 503 632 l 503 622 l 509 622 l 509 627 l 503 632 m 722 619 l 722 614 l 729 619 l 729 627 l 722 619 m 884 627 l 884 619 l 880 619 l 884 609 l 890 609 l 887 627 l 884 627 m 955 616 q 948 429 955 487 l 951 426 l 951 422 l 948 418 l 948 416 l 951 393 l 948 354 l 951 296 l 948 286 l 951 267 l 951 231 q 958 174 951 189 l 955 161 l 958 135 l 955 119 l 958 60 l 958 38 l 961 24 l 958 15 l 961 12 l 968 12 q 981 309 981 138 l 981 357 q 961 627 981 509 q 955 616 955 627 m 509 606 l 509 596 l 515 596 l 515 601 l 509 606 m 544 604 l 544 596 l 548 596 l 548 604 l 544 604 m 551 593 l 551 591 q 580 545 551 581 l 600 513 l 606 513 l 606 515 q 551 593 560 593 m 884 587 l 884 574 l 890 551 l 887 532 l 890 484 l 890 458 l 897 458 l 897 494 l 890 587 l 884 587 m 493 570 q 574 465 515 506 l 577 465 l 577 477 q 496 570 570 477 l 493 570 m 286 548 l 283 538 l 286 529 l 290 529 l 292 538 l 290 548 l 286 548 m 554 458 l 554 452 l 562 452 l 562 458 l 554 458 m 651 458 q 696 400 677 400 q 654 458 686 425 l 651 458 m 625 452 l 625 448 q 658 403 646 408 l 658 409 q 629 452 635 451 l 625 452 m 880 380 l 880 370 l 884 370 l 884 380 l 880 380 m 880 341 l 880 335 l 884 335 l 884 341 l 880 341 m 916 293 l 916 277 l 919 277 l 919 293 l 916 293 m 919 267 l 916 235 l 916 222 l 919 222 l 923 238 l 923 267 l 919 267 m 942 132 l 942 115 l 945 115 l 945 132 l 942 132 m 315 -50 l 319 -53 l 319 -56 l 315 -58 l 315 -63 l 319 -66 l 322 -66 l 322 -45 l 319 -50 l 315 -50 m 315 -81 l 315 -94 l 319 -94 l 319 -81 l 315 -81 z "},"N":{"ha":1003,"x_min":173,"x_max":829,"o":"m 629 1142 q 640 1020 634 1122 l 637 1020 l 642 993 l 640 993 l 642 990 l 642 958 l 648 936 l 648 909 l 661 760 l 659 757 l 659 754 l 661 751 l 661 749 l 659 746 l 659 743 l 664 719 l 664 716 l 661 713 l 664 711 l 664 697 l 661 697 l 653 705 l 629 1044 l 631 1047 l 626 1053 l 626 1085 l 623 1139 l 626 1142 l 629 1142 m 656 1123 l 661 1101 l 661 1088 l 659 1044 l 669 947 l 667 936 l 680 800 l 677 798 l 677 795 l 686 741 l 683 724 l 688 703 l 686 684 q 694 635 691 677 l 691 618 l 696 594 l 694 586 l 705 502 l 702 499 l 702 496 l 707 445 l 713 445 l 713 467 q 721 486 721 477 q 715 496 721 496 l 718 513 l 715 610 l 718 610 l 713 627 l 713 656 l 710 694 l 713 697 l 713 700 l 705 814 l 707 817 l 702 895 l 705 906 l 696 1036 l 699 1039 l 702 1039 l 710 1001 l 707 979 l 713 928 l 710 917 l 713 901 l 710 887 l 715 852 l 713 849 l 715 838 l 713 817 l 721 732 l 718 722 l 721 700 l 718 686 l 724 670 l 724 648 l 721 632 l 726 610 l 724 600 q 732 491 726 491 l 729 477 l 729 458 l 734 442 l 732 429 q 778 171 753 252 q 829 52 829 89 l 827 49 l 824 49 q 781 149 811 102 l 778 149 l 775 146 l 778 106 l 778 98 q 770 81 778 83 q 753 138 764 85 l 751 141 l 748 141 l 734 138 q 751 73 741 73 l 748 62 l 753 3 l 745 -3 q 732 73 740 1 q 661 163 710 94 q 656 152 656 163 l 653 152 l 618 214 q 488 445 527 359 q 455 507 466 474 q 385 640 436 534 l 363 678 l 357 678 q 436 182 398 452 l 433 179 l 431 179 q 409 315 421 179 q 341 711 374 543 q 322 741 327 741 l 319 738 l 319 735 q 379 309 319 597 q 425 60 404 233 l 425 46 l 417 38 q 344 404 385 140 l 287 751 l 281 746 q 317 450 306 481 l 314 448 l 382 71 l 379 38 q 395 -33 379 23 l 420 -130 q 436 -160 420 -142 l 436 -163 l 428 -174 q 387 -38 410 -146 l 325 250 l 322 250 l 319 236 l 319 133 q 309 114 319 119 q 227 602 292 151 q 214 751 214 711 l 216 863 q 197 925 216 906 q 173 963 197 936 l 181 971 q 200 944 185 971 q 222 933 212 933 l 224 933 l 224 941 q 214 963 214 953 l 216 966 l 224 966 q 257 906 250 906 l 260 906 l 260 917 q 219 1009 260 926 l 227 1015 q 260 966 232 1014 q 298 930 288 966 q 314 909 314 930 l 309 909 q 268 952 274 952 l 265 952 l 265 949 l 306 873 q 330 825 320 873 l 360 762 l 441 591 q 580 426 477 532 l 626 377 l 629 377 l 585 448 l 545 524 q 526 551 533 524 q 406 754 520 553 q 344 854 388 774 l 344 860 l 349 860 q 406 765 361 850 q 439 713 416 765 q 547 526 492 630 q 629 399 553 526 l 645 374 l 648 374 l 648 382 q 602 808 615 642 l 604 811 q 585 1088 585 965 l 588 1090 l 591 1090 q 612 944 602 1090 l 653 627 l 656 627 l 659 643 l 656 689 l 659 692 l 664 692 l 664 670 l 669 654 l 667 640 l 672 581 l 669 572 l 675 556 l 672 545 q 699 326 680 448 l 702 326 l 705 339 l 702 369 l 705 377 q 650 1099 650 989 l 650 1118 l 656 1123 m 596 979 l 596 974 l 599 974 l 599 979 l 596 979 m 227 922 l 246 890 l 252 890 l 233 928 l 227 922 m 602 909 l 604 901 l 610 901 l 610 903 l 607 917 q 602 909 602 917 m 314 909 l 319 909 q 341 873 324 909 l 338 865 l 336 865 l 314 898 l 314 909 m 607 884 l 604 876 l 629 629 q 675 331 658 331 l 677 331 l 680 355 q 664 496 675 358 l 640 654 l 642 654 q 615 852 634 688 l 612 854 l 615 857 l 615 860 q 607 884 613 884 m 235 873 l 235 871 l 309 393 l 311 393 l 311 404 q 265 836 287 576 l 238 873 l 235 873 m 281 865 l 290 849 l 292 849 l 292 854 q 287 868 287 854 l 284 865 l 281 865 m 292 779 q 309 678 300 706 l 306 675 l 306 673 q 314 654 309 654 l 317 654 l 317 659 l 319 659 q 309 768 314 659 q 303 781 304 768 l 300 784 l 298 784 l 292 779 m 233 768 l 233 760 l 238 765 l 238 768 l 233 768 m 222 741 q 303 163 222 673 l 309 157 l 311 157 l 311 255 q 273 491 311 299 q 252 605 262 525 l 227 730 l 230 732 l 230 735 l 227 749 q 222 741 222 749 m 238 735 l 238 724 l 243 730 l 243 735 l 238 735 m 243 700 l 243 692 l 249 686 l 249 694 l 243 700 m 656 616 l 659 591 l 661 591 l 664 613 l 661 616 l 656 616 m 422 583 l 422 578 l 425 578 l 425 583 l 422 583 m 428 575 l 428 570 l 431 570 l 431 575 l 428 575 m 504 491 l 504 488 l 509 488 l 509 491 l 504 491 m 517 477 l 517 472 q 574 404 526 453 q 602 385 592 385 q 517 477 602 392 m 496 472 l 496 467 q 648 193 546 355 l 696 136 l 699 136 q 680 217 694 217 q 661 250 672 217 q 607 312 634 272 q 498 472 536 410 l 496 472 m 547 415 l 547 410 l 550 410 l 550 415 l 547 415 m 558 404 l 558 401 q 653 266 572 374 l 664 266 q 631 372 656 362 q 623 358 628 358 l 618 358 q 564 404 585 377 l 558 404 m 715 404 l 715 393 q 721 323 715 339 l 718 312 q 732 239 718 279 l 734 239 l 737 241 l 740 241 l 737 250 q 721 404 732 338 l 715 404 m 314 380 l 314 369 l 319 363 l 319 374 l 314 380 m 319 347 l 319 339 l 325 339 l 322 347 l 319 347 m 691 320 l 688 317 l 688 315 l 694 304 l 696 304 l 696 315 l 691 320 m 667 307 q 686 239 674 239 l 686 241 q 675 315 686 282 l 672 315 q 667 307 667 315 m 371 290 l 371 288 l 387 198 l 401 144 l 401 122 l 406 122 l 406 125 q 374 290 406 165 l 371 290 m 691 277 l 696 228 l 702 228 l 702 247 q 694 277 702 277 l 691 277 m 751 236 l 751 228 l 753 228 l 753 236 l 751 236 m 729 225 l 729 222 q 743 176 732 176 l 745 179 l 748 179 q 729 225 740 225 m 710 212 l 713 209 l 715 209 l 715 217 l 710 212 m 710 187 l 710 184 l 713 138 l 705 125 l 724 103 l 729 103 q 713 187 725 187 l 710 187 m 756 176 l 756 174 l 764 163 l 764 165 l 756 176 m 740 163 l 737 160 l 737 157 l 740 155 l 745 155 l 745 157 l 740 163 z "},"O":{"ha":1080,"x_min":168,"x_max":912,"o":"m 351 951 l 415 949 l 444 951 l 446 949 l 467 951 l 562 951 l 573 949 l 585 951 q 699 924 585 939 q 831 880 831 897 l 854 880 l 866 867 l 866 861 l 846 865 l 846 858 l 849 846 l 838 814 q 846 765 843 808 l 849 765 l 869 784 l 878 774 l 878 768 l 875 749 l 878 747 l 878 744 q 840 585 840 610 l 831 538 l 835 538 q 895 690 861 572 l 901 730 l 901 765 q 866 861 901 825 l 869 865 l 872 865 q 907 814 886 865 l 912 759 l 909 756 l 912 740 q 814 460 912 673 q 642 123 814 448 l 596 72 l 593 72 l 587 79 l 590 98 l 585 98 l 585 100 q 544 35 544 68 q 507 20 536 26 q 475 41 507 31 q 435 79 470 61 q 395 128 435 85 q 274 377 317 237 q 205 737 225 538 q 168 858 179 795 l 168 865 l 179 877 l 182 877 l 196 861 q 184 852 196 852 q 211 774 201 774 l 211 789 l 208 821 q 231 846 231 836 q 274 924 231 876 l 271 926 l 196 926 l 188 936 l 196 945 l 256 942 l 279 945 l 283 942 l 351 951 m 309 926 q 251 877 281 926 l 254 873 l 254 871 l 297 873 l 328 873 l 355 883 l 369 880 q 573 920 480 880 l 573 930 l 532 936 l 524 932 l 509 936 l 309 926 m 490 883 l 490 877 l 507 877 l 688 890 l 696 886 l 711 890 l 722 880 l 734 880 l 780 873 l 808 873 l 814 880 q 720 908 814 886 q 676 917 684 911 l 673 914 l 604 930 q 495 883 564 901 l 490 883 m 622 873 l 610 877 l 593 871 l 581 871 l 581 865 l 625 861 l 631 861 l 648 865 l 665 861 l 673 865 l 691 861 l 711 865 l 711 873 l 696 880 l 682 877 l 665 880 l 662 877 l 659 877 l 656 880 l 653 880 q 622 873 642 873 m 789 861 l 789 858 q 800 848 789 854 q 814 858 814 853 q 797 865 797 861 l 789 861 m 455 858 l 460 852 l 507 852 l 536 855 l 536 852 l 544 855 l 544 858 l 484 858 l 467 861 l 455 858 m 745 858 l 745 855 l 754 852 l 757 852 l 757 855 l 748 858 l 745 858 m 239 848 l 239 846 q 260 836 239 838 l 302 852 l 300 855 l 286 852 l 283 855 l 279 855 l 277 852 l 262 855 l 245 855 l 239 848 m 650 821 l 642 824 l 639 821 l 639 818 q 662 808 639 812 l 662 806 l 656 799 l 645 799 l 636 806 l 619 802 l 602 806 l 484 796 l 475 799 l 464 796 l 452 799 l 395 796 l 279 796 l 260 799 l 256 796 l 256 793 q 386 470 328 579 q 495 194 456 356 q 559 153 495 165 l 564 153 q 613 197 588 153 q 685 330 651 241 q 768 631 740 469 q 789 715 789 691 l 789 744 l 780 774 l 774 774 q 725 634 751 758 q 708 535 714 594 l 703 535 l 699 545 q 751 759 699 601 q 763 784 755 759 l 777 793 l 800 768 l 797 740 l 803 740 q 812 771 808 740 l 814 774 q 789 824 797 824 l 766 824 l 725 840 l 650 821 m 248 824 l 248 821 l 251 821 l 274 818 l 291 821 l 294 818 l 297 818 l 300 821 l 334 818 q 524 827 524 822 l 538 824 l 544 831 l 544 833 l 530 836 l 498 836 l 469 833 l 429 836 l 294 836 q 248 824 248 829 m 581 827 l 581 824 l 596 824 l 596 827 l 581 827 m 808 818 l 808 814 q 831 749 829 778 l 835 749 l 838 753 l 838 756 l 829 827 l 817 827 l 808 818 m 231 799 l 228 789 l 343 486 q 472 203 408 301 l 484 200 l 484 203 q 420 387 469 269 q 245 796 330 537 l 231 799 m 222 765 l 219 762 l 219 759 q 311 529 226 700 l 311 542 l 254 697 q 225 765 245 703 l 222 765 m 863 765 q 852 737 852 747 l 854 728 l 852 700 l 858 693 l 869 762 l 866 765 l 863 765 m 812 740 l 797 672 l 800 672 q 823 718 806 672 l 817 740 l 812 740 m 225 663 l 225 660 q 279 392 225 602 q 372 182 320 265 q 437 98 401 133 l 441 100 l 444 100 q 268 554 383 203 l 231 663 l 225 663 m 820 663 q 760 448 797 564 l 760 442 l 766 442 q 829 650 829 604 q 820 663 825 663 m 800 638 l 800 629 l 803 629 l 803 638 l 800 638 m 777 629 l 777 616 l 783 622 l 783 634 l 777 629 m 271 579 l 271 570 q 427 150 366 295 q 449 104 443 129 q 507 51 481 51 l 513 45 l 515 45 l 521 51 l 521 60 q 501 100 509 60 q 487 128 487 106 q 412 278 446 128 l 277 575 l 274 579 l 271 579 m 768 551 l 768 542 l 771 542 l 771 551 l 768 551 m 754 492 q 768 535 762 492 q 754 492 762 535 m 311 523 l 311 520 l 317 520 l 317 523 l 311 523 m 320 511 l 320 501 l 326 501 l 326 505 l 320 511 m 760 382 l 766 382 q 777 411 766 392 l 777 414 q 760 382 768 407 m 720 408 l 714 382 l 720 382 l 725 405 l 725 408 l 720 408 m 751 365 q 760 380 758 365 q 751 365 753 380 m 708 368 l 708 361 l 714 368 l 714 374 l 708 368 m 437 212 q 472 150 453 166 l 475 150 l 475 153 l 444 215 l 441 212 l 437 212 m 475 182 l 475 178 l 487 157 l 492 163 l 484 182 l 475 182 m 590 119 l 590 110 l 596 104 q 619 135 604 104 q 653 178 638 135 l 648 178 q 593 119 610 145 l 590 119 m 504 157 l 504 150 l 509 144 l 524 144 l 524 150 l 507 157 l 504 157 m 515 132 l 515 123 l 524 104 l 532 104 l 550 123 q 515 132 550 132 m 541 81 l 541 76 l 544 76 q 562 98 556 83 q 541 81 543 90 z "},"P":{"ha":926,"x_min":136,"x_max":790,"o":"m 147 1066 l 188 1066 q 275 1036 201 1066 q 326 1012 308 1014 l 356 993 l 364 993 l 367 1004 l 375 1004 l 375 987 q 546 917 406 963 l 562 906 l 565 909 l 568 909 l 703 854 q 747 819 747 826 l 741 814 q 711 830 722 830 l 711 825 l 709 825 l 711 822 l 711 819 l 692 776 l 692 773 q 747 814 747 788 l 752 814 q 782 765 770 802 q 790 757 790 765 q 684 648 790 740 q 451 418 479 452 q 375 331 375 337 l 375 277 l 372 260 l 375 250 l 372 231 l 372 225 l 375 225 l 372 206 l 370 54 l 367 43 l 370 41 l 364 -8 l 367 -11 l 367 -14 q 356 -54 365 -54 l 342 -19 l 351 98 l 348 109 l 353 144 l 356 320 l 359 342 l 356 345 l 353 345 q 321 290 321 328 l 318 236 l 321 233 l 321 231 l 318 214 l 318 212 l 321 201 l 318 182 l 318 14 l 323 8 l 337 163 l 342 163 l 342 144 q 318 -27 338 -27 q 310 19 310 -18 l 310 168 l 313 304 l 307 304 q 291 282 298 300 l 294 255 l 288 198 l 291 187 l 288 119 l 288 114 l 283 109 l 277 109 l 275 119 l 283 260 l 275 279 q 286 317 286 304 l 286 320 l 280 320 q 253 279 261 303 q 304 -146 253 107 l 315 -165 l 315 -168 l 310 -174 q 272 -24 291 -149 q 245 266 253 94 l 242 269 l 239 269 q 204 212 224 253 l 201 212 l 199 220 q 245 293 204 236 l 245 420 l 242 420 l 193 377 l 188 382 q 245 448 245 433 l 245 556 q 256 922 245 808 l 193 939 l 191 936 l 142 936 l 136 941 l 144 949 l 174 949 l 191 947 l 204 952 l 258 947 l 275 996 l 272 998 l 269 998 l 261 996 l 220 1006 l 218 1004 l 204 1006 l 177 1006 l 172 1012 q 199 1023 172 1020 q 264 1006 199 1015 l 272 1004 l 294 1009 q 258 1031 294 1017 l 182 1058 l 139 1053 l 136 1055 l 136 1058 l 147 1066 m 299 1006 q 321 996 299 1000 l 323 996 l 307 1009 l 299 1006 m 269 952 q 294 939 269 939 q 299 947 299 939 l 296 960 l 299 963 l 302 963 q 329 928 302 928 l 332 930 l 332 963 q 299 993 332 982 q 269 952 281 993 m 337 971 l 337 968 l 342 968 l 342 971 l 337 971 m 351 949 q 361 920 357 920 l 364 920 l 364 966 l 359 971 q 351 949 351 970 m 372 963 l 372 949 l 375 939 l 372 928 q 429 911 372 911 l 435 906 l 448 909 q 494 901 489 906 l 505 903 l 505 906 q 378 963 487 922 l 372 963 m 267 920 l 264 917 l 264 909 q 258 868 264 868 l 261 865 l 261 863 l 258 841 l 261 838 l 261 836 l 253 779 l 256 776 l 256 762 l 253 684 l 256 675 l 253 635 l 253 453 l 258 448 q 291 486 291 477 l 296 909 q 267 920 296 920 m 307 911 l 307 884 q 302 854 307 865 l 304 846 l 302 819 l 304 787 l 302 773 l 304 762 l 302 743 l 304 719 l 302 667 l 302 659 l 304 648 l 299 613 l 302 602 l 299 586 l 302 570 l 299 515 l 299 494 q 323 551 323 494 q 332 857 332 723 l 332 909 l 318 911 l 307 911 m 511 903 l 511 901 l 516 901 l 516 903 l 511 903 m 353 901 l 353 898 l 359 865 l 356 836 l 359 825 l 364 825 l 364 901 l 353 901 m 448 898 q 524 879 448 892 q 611 863 534 873 l 614 865 l 614 868 q 448 898 522 898 m 372 895 l 375 849 l 372 825 l 375 817 l 372 800 l 372 787 l 375 749 l 372 724 l 375 705 l 372 684 l 375 673 l 372 648 l 372 613 l 375 597 l 372 581 l 375 559 l 378 559 l 665 827 q 568 844 644 835 l 565 841 l 562 841 l 516 854 l 516 857 q 524 863 516 863 q 611 849 570 849 l 622 849 l 627 854 l 625 857 l 622 857 l 616 852 q 568 863 572 857 l 541 863 l 532 868 l 513 868 q 508 857 513 857 l 380 895 l 372 895 m 342 876 l 340 868 l 342 849 l 340 779 l 340 741 l 337 703 l 340 692 l 337 667 l 340 665 l 340 662 l 334 648 l 337 637 l 334 629 l 337 616 q 332 581 335 581 l 334 578 l 329 521 l 332 518 q 359 545 340 518 l 356 591 l 356 618 l 353 735 l 356 751 q 348 873 351 751 l 345 876 l 342 876 m 372 529 l 375 518 l 372 483 l 375 458 l 380 458 q 611 716 452 566 q 695 803 695 772 q 701 817 701 803 l 701 822 l 695 827 q 608 760 675 827 l 551 708 l 440 602 q 372 529 372 551 m 747 795 l 747 787 l 752 779 l 752 776 q 739 751 747 751 l 736 751 l 741 773 l 739 773 q 646 692 715 773 l 646 686 l 649 686 l 709 732 l 720 732 l 720 724 q 576 575 576 604 l 543 532 l 543 529 l 546 529 q 779 751 779 747 l 779 757 l 755 798 l 747 795 m 676 746 l 676 741 l 679 741 q 698 760 698 755 l 690 760 l 676 746 m 372 420 l 375 418 l 378 418 l 587 648 q 660 732 650 711 l 660 738 l 654 738 q 413 488 538 650 q 372 420 372 446 m 595 640 l 597 640 l 614 659 l 614 662 q 595 640 599 650 m 578 627 l 584 627 l 589 632 l 584 632 l 578 627 m 559 578 l 559 572 l 568 581 l 568 583 l 565 583 l 559 578 m 378 382 q 489 491 420 405 l 549 553 l 557 570 l 557 572 l 551 572 l 508 529 l 380 391 l 378 382 m 329 494 l 332 480 l 326 458 l 326 399 q 359 445 359 427 l 359 526 l 356 526 q 329 494 329 505 m 296 458 l 299 456 l 296 442 l 296 391 l 294 358 l 296 358 q 318 429 318 372 l 321 488 l 315 488 q 296 458 296 475 m 283 461 q 253 415 253 434 l 256 399 l 253 361 l 253 309 l 261 309 q 288 380 288 340 l 288 456 l 283 461 m 323 361 l 329 361 q 359 404 359 389 l 359 415 l 356 415 q 323 361 323 387 m 294 326 l 299 326 q 315 358 315 336 l 310 358 q 294 326 301 358 z "},"Q":{"ha":1080,"x_min":163,"x_max":917,"o":"m 581 1001 l 594 1001 l 618 998 l 621 1001 l 624 1001 q 836 930 796 1001 l 849 920 l 838 909 q 857 830 857 854 l 857 817 q 643 486 857 704 l 602 396 l 610 377 l 616 377 q 751 575 654 417 l 844 713 q 873 743 868 743 l 876 743 l 882 738 l 882 730 l 876 724 l 865 727 q 646 396 798 633 q 621 363 625 375 l 635 339 q 689 412 642 339 l 792 556 l 849 646 q 906 808 906 756 q 852 911 906 878 l 852 917 l 863 917 q 914 819 914 882 l 917 808 q 814 575 907 717 l 648 339 l 646 326 l 646 323 q 754 203 671 280 l 779 174 l 768 157 q 887 16 887 23 l 890 5 l 882 0 q 825 73 882 22 q 819 65 825 65 l 708 179 q 616 250 659 207 q 600 266 609 264 l 562 212 l 559 209 l 556 209 q 548 220 549 209 q 575 296 548 231 l 572 296 l 450 138 l 448 138 l 442 144 l 442 149 l 491 217 l 553 326 l 553 334 l 540 347 q 467 214 472 251 q 450 190 450 199 l 453 176 q 434 165 453 165 q 418 149 430 149 l 418 141 q 507 76 477 76 l 507 73 l 502 68 q 410 136 467 68 l 407 136 l 374 100 l 369 106 q 393 149 369 115 l 393 155 q 336 214 389 165 q 241 358 276 281 q 182 401 209 368 q 168 458 168 431 l 168 477 l 176 567 q 163 684 168 589 q 195 852 163 828 l 203 852 l 203 849 q 176 765 176 820 l 176 757 l 179 757 q 209 819 199 769 q 236 868 219 868 l 241 868 l 241 865 q 214 800 214 840 l 217 800 q 334 882 277 851 q 494 996 392 967 l 496 993 l 499 993 q 581 1001 509 1001 m 358 895 l 366 895 q 496 920 446 920 l 496 917 l 505 920 l 521 917 l 656 949 l 694 949 l 703 955 l 722 955 q 735 949 735 954 l 749 952 l 814 933 l 814 941 q 716 982 772 982 q 703 987 716 987 l 675 987 l 665 990 l 654 987 l 646 987 l 637 993 l 635 993 l 600 990 l 562 993 q 453 974 493 987 q 358 895 381 934 m 700 933 l 667 933 l 656 930 l 654 933 l 651 933 q 613 925 635 925 l 613 920 l 637 920 l 662 917 l 665 920 q 713 906 713 916 l 713 903 l 708 898 l 705 898 q 659 911 695 905 l 632 909 l 616 911 l 605 909 l 591 911 l 591 909 l 594 901 l 613 903 q 629 892 613 898 l 629 890 q 621 884 629 884 l 581 901 l 578 898 l 575 898 l 551 901 q 477 871 521 901 q 396 833 469 871 l 396 825 l 399 825 q 477 844 415 836 l 488 849 l 496 846 q 564 860 503 852 l 567 860 l 572 854 q 475 827 572 846 q 401 798 409 810 q 382 787 382 791 l 382 784 l 388 784 l 439 798 q 743 827 531 798 l 743 825 q 787 846 787 829 l 800 876 l 803 873 l 803 871 l 792 836 l 795 833 l 800 833 l 819 838 l 825 830 l 825 827 q 795 817 825 819 l 795 819 q 762 762 781 819 q 624 488 671 565 l 624 486 q 689 551 689 543 q 754 621 695 551 q 849 817 849 747 q 833 868 849 868 l 833 857 l 827 857 l 830 876 l 830 882 q 746 936 830 922 l 730 933 l 722 933 l 713 936 l 700 933 m 320 827 l 393 876 l 456 903 l 456 906 l 448 906 q 326 844 326 884 l 320 827 m 315 803 l 315 795 l 320 795 q 469 879 417 859 l 491 898 l 491 901 l 483 901 q 363 846 404 875 q 315 803 315 809 m 209 760 l 209 711 l 206 708 l 206 705 l 209 703 l 212 703 l 255 760 l 250 784 l 252 787 l 258 787 q 266 770 260 770 q 323 860 310 809 l 317 860 q 209 760 209 799 m 708 806 l 708 800 q 751 784 751 795 q 743 768 749 768 l 741 768 l 741 781 q 673 792 731 792 q 464 754 635 792 l 464 757 q 342 735 446 749 q 309 621 309 688 l 312 618 l 309 605 l 309 581 l 312 572 l 309 559 l 309 537 q 328 477 309 477 l 328 472 q 315 467 315 472 q 393 298 315 405 q 434 214 393 256 l 437 214 q 534 358 450 221 l 534 363 l 526 372 l 467 285 l 461 285 l 456 290 q 521 380 458 306 l 521 388 q 475 472 475 453 l 480 477 q 518 448 518 463 l 524 448 l 510 486 l 510 488 l 515 494 q 564 423 557 427 l 567 431 q 551 477 551 462 l 553 480 l 556 480 q 578 442 562 480 l 581 442 q 773 811 640 510 l 770 814 l 768 814 l 708 806 m 315 770 l 320 765 l 328 765 q 372 795 372 779 l 366 795 q 315 770 316 779 m 532 787 l 529 789 l 526 789 l 363 757 q 355 751 355 757 l 358 749 l 361 749 q 586 789 472 762 l 586 792 l 572 795 l 532 787 m 296 792 q 282 779 296 781 l 282 773 l 285 773 q 304 789 304 785 l 304 792 l 296 792 m 195 765 q 179 724 179 741 l 179 689 q 187 673 181 673 l 190 673 q 201 732 201 697 l 201 760 l 195 765 m 269 727 l 269 719 l 271 719 q 290 732 284 719 l 290 735 l 285 735 q 269 727 269 734 m 315 735 l 312 722 l 312 711 l 315 711 q 328 735 328 718 l 315 735 m 271 678 q 288 591 283 591 l 290 591 l 290 594 l 304 700 l 304 724 l 296 724 q 271 678 271 708 m 255 716 q 209 618 209 644 q 252 515 218 560 l 285 472 l 288 472 l 288 477 q 258 526 288 486 q 239 591 248 526 l 239 597 q 260 711 239 650 l 260 713 l 258 716 l 255 716 m 212 662 l 241 713 l 239 713 q 212 662 226 713 m 247 621 l 250 618 l 247 597 q 277 510 247 560 l 285 510 l 263 673 l 260 673 q 247 621 252 673 m 182 640 l 182 624 q 187 632 187 624 l 184 640 l 182 640 m 195 594 l 193 591 l 193 570 q 206 545 198 545 l 209 545 l 209 553 q 195 594 206 594 m 296 586 l 296 583 l 293 553 l 296 534 l 301 540 l 301 586 l 296 586 m 195 540 l 195 537 l 209 507 l 206 488 q 255 369 240 369 l 258 372 l 258 374 q 214 521 236 430 l 195 540 m 179 521 l 179 515 l 176 499 l 179 496 l 176 477 l 176 461 q 231 377 176 397 l 233 377 q 187 521 206 449 l 179 521 m 255 475 l 255 472 l 288 391 q 307 377 288 377 l 309 374 l 309 372 l 304 361 q 347 288 304 352 l 350 288 l 350 290 q 255 475 315 409 m 618 467 l 589 426 q 597 410 591 410 l 624 461 l 618 467 m 499 453 l 499 450 q 534 399 517 413 l 537 399 l 545 404 l 507 453 l 499 453 m 269 401 l 269 393 l 274 393 l 274 401 l 269 401 m 578 401 l 578 391 l 583 391 l 583 401 l 578 401 m 545 388 l 545 382 l 548 382 l 556 391 l 553 393 l 551 393 l 545 388 m 274 391 l 274 385 l 285 372 l 285 377 q 274 391 279 389 m 562 382 l 559 380 l 559 366 l 570 361 l 572 361 l 572 366 l 575 366 q 562 382 572 378 m 551 361 q 559 345 553 345 l 564 345 l 564 347 l 556 361 l 551 361 m 255 355 l 255 353 l 274 315 l 279 315 q 260 355 268 350 l 255 355 m 290 355 q 355 228 290 336 l 363 228 l 363 241 q 331 296 363 251 q 296 355 296 347 l 290 355 m 581 355 l 581 339 l 583 339 l 591 342 q 581 355 586 354 m 282 339 l 282 334 l 285 334 l 285 339 l 282 339 m 570 336 l 570 328 l 575 323 l 581 323 l 583 334 l 581 336 l 570 336 m 288 323 l 288 320 l 301 296 l 304 296 l 304 298 q 288 323 304 313 m 586 315 l 586 312 q 600 288 586 298 q 610 307 610 292 l 591 320 l 586 315 m 529 266 l 529 263 l 534 263 q 567 315 567 305 l 564 317 l 562 317 l 529 266 m 610 277 q 681 206 610 261 l 681 203 l 686 203 q 621 293 686 216 l 618 293 q 610 277 610 290 m 581 288 l 562 236 l 567 236 l 594 279 l 581 288 m 350 285 l 350 279 l 355 279 l 355 285 l 350 285 m 377 285 l 377 279 l 382 274 l 385 274 l 385 279 l 380 285 l 377 285 m 524 258 l 524 252 l 526 252 l 526 258 l 524 258 m 372 228 l 366 214 l 366 209 q 410 171 393 171 l 412 174 l 412 182 l 377 228 l 372 228 m 716 225 l 716 222 l 722 212 l 727 212 q 716 225 724 224 m 399 220 l 399 217 l 420 190 l 423 190 l 429 195 l 429 201 q 407 222 429 210 l 399 220 m 730 209 l 754 176 l 762 176 l 762 179 q 732 209 751 197 l 730 209 z "},"R":{"ha":1003,"x_min":127,"x_max":876,"o":"m 284 1008 q 341 970 332 970 q 431 937 341 964 q 512 921 434 932 q 536 907 536 918 l 547 913 q 577 905 562 913 l 580 907 q 751 864 714 883 l 751 859 l 753 861 l 756 861 l 767 850 q 732 807 763 835 l 732 804 l 745 804 l 756 799 q 873 880 854 876 l 876 878 l 876 875 q 772 742 876 856 q 729 704 764 742 q 545 557 611 605 l 539 549 l 539 541 q 566 484 539 532 l 566 473 q 599 427 586 473 q 677 218 615 406 q 756 -12 740 8 q 819 -140 793 -100 l 819 -137 l 791 -61 q 721 161 791 -31 l 691 254 q 642 373 684 260 q 637 392 637 373 q 615 441 627 392 l 615 446 q 596 479 604 446 q 561 547 561 536 l 561 549 l 566 555 q 577 530 572 555 q 599 487 587 522 q 672 321 629 437 q 819 -91 699 259 l 854 -186 l 854 -189 l 848 -194 q 840 -180 841 -194 l 827 -180 q 705 94 774 -113 q 574 460 642 319 q 569 468 569 460 l 561 468 l 561 460 q 574 419 571 460 l 623 256 q 764 -96 670 90 q 808 -216 808 -176 l 802 -221 l 800 -221 q 726 -80 760 -185 l 729 -80 q 764 -156 743 -96 l 794 -199 l 794 -194 q 715 -20 794 -169 l 691 34 l 642 167 l 542 498 q 523 506 537 506 l 515 517 l 515 525 l 520 530 l 523 530 l 526 528 l 528 528 l 531 530 l 531 533 l 526 538 q 504 517 504 538 q 531 446 509 516 q 604 216 574 324 q 715 -72 659 61 l 740 -148 l 732 -153 q 710 -80 722 -145 q 694 -39 707 -80 l 691 -28 l 688 -26 l 683 -26 l 683 -28 l 713 -137 l 705 -142 q 577 245 640 90 q 493 500 507 446 l 485 509 l 482 509 l 439 471 l 387 425 l 387 256 q 376 53 387 106 l 379 50 l 379 47 l 374 20 l 368 20 l 363 26 l 363 102 l 360 102 l 352 96 q 344 134 344 106 l 344 278 l 341 292 l 338 292 l 336 264 l 336 256 q 314 66 336 126 q 292 -69 306 -69 l 284 -64 l 290 156 q 276 197 290 197 l 276 202 l 279 205 l 276 208 l 276 210 l 279 224 l 276 245 l 279 248 l 271 324 q 254 151 259 324 l 246 1 l 249 -1 l 252 -1 q 271 178 262 -1 l 271 183 l 273 183 l 279 178 l 279 175 q 249 -45 279 36 l 243 -45 q 238 -37 238 -45 q 254 313 238 54 l 241 311 l 233 338 q 254 373 254 363 l 260 400 l 257 446 l 260 454 q 252 601 252 528 l 252 888 l 257 894 l 260 894 q 268 867 266 894 l 265 864 l 265 861 q 279 842 267 842 l 279 840 q 271 791 273 833 q 300 473 277 791 l 303 471 l 309 471 l 322 636 l 319 639 l 322 669 q 333 897 327 897 q 168 913 289 907 l 151 910 l 138 913 l 130 910 l 127 913 l 127 921 l 132 926 l 140 926 l 262 924 l 262 929 l 260 929 q 214 945 214 929 q 241 983 220 962 l 243 983 l 243 975 l 224 948 q 347 926 224 937 q 374 918 347 923 l 376 916 l 379 918 l 382 918 q 526 883 517 893 l 526 880 q 387 910 446 891 l 376 907 l 376 905 l 477 880 l 493 880 q 566 861 517 867 l 569 864 l 569 867 q 534 880 534 873 l 534 883 l 536 883 q 751 848 702 848 l 751 856 l 696 872 l 520 907 q 328 962 400 932 q 279 994 296 979 l 279 1002 l 284 1008 m 287 924 l 287 918 l 295 918 l 295 924 l 287 924 m 317 918 l 322 913 l 333 913 l 338 918 l 317 918 m 349 913 q 374 905 349 907 l 374 907 l 368 913 l 349 913 m 347 894 l 352 815 l 352 777 l 355 766 l 352 764 q 357 745 354 745 l 355 731 l 352 601 l 355 598 l 352 585 l 352 517 l 355 514 l 355 511 q 368 522 367 517 l 368 582 l 376 633 l 376 850 l 382 856 l 387 848 l 385 804 l 385 799 l 387 799 l 385 780 l 385 723 l 387 696 l 385 674 l 387 650 l 382 587 l 385 585 l 385 582 l 382 566 l 382 541 l 387 536 l 650 764 l 667 780 l 667 783 q 642 793 667 789 l 629 804 q 637 810 629 810 l 675 793 l 683 793 q 740 826 718 825 l 740 829 q 623 840 740 838 l 618 845 l 602 845 l 523 861 l 520 859 l 520 853 q 623 810 608 822 l 623 802 l 621 802 l 545 834 q 504 848 545 839 q 493 856 504 856 l 493 861 l 482 859 q 347 894 402 886 m 585 859 l 588 856 l 588 853 l 596 856 l 596 864 l 591 864 l 585 859 m 748 769 l 759 758 l 775 758 l 808 796 l 843 837 l 843 842 l 838 842 q 748 769 795 814 m 336 831 l 336 802 l 330 693 l 330 688 l 333 677 l 330 674 l 330 671 l 333 663 l 328 644 l 330 633 l 328 631 l 330 614 l 325 579 l 328 566 l 322 522 l 325 514 l 319 487 l 322 484 q 344 509 344 493 l 344 644 l 341 818 l 338 831 l 336 831 m 707 777 l 710 774 l 713 774 q 743 791 743 778 l 740 793 l 737 793 q 707 777 707 788 m 504 601 l 504 598 l 507 598 l 707 764 l 707 769 l 694 772 l 688 772 q 504 601 656 758 m 732 755 l 536 568 l 539 566 q 756 745 644 638 l 756 753 l 732 755 m 488 560 q 496 549 492 549 q 688 731 647 684 l 688 734 l 496 576 q 488 560 490 576 m 504 628 q 477 604 504 623 q 382 517 382 523 l 382 511 l 385 509 l 387 509 q 509 628 471 581 l 504 628 m 387 457 q 479 536 438 491 l 479 541 l 477 555 l 471 555 q 401 487 442 532 q 385 457 385 472 l 387 457 m 515 555 l 515 549 l 520 549 l 520 555 l 515 555 m 271 528 l 271 519 l 276 519 l 276 522 l 271 528 m 352 484 l 355 481 q 368 492 367 487 l 368 506 l 366 506 q 352 484 352 498 m 271 503 l 271 476 l 273 460 l 271 446 l 271 444 l 276 438 l 279 438 l 281 452 l 281 473 l 276 503 l 271 503 m 338 484 l 317 460 l 317 454 q 344 473 332 454 l 344 479 l 338 484 m 273 416 l 273 411 l 276 411 l 284 419 l 284 425 l 281 425 l 273 416 m 352 378 l 352 286 l 355 264 l 352 243 l 352 148 l 355 134 l 357 134 q 368 403 368 209 l 363 403 q 352 378 352 399 m 281 384 l 276 373 l 276 368 l 279 368 l 287 376 l 287 384 l 281 384 m 314 354 l 322 254 l 328 254 l 325 256 l 330 311 l 330 335 l 336 335 l 338 319 l 341 319 l 344 343 l 341 346 l 344 359 l 344 381 l 338 381 q 314 354 314 367 m 281 338 l 279 324 l 287 237 l 292 237 l 292 332 l 287 338 l 281 338 m 295 96 l 295 50 l 298 23 l 295 -1 l 295 -4 q 306 80 302 -4 q 298 96 302 96 l 295 96 m 680 -12 l 680 -20 l 683 -20 l 683 -12 l 680 -12 m 292 -18 l 292 -20 l 295 -34 l 298 -34 l 298 -18 l 292 -18 z "},"S":{"ha":926,"x_min":58,"x_max":869,"o":"m 846 1031 l 851 1031 l 851 1028 q 693 930 844 1011 q 595 870 646 897 l 595 864 l 598 864 l 684 901 l 688 899 l 688 890 q 512 772 645 857 q 319 637 355 667 l 319 634 l 435 640 l 443 637 l 458 640 l 587 643 l 802 637 l 825 646 q 848 637 825 637 q 869 620 869 631 q 635 355 838 551 q 336 114 507 247 q 201 -7 236 32 q 187 -30 191 -30 l 184 -27 l 184 -18 q 233 36 208 22 l 231 56 q 285 111 231 64 q 403 226 323 159 l 408 226 q 377 191 408 214 q 348 165 356 165 l 342 154 l 342 151 l 345 151 q 406 203 345 157 q 725 519 618 405 l 725 522 q 682 496 715 522 q 239 145 632 475 q 115 47 163 73 l 109 65 l 109 68 l 155 119 l 155 122 l 153 122 l 130 105 l 127 105 l 121 111 l 121 114 q 336 277 227 215 q 469 367 420 342 q 662 511 585 449 l 739 583 l 736 585 l 530 585 l 512 583 l 503 585 l 477 583 l 458 585 l 452 580 l 408 580 l 391 576 l 382 580 l 314 571 l 302 574 l 299 574 l 276 568 l 256 568 q 155 522 183 568 q 136 485 136 498 l 132 485 l 127 490 q 170 548 142 533 l 170 553 l 167 557 l 167 559 l 136 553 l 132 557 l 130 557 q 60 548 123 551 l 58 551 l 58 557 q 178 600 64 564 l 187 600 l 187 608 l 184 608 l 170 600 l 159 608 l 155 608 l 127 597 l 124 606 q 242 701 157 643 q 702 991 508 896 l 765 1028 l 768 1025 l 768 1023 l 756 1011 l 756 1008 l 794 1017 l 794 1008 q 564 887 723 1000 l 227 648 l 227 646 l 233 646 l 535 856 l 595 893 q 736 977 614 911 q 823 1017 765 977 l 846 1031 m 630 905 l 633 901 l 642 905 l 642 910 l 635 910 l 630 905 m 159 625 l 159 623 l 176 623 l 368 761 l 567 901 l 567 905 l 561 905 q 159 625 347 774 m 604 893 l 604 887 l 610 887 l 610 893 l 604 893 m 279 640 l 279 634 l 294 634 q 647 870 508 783 l 647 876 l 644 876 q 454 769 572 840 q 334 677 347 692 q 285 640 318 670 l 279 640 m 570 867 l 570 864 l 575 864 l 575 867 l 570 867 m 561 861 l 561 859 l 567 859 l 567 861 l 561 861 m 518 829 l 521 829 l 535 836 l 535 841 l 532 841 l 518 829 m 239 634 l 239 629 l 242 629 q 305 669 261 629 l 317 675 l 317 680 l 311 680 l 248 640 q 239 634 248 634 m 219 640 l 224 640 l 224 646 l 219 640 m 201 634 l 201 631 l 210 631 l 213 634 l 213 637 l 210 637 l 201 634 m 564 631 l 526 631 l 509 629 l 507 631 l 503 631 l 495 629 l 477 631 l 475 629 l 472 629 l 458 631 l 449 629 l 440 631 l 437 629 l 417 631 l 412 631 l 366 625 l 317 625 l 291 617 l 291 611 l 305 608 l 317 608 l 334 611 l 336 608 l 340 608 l 357 611 l 368 608 l 380 611 l 391 608 l 412 611 l 518 611 l 530 608 l 541 611 l 593 611 l 610 608 l 624 611 l 627 611 l 635 608 l 650 611 l 696 611 l 699 608 l 702 611 l 713 611 l 768 617 l 777 617 l 785 625 l 762 629 l 753 625 l 734 631 l 716 629 l 705 631 l 693 629 l 665 631 l 653 629 l 627 631 l 587 631 l 575 634 l 564 631 m 150 620 l 150 617 l 155 617 l 155 620 l 150 620 m 224 617 l 224 611 l 233 614 l 233 617 l 224 617 m 806 591 l 811 583 q 834 611 823 583 l 828 611 l 828 614 q 806 591 822 614 m 305 597 l 299 597 l 299 600 q 236 583 258 600 l 233 583 l 222 591 l 213 580 l 216 576 l 216 574 l 236 576 l 239 576 l 242 574 q 397 588 242 581 l 412 594 l 431 591 q 472 597 472 593 l 486 594 l 521 594 l 521 600 l 515 600 l 515 603 l 512 600 l 500 600 l 486 603 l 469 600 l 458 603 l 454 600 l 452 600 l 435 603 l 429 603 l 417 600 l 403 603 l 380 600 l 359 603 l 357 600 l 354 600 l 342 603 l 305 597 m 748 600 l 748 594 l 756 594 l 756 600 l 748 600 m 124 571 l 124 565 q 208 591 208 565 l 187 591 q 159 583 178 583 l 124 571 m 823 576 l 823 571 q 831 583 827 571 l 828 583 l 823 576 m 716 536 l 725 536 q 777 576 753 551 l 774 580 q 716 536 738 562 m 558 341 l 558 332 l 564 332 q 800 568 748 500 l 800 571 l 797 571 q 630 407 789 571 q 558 341 568 341 m 498 258 l 503 258 q 662 393 591 328 q 806 551 800 528 q 742 488 797 551 l 627 378 q 584 338 627 372 q 498 258 498 262 m 170 134 l 181 134 q 242 182 181 142 l 406 307 l 414 318 l 412 318 q 314 249 378 299 q 193 163 248 210 l 170 134 m 484 246 l 484 243 l 495 254 l 492 254 l 484 246 m 477 243 l 477 237 l 480 237 l 480 243 l 477 243 m 469 240 l 466 237 l 466 232 l 475 232 l 475 235 l 469 240 m 325 140 l 325 137 q 340 149 338 142 l 336 149 l 325 140 m 159 125 l 159 122 l 167 125 l 167 134 l 159 125 m 317 134 l 314 131 l 314 125 l 317 125 l 322 131 l 319 134 l 317 134 z "},"T":{"ha":848,"x_min":67,"x_max":781,"o":"m 469 955 q 477 939 474 955 l 512 939 l 517 933 l 512 928 l 507 928 l 479 930 l 479 922 l 504 925 l 504 922 l 523 928 l 520 930 l 520 933 l 536 944 l 545 944 q 642 930 545 930 q 778 925 642 927 l 781 922 l 781 917 l 775 911 l 713 911 l 702 914 l 691 911 l 686 911 l 664 914 l 623 909 l 621 911 l 618 911 q 558 901 612 906 l 539 903 q 531 898 539 898 l 528 890 q 634 882 562 882 l 659 882 l 688 879 l 691 882 l 694 882 l 732 879 l 764 879 l 770 873 l 770 871 l 764 865 l 675 865 l 664 868 l 661 865 l 531 871 q 512 749 522 846 l 515 746 l 498 515 l 501 507 q 450 87 479 219 q 404 -81 416 -81 l 401 -79 l 401 -73 q 452 146 417 -41 l 450 149 l 447 149 l 379 -138 q 368 -174 377 -174 q 363 -165 363 -174 l 376 -95 q 368 -60 368 -95 l 357 -68 l 355 -60 q 360 -3 356 -3 l 349 22 q 363 282 352 163 q 355 366 355 298 q 366 420 355 420 l 368 420 l 368 415 l 371 415 l 401 678 l 404 678 l 401 681 q 409 727 404 727 l 406 730 l 406 732 l 414 781 l 414 787 l 412 798 l 414 800 l 414 803 l 412 854 l 412 860 l 420 871 l 401 873 l 344 873 l 328 876 l 314 873 l 290 873 l 279 871 l 276 873 l 273 873 l 260 871 l 246 873 l 70 860 l 67 863 l 67 865 q 162 882 67 873 l 157 887 l 151 887 l 140 884 q 116 895 116 888 q 460 922 116 909 l 463 925 l 463 928 l 458 933 l 452 933 l 452 930 l 425 933 l 371 933 l 338 939 l 314 936 l 279 939 l 254 939 l 230 936 l 216 939 l 216 941 l 222 947 l 271 947 l 273 944 l 281 947 l 414 944 l 431 939 l 447 941 l 452 941 l 455 939 l 458 939 q 469 955 463 955 m 417 909 l 436 903 l 441 911 l 439 914 l 422 914 l 417 909 m 341 906 l 328 909 q 306 903 306 908 l 292 906 l 246 901 l 230 903 l 224 898 l 195 898 l 189 892 l 246 892 l 319 898 l 319 895 q 347 903 347 899 l 357 901 l 385 903 l 398 901 l 409 909 l 409 911 l 382 909 l 366 911 l 341 906 m 382 892 l 382 895 l 368 892 q 376 887 368 887 l 387 890 l 414 887 l 458 887 l 463 892 l 458 901 l 382 892 m 474 892 q 501 884 474 887 l 504 887 l 507 887 l 509 884 l 512 884 l 523 892 l 520 901 l 482 901 l 474 892 m 422 871 q 436 863 422 866 l 436 857 q 420 716 436 780 l 422 708 l 414 656 l 417 654 l 417 651 q 393 453 404 577 q 382 358 389 453 l 379 358 l 382 355 q 360 127 368 267 l 363 125 l 366 125 q 425 564 395 273 l 452 751 l 452 773 l 458 779 l 455 792 l 460 844 l 460 868 l 455 873 l 422 871 m 474 868 l 477 865 l 474 838 l 474 770 l 469 754 l 471 746 l 463 724 l 469 716 l 469 700 q 463 670 469 681 l 466 662 q 458 602 463 608 l 460 589 l 455 564 l 458 562 l 458 559 l 444 442 l 447 439 l 447 437 l 441 423 l 444 420 l 444 418 l 406 117 l 401 111 l 401 100 l 406 95 q 441 225 432 216 l 444 225 l 444 220 l 406 27 l 412 27 q 474 399 444 146 q 504 827 493 573 l 515 857 l 515 871 l 479 871 l 477 868 l 474 868 m 452 694 l 414 404 l 417 401 l 417 399 q 409 350 414 356 l 412 347 l 412 345 l 409 301 l 412 293 q 395 174 406 281 q 390 133 392 174 l 387 133 l 390 125 l 379 62 l 382 49 l 379 41 l 379 38 l 382 38 q 455 640 404 112 l 455 654 l 452 656 l 452 659 l 458 692 l 455 694 l 452 694 m 366 388 l 363 380 l 366 369 l 368 369 l 368 388 l 366 388 m 452 187 l 450 184 l 450 182 l 455 176 l 458 184 l 455 187 l 452 187 m 450 171 l 450 155 l 455 160 l 455 171 l 450 171 m 395 73 l 395 68 l 401 68 l 401 79 l 395 73 m 401 14 l 401 3 l 406 8 l 406 19 l 401 14 m 374 11 l 374 8 l 379 8 l 379 16 l 374 11 m 374 0 l 371 -14 l 371 -16 l 374 -16 l 376 -3 l 376 0 l 374 0 z "},"U":{"ha":1003,"x_min":237,"x_max":765,"o":"m 286 897 l 289 894 l 289 891 q 271 781 271 842 l 271 755 l 276 755 q 302 804 276 778 l 309 798 q 283 730 283 768 l 286 726 l 283 710 l 283 684 l 281 629 q 335 203 302 377 q 386 64 370 64 l 390 64 l 386 119 l 386 125 l 390 138 l 341 765 q 332 827 336 765 l 341 832 l 345 829 l 345 804 q 354 778 345 781 l 361 785 l 367 774 l 364 758 l 364 732 q 377 590 364 668 l 374 590 l 380 565 l 377 565 l 383 545 l 380 542 l 396 323 l 393 319 q 425 45 403 104 l 432 45 l 432 41 q 590 335 477 43 q 696 804 645 492 q 713 868 704 868 l 716 868 l 719 852 l 719 842 l 716 807 l 719 804 l 716 788 l 716 774 l 722 768 q 739 801 722 790 l 745 794 q 701 626 719 719 q 638 306 671 425 q 561 74 638 237 q 548 47 556 74 q 479 -18 500 -5 q 432 -75 455 -37 l 429 -75 l 422 -69 l 422 -39 l 419 -39 l 416 -43 l 412 -43 q 370 -10 381 -31 l 367 -10 q 351 -72 359 -72 l 348 -72 q 315 165 331 -72 q 248 681 289 317 q 237 736 237 703 l 245 743 l 254 697 l 260 697 l 260 765 q 286 897 260 882 m 755 845 l 761 837 l 761 771 l 765 762 l 761 745 l 761 649 q 693 290 742 477 q 688 264 688 290 q 587 -5 635 85 q 503 -75 543 -75 l 492 -78 q 467 -65 475 -78 l 467 -62 l 490 -65 q 616 87 564 -65 q 693 338 658 180 q 752 688 752 576 l 752 794 l 748 842 l 752 845 l 755 845 m 701 768 l 701 755 l 680 654 l 680 639 q 703 720 703 677 l 701 723 l 701 726 l 706 755 l 706 768 l 701 768 m 674 621 q 479 74 606 282 l 484 71 l 487 71 q 616 351 543 111 q 680 616 665 519 l 680 621 l 674 621 m 616 297 l 616 290 l 619 290 l 623 306 q 616 297 616 306 m 612 287 l 612 280 l 616 280 l 616 287 l 612 287 m 604 229 q 487 12 604 197 l 490 9 l 497 9 q 610 225 566 71 l 610 229 l 604 229 m 351 96 l 351 90 q 386 22 364 37 l 396 22 l 396 25 q 357 83 396 37 q 351 96 357 96 m 332 81 q 348 -46 341 -26 l 351 -46 l 354 -13 l 354 22 l 338 81 l 332 81 m 471 47 l 471 41 l 477 47 l 471 47 m 419 -5 l 419 -20 l 422 -20 l 435 -18 l 445 -20 q 477 16 461 -15 l 477 18 l 474 18 q 419 -5 457 5 m 377 16 l 374 5 q 396 -20 379 -9 l 399 -18 l 399 -5 q 377 16 391 9 z "},"V":{"ha":926,"x_min":93,"x_max":833,"o":"m 172 965 l 181 965 l 206 837 l 221 840 q 352 581 279 746 l 355 572 l 361 572 l 361 574 q 245 831 297 740 l 245 834 l 251 840 q 315 715 259 839 q 395 514 358 618 l 391 511 q 477 279 402 511 q 504 200 504 215 q 556 294 515 200 q 688 639 620 452 q 748 770 743 769 l 751 770 l 751 767 q 572 300 694 632 q 690 551 612 361 q 797 827 797 795 l 794 831 l 788 831 q 754 776 766 783 l 751 776 q 797 852 772 829 l 800 852 l 806 846 l 806 831 q 693 532 806 790 q 651 429 651 440 l 770 648 q 819 767 819 720 q 824 794 823 767 l 821 825 l 824 827 l 827 827 l 833 822 l 824 727 l 827 691 q 587 106 804 615 q 572 50 578 87 q 587 20 579 50 l 587 18 l 581 11 q 544 84 561 38 l 538 84 q 526 60 538 71 l 526 57 l 535 14 l 526 1 q 484 111 507 1 q 404 315 450 213 l 398 315 l 398 310 q 410 267 407 301 q 519 -28 468 81 l 538 -47 l 538 -50 l 532 -56 q 504 -38 522 -45 q 425 115 488 8 q 251 480 251 464 q 138 733 224 528 l 93 864 l 96 867 l 96 871 l 93 888 l 93 901 l 99 907 l 102 907 l 105 903 l 108 903 l 99 888 q 221 566 99 850 l 386 215 q 391 197 391 215 l 401 193 l 401 200 l 379 258 q 312 431 370 263 q 231 687 248 608 l 181 843 q 191 855 191 843 l 172 965 m 221 798 l 221 791 q 379 416 287 601 q 410 352 410 361 l 416 352 q 361 523 416 374 q 221 798 257 749 m 251 648 l 251 642 l 258 642 l 251 648 m 258 635 l 258 633 l 328 414 l 373 294 q 428 176 410 201 l 428 178 q 309 529 349 444 q 258 635 263 633 m 651 361 q 760 587 707 452 q 669 407 748 587 q 651 361 651 371 m 364 566 l 364 559 l 367 559 l 367 566 l 364 566 m 696 407 q 566 163 644 297 l 544 111 l 544 109 l 556 75 l 562 75 l 703 404 l 703 407 l 696 407 m 428 361 l 428 352 l 431 352 l 431 361 l 428 361 m 568 258 l 568 254 l 574 249 q 593 286 574 258 q 611 322 593 294 l 627 361 q 574 264 616 351 l 568 258 m 391 337 l 391 331 l 395 331 l 395 337 l 391 337 m 391 325 l 391 322 l 398 322 l 398 325 l 391 325 m 437 325 l 437 322 l 440 310 l 447 310 l 447 313 l 437 325 m 416 315 l 416 310 q 422 300 422 310 l 419 291 l 437 270 l 440 270 l 440 276 l 419 315 l 416 315 m 559 224 l 559 222 l 562 222 l 572 246 q 559 224 564 246 m 513 170 l 516 166 l 519 166 q 550 230 527 174 l 550 237 q 513 170 539 233 m 550 184 l 550 178 l 553 178 l 553 184 l 550 184 m 407 182 l 407 172 l 410 172 l 410 182 l 407 182 m 538 157 l 538 151 q 550 176 544 151 l 538 157 z "},"W":{"ha":1311,"x_min":179,"x_max":1131,"o":"m 1074 861 l 1076 858 l 1076 854 l 953 605 l 890 478 q 826 343 826 358 l 826 332 l 832 326 l 838 326 q 987 650 921 517 q 1088 809 1028 734 q 1120 846 1104 809 l 1122 846 q 1131 835 1131 846 q 1082 671 1131 810 l 1019 515 q 1076 628 1031 525 l 1099 650 l 1105 645 l 1105 633 q 895 165 1085 490 l 895 159 l 944 -14 l 944 -19 l 939 -25 q 909 81 932 -25 q 890 142 905 83 l 886 142 l 872 125 l 872 113 l 875 98 l 867 93 q 861 102 861 93 l 855 102 q 829 64 855 91 q 814 93 823 64 q 803 70 809 93 q 818 12 810 64 l 809 7 l 758 159 l 754 159 l 746 156 l 743 159 l 743 162 l 746 197 l 640 518 l 636 522 l 633 522 q 515 245 599 419 q 587 56 550 113 l 582 50 q 510 225 558 68 l 501 225 q 481 193 496 193 l 478 193 q 515 113 478 185 l 536 44 l 536 30 l 530 30 q 467 170 509 64 l 458 170 l 447 144 q 507 15 507 39 l 504 12 l 498 12 q 441 130 471 43 q 427 162 427 130 q 211 648 317 378 l 197 668 l 199 680 l 179 768 l 182 772 l 188 772 l 208 754 l 211 757 l 211 760 l 197 821 q 222 858 197 858 q 260 838 222 852 q 294 794 260 832 q 317 760 294 779 l 340 714 l 352 688 l 349 685 q 427 501 375 657 q 467 378 467 398 l 473 378 q 536 507 477 378 l 599 642 q 582 722 582 705 l 585 726 l 587 726 q 610 671 593 725 l 614 671 l 625 688 q 602 780 616 688 l 602 783 l 605 786 l 610 786 q 642 677 629 677 l 651 680 l 654 677 l 645 654 l 648 654 q 663 685 663 667 l 631 803 l 631 806 l 636 812 q 671 708 644 812 l 674 705 l 677 705 q 688 722 683 722 l 694 717 l 694 714 q 688 682 694 694 l 766 484 q 814 363 803 406 l 823 363 l 984 688 l 1025 766 q 1074 861 1063 852 m 211 838 q 420 302 211 764 q 432 288 427 290 l 435 288 q 464 351 435 297 l 464 360 q 363 645 401 559 l 309 751 q 231 838 250 838 l 225 844 l 216 844 l 211 838 m 855 269 q 869 237 855 247 q 993 484 881 245 q 1090 726 1026 549 q 1117 814 1117 796 l 1114 814 q 1088 745 1105 812 q 855 274 963 458 l 855 269 m 1079 789 q 858 346 989 654 l 840 306 l 840 294 l 844 294 q 1085 786 929 411 l 1085 789 l 1079 789 m 193 749 l 193 743 q 262 576 213 661 l 277 545 l 277 536 l 269 536 l 269 527 l 274 513 l 280 513 l 274 533 l 277 536 l 280 536 q 288 515 288 536 q 320 450 320 469 q 363 349 328 447 q 404 242 404 256 l 412 242 l 418 271 q 228 691 309 504 q 193 749 210 736 m 665 665 l 651 628 l 654 625 l 656 625 q 671 662 663 625 l 668 665 l 665 665 m 625 659 l 625 654 l 628 654 l 628 659 l 625 659 m 631 645 l 625 633 l 625 616 l 633 616 l 636 631 l 636 645 l 631 645 m 663 605 l 688 524 q 760 297 714 457 q 768 269 768 287 l 772 265 l 774 265 l 789 297 l 680 636 l 677 636 q 663 605 663 623 m 881 197 q 890 176 884 176 q 1004 386 929 236 q 1097 628 1070 517 l 1094 628 q 958 351 1049 559 l 881 197 m 636 605 l 636 582 l 640 582 q 648 605 648 584 l 648 613 l 645 613 l 636 605 m 538 438 l 545 438 l 616 585 l 614 605 l 610 605 q 538 438 570 542 m 648 576 l 648 559 q 737 320 669 480 l 740 306 l 746 306 l 746 323 l 680 522 q 654 582 659 578 l 648 576 m 619 567 l 550 429 q 496 302 515 373 l 496 300 l 498 286 l 501 286 q 628 547 527 319 l 628 550 q 619 567 628 565 m 734 524 l 737 515 l 740 515 l 740 524 l 734 524 m 740 513 l 800 334 l 809 334 l 812 343 l 763 469 l 746 513 l 740 513 m 1004 487 l 1010 487 l 1016 507 l 1016 510 q 1004 487 1010 510 m 280 504 l 280 501 l 337 369 l 360 326 l 360 329 l 297 484 q 283 504 290 503 l 280 504 m 533 484 l 510 432 l 481 366 l 481 346 q 538 484 490 346 l 533 484 m 993 464 l 990 455 l 990 452 l 993 452 l 999 464 l 993 464 m 981 441 l 976 429 l 979 427 l 981 427 l 984 438 l 984 441 l 981 441 m 964 409 l 962 395 l 962 392 l 964 392 l 970 404 l 970 409 l 964 409 m 956 383 l 924 320 l 927 317 l 930 317 l 958 380 l 958 383 l 956 383 m 467 340 q 441 288 460 318 l 441 286 l 444 286 q 475 329 463 299 l 467 340 m 812 320 l 812 309 q 821 291 814 291 l 823 306 l 823 320 l 818 326 l 812 320 m 898 265 l 898 262 q 918 302 910 262 q 898 265 898 277 m 737 291 l 737 283 l 740 283 l 740 291 l 737 291 m 826 286 l 823 271 l 826 269 l 829 269 l 832 271 l 832 286 l 826 286 m 444 265 l 444 260 l 450 254 l 452 254 l 458 279 l 444 265 m 484 279 l 461 228 l 464 219 l 470 219 l 481 242 l 492 274 l 484 279 m 740 279 l 740 277 q 758 231 751 231 q 763 239 763 231 q 746 279 751 256 l 740 279 m 791 277 l 780 248 l 780 237 l 786 231 l 800 257 l 798 277 l 791 277 m 890 257 l 890 248 l 892 248 l 898 254 l 898 260 l 890 257 m 838 257 l 835 242 q 849 202 840 202 l 858 211 l 858 216 l 846 257 l 838 257 m 492 248 l 492 242 l 496 242 l 496 248 l 492 248 m 415 225 q 441 170 427 182 q 452 197 452 186 q 438 208 452 204 q 429 242 438 242 l 415 225 m 875 219 l 875 216 l 881 216 l 886 237 l 884 237 q 875 219 875 234 m 766 216 l 766 211 l 772 205 l 772 216 l 766 216 m 812 214 l 798 197 q 821 142 798 176 l 826 151 l 826 170 q 812 214 817 214 m 861 199 l 855 188 l 861 182 l 863 197 l 863 199 l 861 199 m 774 193 l 774 191 q 803 130 774 168 l 803 136 q 777 193 785 187 l 774 193 m 869 182 l 861 165 l 861 147 l 869 139 q 881 168 881 155 q 869 182 878 181 m 844 139 l 840 125 l 840 104 l 849 104 l 852 119 l 852 125 l 849 139 l 844 139 m 791 113 l 798 107 l 798 113 l 791 113 z "},"X":{"ha":926,"x_min":136,"x_max":790,"o":"m 248 884 l 253 884 q 264 865 258 884 q 283 833 275 865 l 286 822 l 288 819 l 291 819 l 299 825 l 329 738 l 418 624 q 443 589 443 595 l 448 589 l 448 594 q 367 757 448 603 q 304 844 346 810 l 313 852 q 345 814 338 831 q 367 776 359 802 l 378 757 q 386 738 381 757 q 413 686 393 738 q 462 589 422 677 l 465 589 q 541 692 473 594 q 687 822 634 798 l 692 817 q 630 770 640 783 q 511 635 545 692 q 473 578 492 614 l 473 567 q 508 510 495 522 q 600 648 514 513 l 684 776 l 717 814 l 720 811 l 720 808 l 646 708 l 635 684 q 733 754 699 741 l 760 792 l 763 792 l 763 789 q 741 754 763 777 q 720 711 741 724 l 532 467 q 592 369 567 404 l 671 214 q 768 95 677 192 q 790 57 790 70 l 790 54 l 787 54 q 711 144 767 86 l 709 144 l 709 141 l 747 38 l 752 33 l 752 24 l 747 19 l 711 57 l 709 57 q 703 43 709 43 l 701 43 l 644 133 l 595 195 q 581 217 591 195 l 576 217 l 576 214 l 641 79 l 641 73 l 633 73 q 600 130 601 113 l 592 125 l 587 125 q 554 168 567 136 l 554 171 l 562 171 l 578 138 l 584 138 l 584 146 q 532 258 584 170 q 443 347 495 274 l 432 336 q 462 279 442 307 q 481 241 481 250 l 478 241 q 437 304 468 243 l 424 323 q 370 255 419 323 q 342 201 366 254 q 215 35 321 179 l 185 0 l 180 5 l 180 8 q 193 35 180 17 l 188 54 q 231 127 224 92 q 275 206 252 178 l 277 206 l 277 195 l 253 155 l 253 149 q 405 353 344 261 q 378 415 405 362 l 375 415 q 296 285 367 413 l 215 152 l 218 149 l 220 149 l 237 171 l 242 171 l 242 168 q 161 54 220 131 q 142 33 156 42 l 136 38 l 136 43 q 253 231 172 93 l 367 426 l 367 437 q 310 562 335 493 q 199 765 260 681 l 204 770 q 253 694 228 753 l 258 694 l 258 703 q 239 746 258 718 l 242 749 l 250 751 q 258 768 250 768 l 261 768 q 378 534 281 753 q 402 488 389 501 q 416 515 416 504 q 277 781 307 752 l 277 784 l 283 800 q 248 884 248 857 m 258 743 l 275 716 l 280 716 l 280 719 q 267 749 272 749 l 264 749 l 258 743 m 516 491 l 519 483 l 524 483 q 711 727 637 621 l 711 730 l 703 730 q 551 548 601 643 l 516 491 m 269 705 q 380 477 269 663 l 378 475 l 375 475 q 340 529 360 489 l 334 529 l 334 521 l 372 448 l 375 445 l 383 453 l 383 458 l 378 467 l 386 477 q 272 705 342 591 l 269 705 m 356 684 l 356 681 q 424 543 378 627 l 432 534 l 448 559 l 448 567 l 410 621 q 389 648 405 621 l 359 684 l 356 684 m 437 526 l 470 461 l 475 461 q 494 486 480 462 l 494 488 q 459 553 494 507 q 437 526 454 553 m 416 496 l 408 472 l 408 469 l 437 412 l 443 412 q 456 437 456 419 q 427 496 449 438 l 416 496 m 484 439 l 489 439 l 508 461 l 508 475 l 505 475 q 484 439 499 475 m 459 450 l 459 442 l 462 442 l 462 450 l 459 450 m 513 445 l 500 423 q 606 279 500 405 l 608 279 q 576 350 594 301 q 549 393 567 354 l 527 437 q 513 445 520 445 m 383 442 l 383 429 q 410 372 383 420 l 410 369 l 413 369 l 427 382 l 394 442 l 383 442 m 459 410 l 454 401 l 454 399 l 459 399 l 465 404 l 459 410 m 484 401 l 484 393 q 565 250 534 290 l 565 247 l 562 244 l 562 241 q 606 193 578 241 q 619 171 619 185 l 625 171 q 549 307 607 216 l 489 401 l 484 401 m 473 391 l 467 374 l 467 372 l 508 309 l 513 309 l 513 315 l 481 382 l 473 391 m 565 385 l 587 345 q 625 274 590 328 q 633 258 625 258 l 638 258 l 638 263 q 573 385 616 294 l 565 385 m 456 353 l 456 350 q 503 290 456 339 l 503 293 q 456 353 464 351 m 557 315 l 557 307 l 562 307 l 562 309 l 557 315 m 568 296 l 568 290 l 570 290 l 570 296 l 568 296 m 600 255 l 600 252 q 711 73 681 92 q 730 57 711 62 q 671 157 723 86 l 622 233 l 603 255 l 600 255 m 481 239 l 486 239 q 538 146 534 166 l 535 144 l 532 144 q 481 239 481 230 m 568 231 l 568 228 l 573 222 l 573 231 l 568 231 z "},"Y":{"ha":926,"x_min":131,"x_max":795,"o":"m 196 985 l 239 933 l 248 941 l 250 941 q 310 873 275 928 l 307 871 l 307 868 q 364 800 320 868 q 391 762 370 798 l 413 735 l 413 730 l 408 730 q 353 800 398 736 q 258 922 264 922 l 256 922 l 256 920 q 296 854 282 854 q 318 817 296 846 q 370 738 370 745 q 389 711 389 722 l 380 703 q 399 678 391 682 l 399 684 q 389 697 394 684 l 389 700 l 394 705 l 427 662 l 448 629 q 467 648 459 631 l 467 651 q 451 678 453 665 q 413 724 413 706 l 413 730 l 416 730 q 481 662 469 662 q 679 920 524 732 l 684 914 q 752 952 736 952 l 755 949 l 755 947 l 709 922 q 587 760 636 852 l 500 637 q 519 621 505 621 l 519 624 q 597 730 552 652 q 652 784 646 784 l 654 784 l 671 779 l 671 776 q 720 827 676 776 l 790 898 q 795 890 795 898 q 703 789 784 871 q 644 689 673 762 q 541 564 633 657 q 519 537 519 554 l 519 529 q 535 502 535 529 l 532 467 l 532 461 l 535 461 l 532 442 l 532 247 l 538 206 l 535 206 q 524 247 524 206 l 524 361 l 522 361 q 484 49 500 123 l 481 46 l 478 46 l 473 52 l 500 255 l 497 258 q 511 439 511 372 l 508 453 l 500 453 q 475 239 484 254 l 478 236 q 467 111 467 168 q 443 57 451 111 q 424 0 439 57 l 421 0 l 416 5 l 416 11 q 435 263 435 134 l 435 269 l 432 285 l 435 288 l 432 301 l 432 326 q 416 540 424 540 l 413 540 l 399 537 l 397 540 l 397 562 q 323 640 378 567 q 229 770 271 706 l 231 773 l 231 776 q 212 789 214 781 l 215 792 l 218 792 q 210 803 214 803 l 207 800 l 204 800 l 196 814 l 199 822 l 196 822 l 185 819 q 163 849 176 846 l 131 898 l 131 903 l 136 909 l 139 909 q 182 852 182 859 l 188 857 q 147 977 147 947 l 155 982 q 182 949 182 960 l 177 949 q 166 960 166 952 l 163 960 l 158 955 q 201 884 182 884 l 261 784 q 334 692 323 698 l 337 692 l 337 694 q 210 909 270 791 l 182 939 l 182 949 l 185 949 l 193 947 l 193 949 l 185 982 l 188 985 l 196 985 m 210 944 l 210 939 q 261 857 210 926 l 264 849 l 269 849 l 269 857 q 256 884 263 857 q 223 933 236 922 q 210 944 223 944 m 199 857 l 199 852 l 226 817 l 226 822 q 207 857 216 833 l 199 857 m 296 822 l 296 819 l 313 800 l 313 808 q 302 827 302 808 l 296 822 m 267 825 q 367 670 304 758 l 370 662 l 367 659 q 394 637 379 659 q 424 594 424 601 l 427 594 q 432 602 432 594 q 405 640 420 627 l 275 825 l 267 825 m 315 798 l 315 792 q 378 708 352 733 l 378 713 q 345 768 349 750 q 321 795 337 768 l 318 798 l 315 798 m 578 784 l 489 662 l 489 656 l 494 656 l 538 716 q 581 781 581 775 l 581 784 l 578 784 m 578 686 l 578 684 l 581 684 q 663 770 663 759 l 660 773 l 654 773 q 578 686 641 773 m 261 751 l 261 749 q 318 670 274 725 l 321 670 q 264 751 319 688 l 261 751 m 546 594 l 546 591 l 554 591 q 646 713 629 670 l 646 719 l 644 719 l 546 594 m 535 602 l 538 602 l 600 678 l 600 684 l 597 684 q 535 602 535 629 m 405 673 l 405 667 l 410 667 l 405 673 m 323 665 l 323 662 l 329 662 l 329 665 l 323 665 m 370 629 l 370 621 l 372 621 l 372 629 l 370 629 m 489 624 q 478 600 478 610 l 484 594 l 503 610 l 503 616 q 489 624 503 622 m 524 618 l 524 613 l 530 613 l 530 618 l 524 618 m 383 610 l 383 608 l 389 602 l 389 605 l 383 610 m 489 583 q 503 570 491 576 q 516 594 504 594 l 516 602 l 508 602 l 489 583 m 410 583 l 410 575 l 416 575 l 416 583 l 410 583 m 475 570 l 475 567 l 484 545 l 494 545 l 497 553 l 478 570 l 475 570 m 454 548 l 454 532 l 456 532 l 462 537 l 462 540 l 454 548 m 473 529 l 473 526 q 481 510 475 510 l 484 510 l 484 521 q 473 529 484 525 m 437 513 l 435 510 l 435 507 l 446 369 l 443 369 l 446 366 l 446 363 l 454 255 l 459 260 l 459 350 l 454 372 l 454 380 l 462 491 l 437 513 m 492 502 l 492 499 l 497 499 l 497 502 l 492 502 m 505 496 l 503 494 l 503 488 l 511 480 l 513 483 l 513 486 q 505 496 509 496 m 481 469 q 467 399 467 426 l 467 258 q 492 439 475 258 l 492 461 l 481 469 m 454 247 l 456 244 l 456 241 l 454 225 l 459 225 l 459 250 l 456 247 l 454 247 m 446 214 l 435 100 l 437 98 l 435 84 l 435 76 l 437 76 q 451 165 451 119 l 451 174 l 448 214 l 446 214 z "},"Z":{"ha":848,"x_min":74,"x_max":774,"o":"m 413 768 l 416 768 l 440 760 l 440 757 l 584 765 l 587 762 l 589 762 l 614 765 l 622 765 l 646 762 l 671 768 l 673 765 l 673 760 q 589 738 673 747 l 589 732 l 611 730 l 646 732 l 646 730 l 663 738 l 682 727 l 682 724 q 660 713 682 718 q 652 708 660 708 l 649 705 l 649 700 l 663 697 l 676 697 l 695 700 l 701 692 q 660 646 684 679 q 519 491 587 559 l 424 399 l 503 342 l 494 334 q 408 372 429 353 l 402 372 q 342 317 387 372 l 345 307 q 286 182 330 254 l 286 179 l 288 176 l 294 176 q 394 187 353 187 l 397 187 l 606 228 l 611 214 l 690 222 l 692 220 l 692 212 q 652 195 692 203 l 641 198 q 570 179 621 184 l 568 182 q 484 157 555 173 l 484 160 q 264 111 264 124 l 264 109 l 332 114 l 332 111 l 370 119 l 380 117 q 543 138 380 123 l 546 138 l 614 152 l 627 149 q 644 157 630 157 l 654 155 q 698 163 661 160 l 709 160 l 714 165 l 739 165 l 741 155 l 616 125 l 611 125 l 611 117 l 771 136 l 774 133 l 774 125 q 747 117 774 119 l 749 98 q 698 84 725 84 q 682 76 695 76 l 682 79 l 665 73 l 660 79 q 714 92 660 83 q 736 103 714 96 l 736 111 q 481 76 481 85 l 467 79 l 459 76 l 448 79 l 440 79 l 432 73 l 429 73 l 370 68 l 361 71 q 291 60 356 65 l 283 62 l 258 57 q 248 71 256 71 q 139 30 174 71 l 117 14 l 112 14 l 109 16 l 106 16 q 82 0 106 3 l 74 11 l 74 19 q 112 79 91 52 l 115 81 l 115 84 q 90 92 90 87 l 90 98 q 128 106 90 106 q 144 117 134 117 l 144 127 q 134 138 134 127 l 101 136 l 96 136 l 90 141 q 144 157 90 152 q 250 296 175 182 l 334 412 q 296 445 332 424 q 256 480 273 473 l 242 480 l 231 472 l 229 475 l 229 477 q 242 488 234 488 l 242 499 l 212 526 l 223 534 l 323 475 l 321 472 l 321 469 q 359 448 346 448 q 494 640 469 593 l 494 643 l 489 648 l 348 648 l 310 646 l 307 648 l 304 648 l 275 646 l 245 646 l 234 648 l 223 646 l 201 646 l 188 654 l 166 651 l 163 654 l 163 659 q 296 686 163 670 l 391 705 l 405 705 l 405 711 l 345 711 l 334 708 l 332 711 l 329 711 l 313 708 l 299 711 l 277 708 l 272 708 l 272 711 l 258 708 l 239 708 l 237 711 l 234 708 l 229 708 l 220 716 l 229 724 l 340 724 l 364 727 l 372 724 q 587 749 465 724 l 603 746 l 606 749 l 606 754 l 584 757 l 565 754 l 557 757 l 541 751 l 378 743 l 364 746 l 361 743 l 359 743 l 348 746 l 304 743 l 269 743 l 269 751 l 277 760 l 394 765 l 408 762 l 413 768 m 603 713 l 600 703 l 608 697 l 625 697 q 646 713 640 697 l 644 716 l 641 716 l 603 713 m 486 705 l 484 708 l 481 708 l 405 700 l 405 694 l 437 692 l 503 694 l 530 692 l 541 694 l 543 692 l 546 692 q 589 713 571 692 l 584 713 q 486 705 534 713 m 353 678 l 351 681 q 342 675 351 675 l 253 667 l 253 662 l 275 662 q 418 667 375 662 l 427 665 q 511 675 433 669 l 513 678 l 516 678 l 516 684 l 513 684 l 484 686 l 475 684 l 473 686 q 353 678 450 681 m 530 686 l 527 684 l 527 678 l 532 678 l 532 675 l 541 678 l 541 684 l 530 686 m 576 678 l 581 678 l 581 684 l 576 678 m 622 665 l 627 659 l 644 659 l 644 656 q 606 646 644 648 q 413 410 606 640 l 413 407 l 416 407 q 641 637 565 541 l 671 675 l 671 681 l 649 681 q 622 665 633 681 m 576 670 l 576 673 l 557 667 l 557 665 l 562 659 l 595 659 l 614 665 l 614 675 l 597 673 l 595 675 l 592 675 l 576 670 m 386 431 q 397 415 391 415 l 410 415 q 543 578 410 425 l 595 646 l 592 648 l 559 648 q 424 494 508 648 l 386 431 m 258 502 l 258 499 l 264 494 l 267 494 l 267 502 l 258 502 m 294 472 l 291 464 q 315 439 296 464 q 340 426 326 439 l 348 429 l 348 442 q 294 472 336 442 m 372 412 l 372 401 l 383 396 l 391 396 l 389 415 l 386 415 l 372 412 m 332 385 l 337 385 l 337 391 l 332 385 m 196 168 l 201 168 q 302 296 217 177 q 359 358 326 328 l 378 382 l 378 388 l 364 391 l 361 391 l 196 168 m 410 388 l 410 382 l 443 361 l 448 361 l 448 363 q 418 388 437 379 l 410 388 m 326 382 l 323 372 l 332 380 l 332 382 l 326 382 m 294 334 l 288 323 l 294 323 l 296 331 l 296 334 l 294 334 m 277 312 l 277 307 l 283 312 l 277 312 m 248 179 l 248 176 l 253 171 l 256 171 q 291 212 283 185 q 310 241 304 241 l 310 250 q 269 209 269 222 l 248 179 m 256 217 l 258 217 l 264 222 l 264 228 l 256 217 m 226 171 q 256 209 235 174 l 256 212 l 253 212 q 223 171 223 182 l 226 171 m 318 146 l 318 141 l 332 138 q 508 174 332 148 l 549 184 l 557 182 q 584 187 557 187 q 616 195 584 195 q 603 201 616 201 l 603 203 q 318 146 394 174 m 256 141 l 256 136 q 302 155 276 136 l 302 157 l 296 157 l 296 160 q 256 141 256 150 m 210 130 l 210 125 l 215 125 l 215 122 q 242 144 230 122 l 242 149 l 237 149 q 212 130 225 149 l 210 130 m 188 122 l 191 122 l 210 141 l 210 146 l 207 146 q 188 122 188 137 m 153 117 l 153 114 l 158 114 l 158 111 q 182 136 172 115 l 182 144 l 177 144 l 153 117 m 606 141 l 606 136 l 614 136 l 619 141 l 606 141 m 551 130 l 549 133 l 546 133 l 486 119 l 470 122 q 454 114 454 119 l 446 117 l 269 98 l 239 100 q 223 95 239 95 l 210 90 l 207 87 l 207 81 l 408 103 l 408 100 q 503 114 418 106 l 508 119 l 522 117 l 524 117 l 592 130 l 595 127 l 597 130 l 597 136 l 595 136 q 551 130 563 136 m 587 119 l 587 117 l 595 117 l 595 119 l 587 119 m 174 87 l 142 90 q 85 19 121 87 l 90 14 q 174 79 135 33 q 191 90 185 79 l 191 92 l 174 87 z "},"[":{"ha":386,"x_min":0,"x_max":0,"o":""},"\\":{"ha":386,"x_min":0,"x_max":0,"o":""},"]":{"ha":386,"x_min":0,"x_max":0,"o":""},"^":{"ha":652,"x_min":0,"x_max":0,"o":""},"_":{"ha":772,"x_min":0,"x_max":0,"o":""},"`":{"ha":463,"x_min":0,"x_max":0,"o":""},"{":{"ha":464,"x_min":0,"x_max":0,"o":""},"|":{"ha":361,"x_min":0,"x_max":0,"o":""},"}":{"ha":464,"x_min":0,"x_max":0,"o":""},"~":{"ha":811,"x_min":0,"x_max":0,"o":""},"Ä":{"ha":926,"x_min":0,"x_max":0,"o":""},"Å":{"ha":926,"x_min":0,"x_max":0,"o":""},"Ç":{"ha":1003,"x_min":0,"x_max":0,"o":""},"É":{"ha":926,"x_min":0,"x_max":0,"o":""},"Ñ":{"ha":1003,"x_min":0,"x_max":0,"o":""},"Ö":{"ha":1080,"x_min":0,"x_max":0,"o":""},"Ü":{"ha":1003,"x_min":0,"x_max":0,"o":""},"á":{"ha":772,"x_min":0,"x_max":0,"o":""},"à":{"ha":772,"x_min":0,"x_max":0,"o":""},"â":{"ha":772,"x_min":0,"x_max":0,"o":""},"ä":{"ha":772,"x_min":0,"x_max":0,"o":""},"ã":{"ha":772,"x_min":0,"x_max":0,"o":""},"å":{"ha":772,"x_min":0,"x_max":0,"o":""},"ç":{"ha":694,"x_min":0,"x_max":0,"o":""},"é":{"ha":772,"x_min":0,"x_max":0,"o":""},"è":{"ha":772,"x_min":0,"x_max":0,"o":""},"ê":{"ha":772,"x_min":0,"x_max":0,"o":""},"ë":{"ha":772,"x_min":0,"x_max":0,"o":""},"í":{"ha":386,"x_min":0,"x_max":0,"o":""},"ì":{"ha":386,"x_min":0,"x_max":0,"o":""},"î":{"ha":386,"x_min":0,"x_max":0,"o":""},"ï":{"ha":386,"x_min":0,"x_max":0,"o":""},"ñ":{"ha":772,"x_min":0,"x_max":0,"o":""},"ó":{"ha":772,"x_min":0,"x_max":0,"o":""},"ò":{"ha":772,"x_min":0,"x_max":0,"o":""},"ô":{"ha":772,"x_min":0,"x_max":0,"o":""},"ö":{"ha":772,"x_min":0,"x_max":0,"o":""},"õ":{"ha":772,"x_min":0,"x_max":0,"o":""},"ú":{"ha":772,"x_min":0,"x_max":0,"o":""},"ù":{"ha":772,"x_min":0,"x_max":0,"o":""},"û":{"ha":772,"x_min":0,"x_max":0,"o":""},"ü":{"ha":772,"x_min":0,"x_max":0,"o":""},"†":{"ha":772,"x_min":0,"x_max":0,"o":""},"°":{"ha":555,"x_min":0,"x_max":0,"o":""},"¢":{"ha":772,"x_min":0,"x_max":0,"o":""},"£":{"ha":772,"x_min":0,"x_max":0,"o":""},"§":{"ha":772,"x_min":0,"x_max":0,"o":""},"•":{"ha":486,"x_min":0,"x_max":0,"o":""},"¶":{"ha":746,"x_min":0,"x_max":0,"o":""},"ß":{"ha":848,"x_min":0,"x_max":0,"o":""},"®":{"ha":1023,"x_min":0,"x_max":0,"o":""},"©":{"ha":1023,"x_min":0,"x_max":0,"o":""},"™":{"ha":1389,"x_min":0,"x_max":0,"o":""},"´":{"ha":463,"x_min":0,"x_max":0,"o":""},"¨":{"ha":463,"x_min":0,"x_max":0,"o":""},"Æ":{"ha":1389,"x_min":0,"x_max":0,"o":""},"Ø":{"ha":1080,"x_min":0,"x_max":0,"o":""},"±":{"ha":762,"x_min":0,"x_max":0,"o":""},"¥":{"ha":772,"x_min":0,"x_max":0,"o":""},"µ":{"ha":800,"x_min":0,"x_max":0,"o":""},"ª":{"ha":514,"x_min":0,"x_max":0,"o":""},"º":{"ha":507,"x_min":0,"x_max":0,"o":""},"æ":{"ha":1235,"x_min":0,"x_max":0,"o":""},"ø":{"ha":848,"x_min":0,"x_max":0,"o":""},"¿":{"ha":848,"x_min":0,"x_max":0,"o":""},"¡":{"ha":463,"x_min":0,"x_max":0,"o":""},"¬":{"ha":811,"x_min":0,"x_max":0,"o":""},"ƒ":{"ha":772,"x_min":0,"x_max":0,"o":""},"«":{"ha":772,"x_min":0,"x_max":0,"o":""},"»":{"ha":772,"x_min":0,"x_max":0,"o":""},"…":{"ha":1389,"x_min":0,"x_max":0,"o":""},"À":{"ha":926,"x_min":0,"x_max":0,"o":""},"Ã":{"ha":926,"x_min":0,"x_max":0,"o":""},"Õ":{"ha":1080,"x_min":0,"x_max":0,"o":""},"Œ":{"ha":1389,"x_min":0,"x_max":0,"o":""},"œ":{"ha":1311,"x_min":0,"x_max":0,"o":""},"–":{"ha":772,"x_min":0,"x_max":0,"o":""},"—":{"ha":1389,"x_min":0,"x_max":0,"o":""},"“":{"ha":463,"x_min":0,"x_max":0,"o":""},"”":{"ha":463,"x_min":0,"x_max":0,"o":""},"‘":{"ha":309,"x_min":0,"x_max":0,"o":""},"’":{"ha":309,"x_min":0,"x_max":0,"o":""},"÷":{"ha":762,"x_min":0,"x_max":0,"o":""},"ÿ":{"ha":694,"x_min":0,"x_max":0,"o":""},"Ÿ":{"ha":926,"x_min":0,"x_max":0,"o":""},"€":{"ha":772,"x_min":0,"x_max":0,"o":""},"‹":{"ha":463,"x_min":0,"x_max":0,"o":""},"›":{"ha":463,"x_min":0,"x_max":0,"o":""},"‡":{"ha":772,"x_min":0,"x_max":0,"o":""},"·":{"ha":386,"x_min":0,"x_max":0,"o":""},"‚":{"ha":309,"x_min":0,"x_max":0,"o":""},"„":{"ha":463,"x_min":0,"x_max":0,"o":""},"‰":{"ha":1389,"x_min":0,"x_max":0,"o":""},"Â":{"ha":926,"x_min":0,"x_max":0,"o":""},"Ê":{"ha":926,"x_min":0,"x_max":0,"o":""},"Á":{"ha":926,"x_min":0,"x_max":0,"o":""},"Ë":{"ha":926,"x_min":0,"x_max":0,"o":""},"È":{"ha":926,"x_min":0,"x_max":0,"o":""},"Í":{"ha":386,"x_min":0,"x_max":0,"o":""},"Î":{"ha":386,"x_min":0,"x_max":0,"o":""},"Ï":{"ha":386,"x_min":0,"x_max":0,"o":""},"Ì":{"ha":386,"x_min":0,"x_max":0,"o":""},"Ó":{"ha":1080,"x_min":0,"x_max":0,"o":""},"Ô":{"ha":1080,"x_min":0,"x_max":0,"o":""},"Ò":{"ha":1080,"x_min":0,"x_max":0,"o":""},"Ú":{"ha":1003,"x_min":0,"x_max":0,"o":""},"Û":{"ha":1003,"x_min":0,"x_max":0,"o":""},"Ù":{"ha":1003,"x_min":0,"x_max":0,"o":""},"ˆ":{"ha":463,"x_min":0,"x_max":0,"o":""},"˜":{"ha":463,"x_min":0,"x_max":0,"o":""},"¸":{"ha":463,"x_min":0,"x_max":0,"o":""},"Š":{"ha":926,"x_min":0,"x_max":0,"o":""},"š":{"ha":694,"x_min":0,"x_max":0,"o":""},"Ž":{"ha":848,"x_min":0,"x_max":0,"o":""},"ž":{"ha":694,"x_min":0,"x_max":0,"o":""},"¦":{"ha":361,"x_min":0,"x_max":0,"o":""},"Ð":{"ha":1003,"x_min":0,"x_max":0,"o":""},"ð":{"ha":772,"x_min":0,"x_max":0,"o":""},"Ý":{"ha":926,"x_min":0,"x_max":0,"o":""},"ý":{"ha":694,"x_min":0,"x_max":0,"o":""},"Þ":{"ha":926,"x_min":0,"x_max":0,"o":""},"þ":{"ha":772,"x_min":0,"x_max":0,"o":""},"×":{"ha":811,"x_min":0,"x_max":0,"o":""},"¹":{"ha":463,"x_min":0,"x_max":0,"o":""},"²":{"ha":463,"x_min":0,"x_max":0,"o":""},"³":{"ha":463,"x_min":0,"x_max":0,"o":""},"½":{"ha":1158,"x_min":0,"x_max":0,"o":""},"¼":{"ha":1158,"x_min":0,"x_max":0,"o":""},"¾":{"ha":1158,"x_min":0,"x_max":0,"o":""},"¤":{"ha":772,"x_min":0,"x_max":0,"o":""},"¯":{"ha":767,"x_min":0,"x_max":0,"o":""},"a":{"ha":741,"x_min":54,"x_max":688,"o":"m 471 883 l 477 883 l 500 779 l 500 777 l 505 777 l 505 774 l 518 779 l 520 777 l 520 772 l 509 762 l 509 749 q 538 644 514 745 l 583 490 l 583 488 l 590 488 q 522 836 522 758 q 516 879 519 836 l 518 881 l 525 881 l 527 870 l 525 868 q 585 536 542 716 q 607 481 598 481 q 614 477 614 481 l 614 471 q 607 467 614 467 l 607 465 q 661 295 614 427 q 688 232 681 256 l 683 228 q 637 330 677 228 q 590 454 618 364 q 579 463 585 463 l 566 456 q 640 123 592 355 l 637 104 l 644 76 l 642 58 l 644 43 l 642 15 l 642 7 l 635 0 q 627 13 627 4 l 625 13 l 618 9 q 587 102 603 45 l 585 102 l 585 100 l 603 0 l 596 -4 q 579 80 592 -1 q 496 447 496 422 l 488 452 l 330 438 l 327 438 q 297 378 322 438 q 210 197 218 199 l 205 202 l 229 275 q 197 217 214 261 q 156 123 160 149 l 160 123 l 162 126 l 164 126 l 167 123 l 167 119 l 160 113 l 153 113 l 147 117 q 86 -33 123 66 l 66 -87 l 69 -89 l 60 -139 l 56 -139 l 54 -130 q 106 39 58 -77 l 236 334 l 236 340 q 164 217 231 338 l 127 145 q 82 28 82 50 l 80 26 l 77 26 l 75 28 l 73 28 q 149 204 79 72 l 151 210 l 149 221 l 193 313 l 193 317 l 189 317 q 140 235 189 311 q 88 152 99 159 l 82 159 l 134 252 q 125 260 125 252 q 212 425 201 399 l 212 430 q 197 436 197 430 q 225 452 197 441 l 240 481 q 218 492 218 488 l 223 497 l 243 497 q 297 597 252 500 q 316 633 300 597 q 399 785 366 731 q 435 853 435 847 l 435 870 l 446 872 l 451 872 q 457 857 452 857 q 471 883 467 883 m 464 850 l 462 840 l 462 836 l 479 758 l 481 758 l 486 762 l 486 764 l 466 850 l 464 850 m 435 825 q 351 660 435 817 q 310 579 319 589 l 310 571 q 403 731 354 634 q 440 823 440 812 l 440 825 l 435 825 m 484 814 l 484 807 l 488 812 l 486 814 l 484 814 m 484 801 l 488 788 l 490 790 l 492 790 q 486 801 490 801 l 484 801 m 440 799 l 427 764 l 433 764 q 444 783 440 764 l 444 799 l 440 799 m 492 777 l 492 768 l 496 768 l 496 777 l 492 777 m 498 753 l 496 751 q 562 488 551 511 l 570 486 l 576 488 q 503 751 551 570 l 500 753 l 498 753 m 484 742 q 549 488 541 488 l 551 490 l 551 492 l 490 747 l 488 747 l 484 742 m 444 740 l 444 736 l 449 740 l 444 740 m 427 729 l 427 725 l 429 725 l 429 729 l 427 729 m 425 723 l 410 690 l 410 688 q 427 720 418 688 l 427 723 l 425 723 m 460 716 l 460 714 q 498 486 484 524 l 503 486 l 507 490 l 507 492 l 464 716 l 460 716 m 359 514 q 373 510 373 514 l 373 508 q 355 503 373 503 l 347 492 l 349 490 l 364 490 l 379 492 l 399 490 l 453 490 l 457 486 l 460 488 l 481 488 q 486 495 486 488 l 453 709 l 451 709 q 390 588 435 708 q 359 514 359 525 m 330 514 l 340 512 q 388 618 349 512 q 395 636 395 627 q 330 521 369 608 l 330 514 m 316 621 l 314 614 l 316 612 l 319 612 l 321 621 l 316 621 m 496 621 l 496 616 l 498 616 l 498 621 l 496 621 m 286 512 l 288 512 q 345 606 305 512 l 345 610 l 286 512 m 498 610 l 498 606 l 507 562 l 511 562 l 500 610 l 498 610 m 305 597 l 305 593 l 308 593 l 308 597 l 305 597 m 294 575 l 294 571 l 299 575 l 294 575 m 509 560 l 509 547 q 525 490 519 490 l 527 492 l 527 495 l 511 560 l 509 560 m 277 541 q 271 528 277 534 l 271 523 q 279 536 275 523 l 279 541 l 277 541 m 321 497 l 321 492 l 327 490 l 336 492 l 336 495 l 332 499 l 321 497 m 254 454 l 258 454 q 275 484 275 475 l 273 484 q 254 454 266 484 m 303 458 q 327 479 327 460 l 325 481 l 321 481 q 303 458 303 481 m 336 465 l 336 463 l 422 477 l 422 479 l 420 481 l 416 481 l 416 479 l 390 481 l 359 481 l 349 479 l 349 481 q 336 465 336 477 m 500 465 l 503 463 l 507 463 l 511 467 l 509 477 q 500 465 506 477 m 525 477 l 525 467 l 531 467 l 531 471 l 525 477 m 562 473 l 566 469 l 574 469 l 579 473 l 574 477 l 566 477 l 562 473 m 551 475 l 551 471 l 555 475 l 551 475 m 455 460 l 455 458 l 466 456 l 492 463 l 488 467 l 477 467 q 455 460 468 460 m 592 460 l 603 434 l 605 434 l 605 441 q 596 463 601 463 l 594 460 l 592 460 m 555 456 l 555 454 q 566 423 562 423 l 557 456 l 555 456 m 503 454 l 503 452 q 544 250 507 414 l 544 243 l 551 241 q 511 454 520 438 l 503 454 m 527 454 q 618 24 585 123 l 623 24 l 536 452 l 533 454 l 527 454 m 544 443 l 544 438 l 547 438 l 547 443 l 544 443 m 277 387 l 277 384 l 279 384 l 308 434 l 305 436 l 297 436 q 277 387 289 436 m 201 358 l 245 427 l 245 432 l 243 432 q 201 358 235 432 m 260 427 l 260 425 l 267 427 l 267 432 l 264 432 l 260 427 m 551 421 l 549 412 q 620 63 568 331 l 629 31 l 627 31 l 631 18 l 635 18 l 635 76 q 553 421 614 206 l 551 421 m 225 360 l 229 360 l 258 416 l 258 419 q 225 360 242 402 m 609 414 l 609 410 l 614 410 l 614 414 l 609 414 m 292 397 q 283 380 292 388 l 236 273 l 236 269 l 238 269 q 294 391 264 319 l 297 393 l 297 397 l 292 397 m 227 297 l 232 297 q 262 371 249 325 l 262 376 q 227 297 258 374 m 216 340 q 223 356 221 340 q 216 340 218 356 m 195 351 l 195 347 l 197 347 l 197 351 l 195 351 m 191 345 l 191 340 l 193 340 l 193 345 l 191 345 m 203 319 l 208 319 l 214 336 q 203 319 203 330 m 189 291 l 195 291 l 195 297 l 189 291 m 551 230 l 551 226 l 553 226 l 553 230 l 551 230 m 581 126 l 581 119 q 587 104 583 104 l 587 109 l 583 126 l 581 126 z "},"b":{"ha":741,"x_min":86,"x_max":731,"o":"m 201 888 q 208 870 208 888 q 221 864 213 864 l 262 864 l 275 868 l 288 864 l 325 864 q 368 859 368 863 l 377 861 q 609 829 586 850 l 605 825 l 592 829 l 587 829 l 562 812 l 562 807 l 564 807 q 670 829 640 807 l 685 831 q 696 827 685 827 l 699 825 l 699 823 q 663 807 696 818 q 631 781 633 791 q 538 729 578 757 q 379 644 388 644 q 353 629 379 639 l 353 623 l 362 621 q 488 629 418 629 l 490 629 l 642 627 l 655 625 q 701 682 655 634 l 705 682 l 709 677 l 701 662 l 703 649 l 674 621 l 674 618 l 709 623 l 726 623 l 731 618 q 696 610 731 612 q 683 604 694 604 l 659 604 q 640 577 640 587 l 642 577 q 663 568 663 574 l 663 564 l 659 560 q 652 568 654 560 l 648 568 l 570 471 l 570 469 l 572 469 l 657 551 l 659 551 l 663 547 q 583 467 663 541 l 496 365 q 384 226 431 280 l 297 115 l 294 61 l 292 58 l 288 58 l 281 63 l 279 37 l 279 28 l 281 2 l 279 2 q 273 15 273 4 l 275 89 q 240 43 258 75 l 238 45 q 232 39 232 45 l 195 0 l 191 4 l 191 11 l 218 50 l 218 52 l 212 61 l 214 96 l 214 100 l 210 100 q 138 43 150 46 l 134 47 l 134 50 q 178 109 134 66 l 195 134 l 189 134 q 182 126 189 126 l 180 126 l 173 132 q 214 184 214 178 l 214 197 q 208 566 214 405 l 164 551 l 162 551 l 158 555 l 205 584 l 208 586 l 205 588 l 205 601 q 173 579 198 601 l 153 571 l 153 577 q 167 588 160 588 l 167 595 l 164 595 q 127 573 136 573 l 125 575 l 125 579 q 205 627 137 590 l 205 629 l 201 694 l 203 703 l 201 731 l 205 731 l 205 738 l 203 736 l 201 736 l 199 738 l 199 740 l 201 764 l 199 770 l 145 772 l 145 774 l 147 783 l 130 783 l 127 785 l 125 783 l 121 783 l 117 788 l 121 794 l 136 792 q 199 803 195 792 l 199 805 l 197 825 l 199 831 q 173 842 199 842 l 171 844 l 171 846 l 164 844 l 86 850 l 86 855 l 93 861 l 156 853 l 156 855 l 151 861 l 151 864 l 158 870 l 167 864 l 193 864 q 197 886 197 864 l 199 888 l 201 888 m 167 855 l 169 848 l 184 850 l 195 850 l 195 853 l 191 857 l 171 857 l 169 855 l 167 855 m 216 857 l 212 850 q 269 844 212 846 l 271 846 l 271 850 l 267 855 l 251 855 l 232 857 l 218 855 l 216 857 m 283 857 l 281 855 l 281 848 l 288 842 l 316 842 q 332 838 332 842 l 340 840 l 435 838 l 479 838 l 503 840 l 511 838 l 525 840 q 498 846 525 845 l 496 844 l 494 844 l 477 848 l 468 846 l 464 850 l 462 848 l 446 850 l 433 850 l 431 853 l 429 850 l 416 850 l 399 855 l 373 855 l 353 853 l 345 857 l 330 855 l 288 855 l 286 857 l 283 857 m 212 833 q 227 801 212 801 q 271 810 271 801 l 271 831 l 264 838 l 236 838 q 221 842 221 838 q 212 833 214 840 m 283 833 l 283 812 l 290 805 l 355 810 l 355 807 l 357 810 l 422 810 l 451 807 l 475 810 l 490 810 l 492 807 l 494 810 l 507 810 l 538 807 q 572 827 566 818 l 572 829 l 516 829 l 514 831 l 511 829 l 505 829 l 496 831 l 481 829 l 464 829 l 440 831 l 429 829 l 427 831 l 427 833 l 414 829 l 401 829 l 388 831 l 381 829 q 368 833 368 831 l 357 831 l 349 831 l 336 833 l 334 831 l 323 833 l 283 833 m 203 818 l 203 803 l 208 803 l 208 814 l 203 818 m 516 801 l 475 803 l 468 803 l 460 801 l 453 803 l 431 801 l 412 803 l 399 801 l 386 803 l 381 803 l 381 801 l 366 803 l 349 803 l 325 799 l 301 801 q 286 792 290 799 l 288 785 l 342 788 l 345 785 l 347 785 l 359 790 l 451 792 l 457 796 l 468 794 l 520 796 l 525 803 l 525 805 l 516 801 m 227 788 l 227 783 l 238 781 q 271 788 271 781 l 271 794 l 267 799 q 236 794 262 794 l 234 792 q 227 788 227 792 m 564 764 l 570 764 l 635 796 l 635 799 l 633 799 q 566 768 607 791 l 564 766 l 564 764 m 544 794 q 509 783 544 791 l 477 766 l 477 764 l 479 762 l 479 760 q 557 788 501 772 l 557 792 l 544 794 m 151 781 l 153 779 l 184 779 l 193 777 l 199 779 l 199 783 l 193 790 q 151 781 151 785 m 471 790 l 466 785 l 414 783 l 412 785 l 410 785 l 399 781 l 392 783 l 384 781 l 377 783 l 334 779 l 334 781 l 332 779 l 327 779 l 325 781 q 288 772 288 777 q 292 727 288 739 l 290 725 l 290 723 l 292 692 l 292 682 l 440 755 l 498 783 l 498 788 l 484 785 l 471 790 m 229 770 q 238 712 229 742 l 236 709 l 236 707 l 240 655 l 243 653 l 249 653 q 264 671 264 660 l 264 751 q 271 755 264 755 l 273 758 l 273 770 q 251 777 273 774 q 229 770 229 774 m 542 770 l 542 766 l 547 766 l 547 770 l 542 770 m 294 633 l 297 631 l 297 629 q 540 762 403 682 l 540 764 l 536 764 q 330 671 444 730 q 294 642 294 658 l 294 633 m 457 753 l 464 753 l 473 762 l 468 762 q 457 753 458 758 m 551 762 l 551 760 l 555 760 l 555 762 l 551 762 m 455 745 l 453 742 l 453 740 l 460 742 l 460 745 l 455 745 m 431 734 l 431 731 l 435 731 l 435 734 l 431 734 m 408 723 l 408 718 l 412 723 l 408 723 m 359 696 l 364 696 l 401 714 l 401 716 l 392 716 q 359 701 379 707 l 359 696 m 225 703 l 227 671 l 227 642 l 229 642 l 236 649 l 229 703 l 225 703 m 325 680 l 330 680 l 340 684 l 340 688 l 336 688 l 325 680 m 303 666 l 305 666 l 319 675 l 319 677 l 316 677 q 303 666 305 673 m 297 666 l 297 664 l 301 664 l 301 666 l 297 666 m 279 642 l 277 640 l 277 633 l 281 629 l 283 629 l 283 638 l 279 642 m 258 636 l 258 629 l 262 633 l 262 636 l 258 636 m 327 625 l 330 625 q 345 633 345 628 l 342 633 q 327 625 327 631 m 247 623 l 245 621 l 245 606 l 254 606 q 267 616 267 612 q 247 623 259 622 m 227 612 l 227 595 l 238 597 l 238 614 l 234 618 l 227 612 m 297 610 l 297 608 l 299 608 l 310 610 l 310 614 l 301 614 l 297 610 m 299 590 l 301 588 q 342 610 325 588 l 347 614 l 340 614 q 299 590 299 604 m 336 595 l 336 593 l 338 593 q 468 608 468 602 l 438 612 l 435 610 l 420 612 l 406 612 q 336 595 345 612 m 279 601 l 279 597 l 286 604 l 286 606 l 283 606 l 279 601 m 592 595 l 609 586 l 614 586 q 631 601 626 593 l 631 604 q 592 595 592 604 m 249 586 l 251 584 q 267 593 267 589 l 267 595 l 264 595 q 249 586 249 592 m 438 588 l 435 590 l 433 590 l 406 586 l 406 588 l 384 584 l 381 586 l 379 586 q 297 573 300 579 l 299 571 l 299 555 l 301 449 l 299 447 l 301 436 l 301 406 l 299 391 l 301 371 l 299 289 l 301 286 q 468 473 320 300 l 547 568 q 562 584 557 584 l 562 586 q 529 595 562 595 l 438 588 m 514 517 l 514 514 l 518 510 q 574 582 522 510 l 574 586 q 514 517 558 576 m 492 463 l 492 460 q 607 577 498 460 q 587 584 607 583 q 529 510 583 584 l 492 463 m 249 568 l 251 557 l 249 545 l 254 490 l 251 488 l 254 479 l 256 319 l 256 237 l 258 237 q 271 463 271 237 l 269 499 l 271 501 l 271 503 q 262 575 269 575 l 249 568 m 279 575 l 279 571 l 277 571 l 279 538 l 279 497 l 281 467 l 279 465 l 279 463 q 290 362 283 362 l 290 369 l 288 564 l 286 575 l 279 575 m 229 568 q 243 213 229 446 l 247 213 l 249 228 l 249 295 q 243 560 249 423 q 234 573 243 568 l 229 568 m 623 560 l 623 557 l 625 557 q 633 566 625 566 l 633 571 l 623 560 m 299 230 l 303 230 q 553 501 526 453 q 587 543 576 525 l 587 545 q 301 239 384 338 l 299 230 m 503 508 q 490 492 503 500 q 416 404 479 473 q 308 280 368 342 l 308 278 l 310 278 q 435 414 343 307 l 507 506 l 507 508 l 503 508 m 477 445 l 477 443 l 490 456 l 490 458 l 477 445 m 275 362 l 273 360 l 273 358 l 277 354 l 279 356 l 279 358 l 275 362 m 288 354 l 288 347 l 290 347 l 290 354 l 288 354 m 275 345 l 275 334 l 279 334 l 279 340 l 275 345 m 277 326 l 273 295 l 273 280 l 275 271 l 271 254 l 273 254 q 283 273 283 259 l 281 323 l 279 326 l 277 326 m 408 289 l 408 286 l 412 291 l 412 293 l 408 289 m 399 280 l 399 275 l 403 275 l 403 280 l 399 280 m 364 235 l 364 232 l 366 232 l 395 267 l 395 269 l 364 235 m 299 210 l 299 208 l 303 208 q 327 237 303 213 l 327 241 q 299 210 306 227 m 353 224 l 353 219 l 355 219 l 362 226 l 362 228 l 353 224 m 279 217 l 269 199 l 271 199 q 283 215 280 205 l 281 217 l 279 217 m 227 210 l 227 197 l 232 202 l 229 210 l 227 210 m 277 195 l 267 176 l 269 174 l 271 174 l 281 189 l 281 191 l 277 195 m 297 161 l 303 161 l 321 186 l 321 193 q 297 161 297 175 m 258 172 l 258 167 l 260 167 l 260 172 l 258 172 m 262 113 l 262 111 l 264 111 q 279 150 279 121 l 273 150 q 262 113 264 150 m 227 143 l 225 134 l 227 134 l 234 141 l 234 143 l 227 143 m 201 119 l 201 115 l 205 115 l 205 119 l 201 119 m 223 58 l 223 56 l 225 56 l 236 74 l 234 89 l 234 119 l 232 119 q 223 58 224 119 m 247 119 l 247 115 l 249 115 l 249 119 l 247 119 m 147 58 q 193 96 182 83 l 184 104 l 182 104 l 147 63 l 147 58 m 281 94 l 281 91 l 286 91 l 286 98 l 281 94 z "},"c":{"ha":802,"x_min":140,"x_max":661,"o":"m 631 920 l 635 920 l 640 915 q 598 882 639 908 l 557 844 l 557 840 l 562 840 l 644 868 l 646 865 l 644 854 l 650 844 l 650 840 l 618 814 l 618 812 l 620 812 l 657 830 l 661 830 l 661 826 q 484 690 642 804 l 325 582 l 325 577 l 390 467 q 460 357 406 436 l 460 348 l 453 348 l 460 340 l 462 340 l 462 345 l 468 345 q 484 319 468 338 q 585 210 492 297 l 590 205 l 594 205 l 592 212 l 598 235 l 596 237 l 598 249 l 598 273 q 607 289 598 286 l 609 286 l 612 286 l 607 240 q 640 210 640 240 l 640 205 l 637 195 l 640 183 q 616 61 640 145 q 655 22 616 57 l 655 17 l 650 17 q 616 43 643 17 l 609 47 l 607 45 q 592 26 603 26 l 587 31 l 592 59 q 551 99 566 99 q 359 321 403 229 q 330 373 354 321 q 264 463 289 448 q 236 481 236 477 l 245 519 q 225 556 231 556 l 197 558 q 175 551 186 551 l 171 556 l 171 558 q 236 603 171 562 l 236 606 l 232 606 q 151 575 206 589 q 140 582 140 576 l 140 587 q 208 641 156 605 q 254 671 212 650 l 254 675 l 180 641 l 175 641 l 173 643 l 171 643 q 275 704 171 652 q 553 872 366 746 q 603 899 587 899 l 631 920 m 542 851 q 479 804 481 812 l 481 804 q 542 849 534 824 l 547 849 l 547 851 l 542 851 m 583 823 l 585 823 l 629 844 l 629 849 l 627 849 l 585 828 l 583 826 l 583 823 m 564 830 l 564 826 l 570 826 l 572 833 l 570 833 l 564 830 m 538 817 l 544 817 l 557 826 l 553 826 q 538 817 538 821 m 468 755 l 468 753 q 566 812 537 789 l 564 812 q 468 755 501 790 m 607 804 l 607 802 l 612 807 l 612 810 l 607 804 m 397 678 l 397 675 q 555 774 446 696 q 576 795 576 791 l 574 795 q 397 678 432 710 m 364 730 l 370 730 q 412 751 378 737 q 484 793 480 785 l 481 793 q 364 732 453 787 l 364 730 m 338 603 l 338 601 l 340 601 l 414 650 q 564 760 534 734 l 587 774 l 585 777 l 585 779 q 338 603 435 682 m 151 591 l 151 587 l 160 585 q 297 647 227 606 q 446 751 432 722 l 449 753 l 446 755 l 305 682 l 205 629 l 153 591 l 151 591 m 283 694 l 283 692 l 286 692 q 294 699 294 696 l 292 699 l 283 694 m 273 685 l 273 682 l 279 690 l 277 690 l 273 685 m 260 680 l 260 678 l 267 678 l 267 680 l 260 680 m 353 633 l 353 629 l 359 629 l 414 673 l 412 673 l 353 633 m 281 612 l 281 610 l 286 610 q 366 661 335 635 l 366 666 q 281 612 300 632 m 290 606 l 290 603 q 297 589 292 589 l 323 614 l 323 620 l 319 620 q 290 606 300 606 m 262 606 l 262 601 l 267 601 l 271 606 l 262 606 m 247 593 l 247 591 l 251 591 l 258 598 l 251 598 l 247 593 m 245 575 l 267 563 q 281 577 281 568 q 271 593 281 590 q 245 575 245 582 m 225 572 l 225 566 l 234 566 l 240 572 l 232 575 l 225 572 m 299 563 l 299 561 q 327 488 299 553 q 462 308 349 436 l 464 308 l 403 395 q 319 537 372 439 q 303 563 315 537 l 299 563 m 325 556 l 325 549 l 392 434 l 435 368 l 440 368 l 347 526 q 325 556 344 536 m 243 554 l 243 549 l 247 549 l 247 554 l 243 554 m 281 544 l 308 505 l 308 498 l 314 503 q 292 554 305 514 l 288 554 l 281 544 m 251 500 l 249 488 l 249 484 l 269 474 l 269 479 l 256 500 l 251 500 m 336 448 l 336 444 l 338 444 l 338 448 l 336 448 m 319 437 l 319 434 q 332 416 327 416 l 332 418 q 319 437 323 435 m 386 387 l 386 385 l 390 380 l 390 387 l 386 387 m 355 366 l 355 361 q 388 319 359 361 q 392 313 392 319 l 395 310 l 399 310 l 399 313 l 359 366 l 355 366 m 442 364 l 442 359 l 446 359 l 446 364 l 442 364 m 446 357 l 451 352 l 451 357 l 446 357 m 427 317 l 427 310 q 462 265 432 310 q 581 158 540 178 q 429 317 569 176 l 427 317 m 399 305 l 403 300 l 406 300 l 406 305 l 399 305 m 406 286 l 406 284 l 410 284 l 410 286 l 406 286 m 414 277 l 414 275 q 511 158 455 217 l 514 158 l 514 170 q 460 235 505 170 l 416 277 l 414 277 m 500 273 l 505 268 l 505 273 l 500 273 m 605 205 l 605 199 q 625 170 605 189 l 625 165 l 620 160 l 618 160 l 609 167 l 603 167 q 620 125 603 151 l 625 125 q 631 195 631 161 q 618 231 628 231 l 616 231 q 605 205 608 231 m 551 224 l 555 224 l 555 228 l 551 224 m 557 221 q 583 193 557 216 l 590 193 l 590 197 q 564 218 581 197 l 557 221 m 498 199 l 498 197 q 536 158 517 170 q 587 92 560 121 l 590 92 l 592 99 l 590 102 l 592 118 l 592 132 q 503 197 555 155 l 500 199 l 498 199 m 603 123 l 601 120 l 601 85 l 603 73 l 609 73 l 620 104 l 620 118 l 603 123 z "},"d":{"ha":802,"x_min":60,"x_max":742,"o":"m 108 911 l 123 911 l 164 907 l 193 907 q 264 897 229 907 q 275 909 267 905 q 281 892 279 909 l 283 890 l 305 890 q 373 864 321 890 q 559 788 468 829 q 655 720 655 739 l 659 699 q 742 655 742 666 l 742 651 q 681 597 731 633 q 601 497 601 517 l 612 501 l 614 495 q 533 373 579 458 q 420 210 441 264 q 410 186 414 210 q 362 100 391 159 l 310 0 l 303 0 l 303 2 q 399 189 323 47 q 403 204 401 189 l 403 206 l 401 206 q 288 43 374 159 q 258 2 261 2 l 254 7 l 281 61 l 279 61 l 240 35 l 229 31 l 227 33 l 227 39 l 243 56 q 236 76 241 76 l 234 76 l 203 52 l 201 52 l 195 58 l 195 63 l 201 74 l 197 74 l 191 72 l 189 74 l 189 104 l 191 113 l 189 115 l 225 647 l 229 805 l 232 807 l 234 807 q 243 755 240 807 l 240 753 l 240 751 q 254 729 240 734 l 247 677 l 247 664 q 251 575 247 593 l 249 566 l 251 514 l 254 506 l 256 506 l 258 517 l 258 705 l 256 725 q 260 764 260 736 l 260 818 q 221 842 260 834 q 201 848 221 847 q 167 864 193 856 q 82 892 119 892 l 73 892 q 60 899 62 892 q 77 907 60 904 l 91 905 l 93 905 q 108 911 100 905 m 123 903 l 123 901 l 127 901 l 127 903 l 123 903 m 210 899 l 210 894 l 254 886 l 256 886 l 256 888 q 218 901 256 893 l 210 899 m 199 899 l 199 897 l 208 897 l 208 899 l 199 899 m 221 886 l 218 883 l 218 881 l 225 881 l 221 886 m 288 883 l 286 881 l 286 877 q 334 861 330 866 l 347 861 l 347 864 l 340 875 l 338 872 l 336 872 l 305 883 l 294 881 l 288 883 m 175 875 q 260 838 175 865 l 260 844 q 178 875 256 851 l 175 875 m 349 864 l 349 859 l 359 857 l 359 859 l 355 864 l 349 864 m 290 861 l 290 859 l 294 855 l 297 855 l 297 861 l 290 861 m 308 855 l 308 850 l 316 846 l 321 846 l 321 850 l 312 855 l 308 855 m 327 848 l 327 842 q 460 794 336 842 q 585 742 516 766 l 585 745 q 574 755 584 753 l 570 766 l 568 764 l 564 764 q 468 807 533 789 q 327 848 351 845 m 271 838 l 271 836 l 275 829 l 275 827 q 267 814 267 820 l 269 805 l 267 794 l 269 792 l 267 781 l 267 774 l 269 755 l 267 734 l 267 718 l 264 709 l 267 703 l 264 692 l 267 680 l 264 666 l 267 640 l 264 612 l 267 597 l 264 555 l 267 543 l 264 536 l 267 534 l 264 523 l 264 469 l 262 456 q 269 445 264 445 l 271 445 l 271 449 l 273 449 l 269 471 l 279 712 l 277 729 l 279 729 l 277 736 l 279 816 l 277 827 q 281 833 281 827 q 275 842 278 842 l 271 838 m 292 833 l 290 831 l 290 825 q 370 799 340 799 l 375 799 l 375 803 l 292 833 m 294 814 l 290 803 q 299 562 296 734 l 297 560 l 299 549 l 299 490 l 301 481 l 299 475 l 301 460 l 299 449 l 301 447 l 301 445 l 299 432 l 301 408 l 299 387 l 301 376 l 299 340 l 299 245 l 301 245 q 399 360 357 316 q 551 549 469 458 l 609 627 l 609 640 q 590 660 601 640 q 538 705 572 672 l 538 709 l 542 709 q 614 642 604 659 l 618 642 q 629 662 629 654 q 598 701 617 701 q 531 727 563 707 l 525 727 l 525 725 l 536 714 q 529 709 536 709 q 449 749 486 749 l 375 777 q 370 783 370 777 l 368 781 l 366 781 q 316 796 330 796 l 312 796 q 294 814 310 814 m 390 812 l 395 807 l 395 812 l 390 812 m 410 803 l 414 799 l 416 799 l 416 803 l 410 803 m 418 799 l 418 794 l 429 794 l 429 799 l 418 799 m 431 794 q 500 762 438 787 l 507 762 l 505 768 l 494 768 q 435 794 481 777 l 431 794 m 384 785 l 384 779 l 442 760 l 453 760 l 453 762 q 384 785 406 785 m 511 758 l 525 753 l 520 762 l 516 762 l 511 758 m 533 753 l 533 747 l 540 747 l 544 751 l 533 753 m 596 747 l 612 738 l 612 740 l 601 751 l 596 747 m 547 747 l 551 742 l 555 742 l 551 747 l 547 747 m 566 738 q 603 720 568 732 l 605 723 l 605 725 q 566 738 595 738 m 633 734 l 633 731 q 648 707 640 707 l 648 720 q 635 734 644 729 l 633 734 m 549 727 l 549 725 l 553 725 l 553 727 l 549 727 m 570 720 l 574 716 l 574 720 l 570 720 m 625 696 l 629 677 l 631 677 l 635 682 l 635 690 l 629 696 l 625 696 m 659 684 q 635 568 659 618 l 635 566 l 731 651 l 731 653 q 659 684 720 666 m 625 638 l 625 633 l 627 633 l 627 638 l 625 638 m 431 393 l 433 393 q 579 549 579 528 q 616 614 616 595 l 616 621 l 614 621 q 473 449 568 556 l 431 393 m 633 590 l 633 588 l 635 588 l 642 606 q 633 590 633 602 m 281 568 l 281 545 l 283 545 l 283 568 l 281 568 m 631 566 l 631 562 l 633 562 l 633 566 l 631 566 m 234 551 l 234 393 l 232 351 l 234 349 l 234 347 l 229 328 l 232 319 l 227 174 q 208 109 214 174 q 201 85 205 109 l 201 83 l 203 83 q 236 163 228 129 l 238 473 l 238 499 l 240 501 l 238 503 l 238 555 l 234 551 m 603 547 l 598 536 l 598 534 l 607 545 l 607 547 l 603 547 m 281 538 l 277 514 l 277 471 l 279 456 l 283 460 l 283 477 l 286 508 l 283 538 l 281 538 m 592 530 l 592 525 l 594 525 l 594 530 l 592 530 m 254 495 l 254 481 l 256 481 l 256 495 l 254 495 m 381 228 l 384 228 q 525 410 481 331 l 570 481 l 568 481 q 442 326 517 427 l 381 230 l 381 228 m 301 226 l 301 217 l 305 217 q 522 465 497 412 l 536 479 l 533 479 q 386 326 387 338 l 342 271 q 301 226 319 254 m 247 449 l 245 434 l 245 395 l 247 382 l 245 371 l 247 358 l 245 334 l 245 295 l 243 271 l 245 269 l 243 258 l 243 178 l 245 178 q 267 206 255 184 l 264 217 l 264 243 l 249 449 l 247 449 m 277 445 l 277 427 l 281 427 l 281 445 l 277 445 m 507 354 l 511 354 l 533 389 l 533 391 q 507 354 507 362 m 218 389 l 218 376 l 221 376 l 221 389 l 218 389 m 283 378 q 271 315 280 315 l 271 313 l 275 224 l 275 219 q 288 354 288 219 l 288 376 l 286 378 l 283 378 m 433 338 l 438 338 l 438 343 l 433 338 m 299 145 l 303 145 q 384 254 335 174 l 433 334 l 433 336 l 429 336 q 299 191 299 203 l 299 145 m 210 334 l 205 286 l 208 284 l 208 282 q 199 197 204 277 l 201 195 l 201 193 l 197 139 l 199 132 l 195 115 l 195 109 l 199 109 q 214 199 214 180 l 214 308 l 216 317 l 214 326 l 214 334 l 210 334 m 399 221 l 395 213 l 395 210 l 397 210 l 403 217 l 403 221 l 399 221 m 334 139 q 340 132 340 139 l 347 139 l 340 141 q 386 213 353 169 l 386 217 q 334 139 345 178 m 243 145 l 245 145 q 277 191 271 170 l 281 206 l 277 206 q 243 145 243 170 m 386 204 l 355 154 l 357 154 q 390 204 390 194 l 386 204 m 277 126 l 279 123 q 292 159 292 123 l 292 182 l 290 182 q 277 126 285 182 m 271 159 l 245 126 l 245 117 l 247 109 l 245 100 l 247 98 l 247 96 q 275 156 268 96 l 273 159 l 271 159 m 323 150 q 294 94 294 109 l 294 89 l 299 89 l 327 150 l 323 150 m 269 89 l 271 89 l 288 111 l 288 117 q 269 89 277 117 m 205 65 l 208 65 q 238 91 234 81 l 238 113 l 236 113 l 218 87 q 205 65 205 81 m 245 80 l 247 67 l 251 67 q 260 89 257 67 l 260 94 l 258 94 l 245 80 m 264 65 l 267 65 q 288 91 288 74 l 288 94 l 286 94 q 264 65 269 77 z "},"e":{"ha":741,"x_min":98,"x_max":643,"o":"m 302 890 q 319 846 305 890 q 328 829 323 846 l 612 829 l 619 823 q 585 814 619 815 l 582 816 l 582 818 l 524 821 l 376 821 l 380 816 l 606 812 l 614 812 l 621 805 l 619 799 q 628 783 628 795 l 628 777 l 614 768 l 610 768 q 606 774 606 768 q 352 788 473 788 q 368 766 361 769 l 580 766 l 639 764 l 643 758 q 614 751 643 752 l 610 755 l 374 755 l 374 753 q 473 675 393 722 q 595 606 553 616 l 606 614 l 608 614 l 614 608 l 604 601 l 604 597 q 617 588 612 596 l 617 584 l 612 579 l 585 590 q 563 577 563 581 q 582 568 582 572 l 582 566 l 571 566 l 554 571 q 361 454 529 561 q 211 300 262 372 l 207 280 l 209 278 l 209 275 l 205 258 l 207 235 l 205 235 q 250 165 217 184 q 374 132 276 144 l 389 134 l 415 134 q 589 208 487 134 l 600 243 l 604 243 l 608 239 l 608 228 q 576 178 608 216 l 580 165 l 571 141 l 574 141 l 610 172 l 612 172 l 612 170 q 491 80 560 109 q 389 56 446 65 l 380 58 q 339 52 376 54 q 178 109 218 52 l 183 113 q 272 65 218 76 l 274 63 l 294 63 q 319 58 319 62 l 330 61 l 350 61 l 350 65 l 337 65 l 337 74 l 343 74 l 346 72 l 348 74 l 397 69 q 517 106 481 86 q 571 161 571 136 l 571 170 l 567 174 l 565 174 q 441 123 545 155 q 332 106 368 106 l 324 106 l 311 109 l 309 106 l 307 106 l 287 111 l 285 109 q 241 117 260 111 l 241 111 q 261 102 247 102 q 302 83 261 96 l 335 76 l 335 74 l 330 69 l 328 69 q 270 87 307 69 q 194 132 264 87 l 165 143 l 163 143 l 163 134 q 176 115 173 134 l 176 113 l 172 113 l 142 165 l 129 178 l 126 178 q 109 128 119 178 l 109 104 l 115 80 l 111 80 q 98 111 104 81 l 98 113 q 118 189 98 140 q 109 239 109 219 q 200 456 109 344 l 233 486 q 441 595 311 541 l 444 597 l 444 599 l 389 618 l 389 621 l 406 621 q 469 604 446 604 l 473 604 q 263 701 349 671 q 252 705 252 701 l 256 709 l 265 709 q 435 636 285 709 l 437 636 l 437 638 q 354 684 404 652 q 265 725 317 705 l 265 727 l 270 731 q 307 718 281 731 l 309 718 l 309 720 l 256 758 q 233 766 233 761 q 243 770 233 770 l 231 788 l 220 785 l 213 785 l 209 790 q 224 796 209 796 l 224 801 q 198 810 224 810 l 174 810 l 165 803 q 148 812 153 803 l 148 814 l 153 818 l 155 818 l 209 821 q 183 870 186 854 l 189 875 q 202 848 193 875 l 222 823 q 235 827 235 824 q 218 859 218 853 l 218 861 l 222 861 q 245 827 233 854 l 311 829 l 317 829 l 317 831 q 296 886 300 863 l 302 890 m 235 810 l 235 807 q 274 768 235 800 l 281 768 l 245 810 l 235 810 m 406 801 l 406 799 l 522 792 l 549 794 l 617 785 q 567 799 612 799 l 560 799 l 545 796 l 541 801 l 406 801 m 276 790 q 307 766 294 766 l 307 768 l 283 790 l 276 790 m 300 790 l 315 774 l 330 777 l 317 790 l 300 790 m 335 790 l 341 779 l 343 779 l 343 781 l 337 790 l 335 790 m 289 758 q 304 747 289 754 l 304 749 q 289 758 294 758 m 313 758 l 313 755 q 352 725 320 745 l 352 727 q 313 758 321 758 m 337 755 q 402 694 398 694 l 402 696 q 341 755 353 752 l 337 755 m 419 696 q 487 651 446 663 l 489 651 l 489 653 l 422 696 l 419 696 m 411 669 l 411 666 l 426 655 l 426 658 l 411 669 m 511 610 l 511 608 l 515 608 l 515 610 l 511 610 m 560 608 q 532 588 557 601 l 532 586 l 534 586 l 576 599 q 560 608 576 604 m 522 597 l 526 593 l 526 597 l 522 597 m 174 308 l 176 308 q 220 360 215 343 q 307 495 245 428 q 415 562 355 535 q 469 575 454 575 l 469 571 q 285 458 341 536 q 231 371 259 431 l 229 362 l 231 362 q 368 477 330 442 q 404 506 400 506 l 404 510 l 343 486 l 341 486 l 341 490 q 437 538 342 496 q 498 577 450 541 l 498 582 l 478 586 q 332 530 433 580 q 209 401 258 474 q 174 308 175 331 m 473 577 l 478 577 l 478 573 l 473 573 l 473 577 m 391 486 l 395 486 q 532 571 509 552 l 530 571 q 419 510 437 530 l 391 486 m 142 262 l 142 252 l 140 250 l 140 248 l 142 245 l 144 245 q 176 349 163 286 q 267 484 203 418 l 281 497 l 281 501 q 159 351 193 450 q 142 262 148 324 m 170 404 l 170 399 q 176 410 175 399 l 170 404 m 115 250 l 118 243 l 115 230 q 126 202 121 202 l 129 202 l 142 326 l 168 395 q 129 317 159 395 l 115 250 m 218 330 l 218 328 l 220 328 q 267 382 251 359 l 265 382 q 218 330 218 347 m 170 282 l 170 271 l 172 271 q 207 321 207 307 l 207 326 q 170 282 189 314 m 196 286 q 168 241 168 252 l 168 226 q 202 145 173 191 q 256 121 225 121 l 278 119 q 285 115 278 115 l 298 117 l 328 115 q 397 121 364 115 l 397 126 l 393 126 l 382 128 l 372 126 l 343 130 l 337 128 q 224 176 250 144 q 198 245 198 201 l 200 284 l 198 286 l 196 286 m 155 232 l 153 221 l 153 219 l 157 215 l 161 219 l 161 232 l 155 232 m 144 210 l 144 204 q 174 150 144 166 q 187 145 178 145 l 194 139 l 196 141 l 196 143 q 168 195 177 164 q 153 210 168 202 l 144 210 m 131 197 l 131 189 l 135 189 l 135 197 l 131 197 m 115 76 l 118 76 q 187 18 149 37 l 211 2 l 211 0 l 209 0 q 111 72 175 0 l 115 76 z "},"f":{"ha":679,"x_min":53,"x_max":625,"o":"m 205 1022 l 211 1022 l 207 964 l 209 962 l 209 959 l 202 901 l 205 899 l 205 897 l 202 888 l 207 875 l 205 864 l 211 855 l 415 855 l 484 859 l 526 859 l 530 855 l 524 848 l 482 848 q 304 825 427 848 l 298 825 l 298 821 l 300 821 l 319 825 l 332 823 l 354 825 l 354 823 l 519 836 l 522 833 l 536 836 l 574 836 l 580 829 l 574 825 l 547 825 q 389 810 503 825 l 339 801 l 339 799 l 343 799 l 343 796 l 415 803 l 415 801 q 560 810 420 807 l 600 810 l 612 812 q 625 805 625 809 q 365 764 625 793 l 263 747 l 263 734 l 267 729 l 363 736 l 363 729 l 330 725 l 328 727 l 267 723 l 263 714 l 265 692 l 263 690 l 265 675 l 265 647 l 263 621 l 265 595 l 265 568 l 270 564 l 493 593 l 498 586 q 319 562 498 580 l 272 553 l 272 551 l 274 551 l 395 553 l 439 553 l 448 555 l 450 553 l 452 553 l 478 555 l 500 549 l 538 553 l 556 551 l 558 553 l 560 553 l 569 551 l 569 545 l 502 541 l 500 543 l 491 541 q 265 523 265 530 l 265 512 l 456 528 l 471 523 l 515 525 l 517 525 l 522 521 l 522 519 l 517 512 l 502 514 q 424 501 478 514 l 419 510 q 265 488 379 508 l 265 484 l 263 443 l 265 441 l 263 434 l 265 284 l 263 137 l 265 126 l 263 123 l 263 121 l 265 111 l 263 96 l 265 83 l 263 83 l 265 80 l 265 78 q 274 -22 265 41 l 272 -22 q 256 119 260 -22 l 252 119 l 245 87 l 245 76 l 248 67 l 245 65 l 248 54 l 248 2 l 243 -2 l 239 -2 l 239 2 l 237 2 l 239 39 l 239 96 q 224 189 229 140 l 220 189 q 211 143 217 143 l 213 132 q 209 61 209 110 l 211 54 l 209 41 l 209 7 l 205 2 l 202 4 l 202 37 l 205 143 l 207 145 l 207 148 q 191 228 196 228 l 189 213 l 189 111 l 191 87 l 189 85 q 202 -13 196 -13 l 198 -13 l 191 -9 l 189 -9 l 189 -115 l 200 -215 l 198 -215 q 180 -72 185 -209 l 180 -26 l 178 -13 l 180 -2 l 180 15 l 178 24 l 180 26 l 180 28 l 174 295 l 174 497 q 163 501 174 501 l 163 503 l 148 501 l 124 501 l 120 506 q 157 519 120 513 l 168 521 l 170 523 l 170 525 l 146 528 l 129 525 l 122 528 l 107 525 l 57 525 l 53 530 l 61 538 l 75 538 q 90 534 90 538 l 92 536 l 94 536 l 102 534 l 104 536 l 107 536 l 133 534 l 135 536 l 137 536 l 146 534 l 155 534 l 165 536 l 165 534 l 174 541 l 172 543 l 146 543 l 142 547 q 174 555 142 554 l 174 604 l 176 614 l 174 627 l 174 714 q 142 723 174 719 l 140 725 l 140 727 l 174 740 l 174 749 l 165 749 l 144 747 l 137 758 l 107 753 l 102 760 q 172 774 115 766 l 176 781 l 176 796 l 172 801 l 131 799 l 131 803 q 174 814 131 810 l 176 816 l 176 890 l 183 890 l 183 861 l 187 857 l 191 877 q 205 1022 191 947 m 207 836 l 207 823 l 211 818 l 227 821 l 227 818 q 235 836 235 818 l 241 840 l 248 836 l 259 836 q 263 827 259 827 l 368 842 l 368 846 l 359 848 l 341 846 l 324 848 l 321 846 l 319 846 l 309 848 l 289 846 l 289 848 l 287 846 l 274 848 l 261 846 l 250 848 l 248 846 l 245 846 l 235 848 l 220 846 l 218 848 l 216 848 q 207 836 207 846 m 183 840 l 183 818 l 189 818 l 187 821 l 187 840 l 183 840 m 370 816 l 357 818 l 296 812 l 294 814 l 292 814 q 261 805 261 812 l 261 794 l 267 794 l 385 816 q 378 821 385 821 l 370 816 m 209 801 l 209 783 l 213 783 q 237 796 235 783 l 235 807 q 209 801 209 806 m 317 796 l 317 794 l 332 794 l 332 799 l 317 796 m 263 768 l 265 766 l 265 764 q 473 790 432 781 l 493 790 l 498 794 l 495 796 q 263 770 330 783 l 263 768 m 183 788 l 183 783 l 185 783 l 185 788 l 183 788 m 231 768 l 229 766 l 229 764 l 235 764 l 231 768 m 216 764 l 216 760 l 222 760 l 227 764 l 216 764 m 213 749 l 213 747 l 229 747 l 233 751 l 233 755 l 231 755 q 213 749 213 754 m 183 749 l 183 742 l 187 742 l 187 745 l 183 749 m 211 736 l 218 727 l 233 727 l 237 731 l 237 738 l 233 745 l 211 736 m 213 718 q 224 560 218 560 l 235 560 l 241 564 l 237 712 l 237 714 l 231 720 l 218 720 l 216 718 l 213 718 m 180 716 l 183 703 l 180 684 l 183 673 l 180 671 l 180 669 l 183 655 l 183 640 l 187 644 l 187 718 l 185 718 l 183 716 l 180 716 m 200 673 l 198 586 l 198 557 l 205 557 l 207 560 l 209 560 l 205 673 l 200 673 m 183 638 l 183 633 l 185 633 l 185 638 l 183 638 m 317 547 l 321 543 l 326 543 l 326 547 l 317 547 m 222 541 l 222 536 l 235 536 l 239 541 l 235 545 l 227 545 l 222 541 m 267 543 l 267 538 l 270 538 l 285 541 l 285 543 l 267 543 m 220 517 l 222 510 l 237 510 l 241 514 l 241 519 l 237 523 q 220 517 227 523 m 198 514 l 202 510 l 205 510 l 209 514 l 209 519 l 202 519 l 198 514 m 196 499 l 196 315 l 198 306 l 196 304 l 196 302 l 205 210 l 209 210 l 209 226 l 211 315 l 209 317 l 209 319 l 211 328 l 211 336 l 209 358 l 211 369 l 209 387 l 211 387 l 209 389 l 211 410 l 209 421 l 211 436 q 207 499 211 475 l 196 499 m 222 475 l 224 313 l 227 311 l 227 308 l 224 300 q 231 219 227 219 l 229 217 l 229 215 l 235 178 l 235 159 l 239 159 l 235 378 l 233 384 l 235 387 l 237 387 l 239 384 l 241 384 l 243 387 l 243 391 l 239 395 l 235 391 l 233 393 l 233 395 l 235 410 l 233 425 l 235 454 l 233 469 l 235 471 l 237 471 l 239 449 l 241 449 l 241 481 l 227 481 q 222 475 222 481 m 243 237 l 243 202 l 245 202 l 250 206 l 250 237 l 243 237 m 222 197 l 222 193 l 224 193 l 224 197 l 222 197 m 245 191 l 245 159 l 248 143 l 252 148 l 252 176 l 248 191 l 245 191 z "},"g":{"ha":864,"x_min":69,"x_max":794,"o":"m 781 807 l 790 807 l 794 803 q 781 796 792 796 l 762 796 l 745 792 l 742 794 q 568 766 568 771 l 568 764 l 612 764 l 616 760 q 538 747 616 753 l 538 745 q 655 729 655 738 l 647 725 l 631 731 l 629 729 l 614 731 l 610 731 q 575 716 593 716 l 566 716 l 566 712 l 644 712 l 649 707 l 640 703 l 631 705 l 612 703 l 601 705 l 595 703 l 579 705 l 555 703 l 543 705 l 534 703 l 532 705 l 530 705 l 523 703 l 519 703 l 519 705 l 501 703 q 237 673 237 686 q 256 636 256 654 q 269 606 264 631 l 278 595 l 275 586 q 302 528 279 585 l 373 421 l 373 419 l 371 416 l 371 414 q 397 387 379 414 l 430 343 l 427 343 q 397 376 416 343 l 360 421 l 360 416 l 358 416 l 384 362 q 490 245 389 332 l 506 230 l 508 230 l 508 237 l 479 273 q 471 280 479 280 l 427 336 l 430 343 q 510 243 510 254 l 514 243 q 606 432 533 263 l 627 479 q 604 492 627 487 q 481 525 563 510 l 479 523 l 473 523 l 467 528 l 447 528 l 445 530 l 443 528 l 408 528 l 395 530 l 389 528 l 380 530 l 365 528 l 362 530 l 360 530 l 351 528 l 349 530 l 349 532 l 354 536 l 412 536 l 423 538 l 423 541 q 387 553 387 545 q 399 560 387 560 l 393 568 l 397 573 l 432 573 l 441 571 l 456 573 l 597 573 q 720 562 671 573 l 736 566 q 777 551 736 559 q 792 536 790 543 q 740 458 792 517 l 747 447 l 747 445 q 625 250 686 372 q 547 106 547 126 l 557 94 l 557 89 l 553 85 l 551 85 l 543 91 l 538 87 l 541 76 l 534 72 l 530 72 l 525 85 q 503 43 519 85 l 521 9 l 521 4 l 517 0 l 501 26 l 499 26 l 497 24 l 486 7 l 481 11 q 490 39 481 22 q 447 109 490 48 q 360 219 417 152 q 345 243 350 229 q 306 286 338 243 l 275 323 l 275 332 l 278 332 q 452 115 404 184 l 465 102 l 463 96 l 465 96 q 492 54 468 95 q 512 98 501 59 q 484 134 512 108 l 481 134 q 473 115 477 134 l 467 109 l 465 109 l 475 143 q 460 163 473 153 q 454 172 460 172 q 447 184 447 178 l 441 182 q 319 338 426 191 q 291 382 313 341 q 232 484 258 430 q 210 521 227 485 q 178 597 199 522 l 154 633 q 74 703 95 703 l 69 707 l 69 709 l 74 714 l 83 714 l 152 720 l 159 720 l 163 725 l 126 723 l 102 723 l 98 727 l 104 734 q 599 781 452 758 l 781 807 m 473 749 l 510 751 l 523 751 l 523 755 l 508 755 q 473 749 473 755 m 443 747 l 445 747 l 454 749 l 463 747 l 465 749 l 465 751 l 447 751 l 443 747 m 215 714 l 215 709 q 228 699 220 709 l 454 734 l 454 736 l 391 736 l 378 734 l 376 736 l 373 736 q 215 714 215 720 m 481 727 l 473 729 l 380 714 l 380 716 l 252 694 l 252 692 l 254 692 l 479 716 l 481 716 l 484 714 l 486 714 l 579 725 l 579 729 l 543 731 l 506 731 q 481 727 490 731 m 150 701 l 150 690 l 161 677 q 184 690 174 690 q 193 696 193 690 l 191 703 l 197 707 l 199 707 l 208 694 l 213 694 l 213 712 l 197 714 q 150 701 150 709 m 102 703 q 123 684 102 699 q 150 653 123 679 l 152 653 l 152 655 q 132 692 152 668 l 134 709 l 123 709 q 102 703 108 709 m 239 694 l 239 690 l 243 690 l 243 694 l 239 694 m 178 669 l 178 666 q 228 573 178 652 q 278 532 254 573 l 278 530 l 271 530 q 243 560 249 560 l 237 564 l 235 562 q 317 430 237 545 l 317 427 l 321 427 q 291 499 321 444 l 278 519 l 278 530 q 291 514 291 524 l 295 514 l 295 517 l 264 575 q 219 658 248 612 l 219 662 l 221 664 l 221 666 q 248 623 229 666 l 250 621 l 254 621 l 254 625 l 232 673 l 224 673 l 224 669 l 221 669 l 208 673 l 178 669 m 547 566 l 547 562 l 551 562 l 547 566 m 579 564 l 579 560 l 582 560 q 673 543 661 553 l 666 536 l 597 545 l 595 543 l 532 551 l 530 549 q 449 553 507 553 l 447 553 l 443 549 q 501 536 495 541 l 508 538 l 640 510 l 644 514 q 651 506 648 514 l 653 503 l 662 503 l 673 512 l 677 512 l 677 499 l 682 499 l 714 551 l 714 555 l 682 562 l 658 562 l 655 564 l 653 562 l 608 566 l 599 564 l 586 566 l 579 564 m 690 497 q 701 488 700 492 l 696 481 l 686 484 q 677 465 682 484 q 651 416 669 465 l 610 319 l 538 126 l 538 119 l 543 119 q 627 280 576 197 q 707 452 698 403 q 682 467 684 458 l 688 469 q 712 460 704 460 q 734 549 723 488 l 729 553 q 690 497 720 553 m 720 463 l 723 456 l 729 456 q 781 523 738 461 l 783 536 q 749 551 771 547 q 738 523 738 551 l 720 463 m 610 503 l 610 499 l 631 492 l 633 495 l 633 497 q 610 503 622 503 m 252 499 l 252 495 q 284 449 266 465 l 284 454 q 252 499 260 494 m 644 492 l 644 484 l 649 484 l 653 488 l 653 492 l 644 492 m 313 490 q 328 465 313 478 l 330 465 l 330 467 l 317 490 l 313 490 m 206 486 l 210 486 l 210 484 l 206 477 l 206 460 q 228 401 206 447 l 228 399 l 226 399 q 217 412 217 399 q 197 456 210 412 l 197 471 q 206 486 197 483 m 638 471 l 642 471 l 642 475 l 638 471 m 651 471 q 618 395 624 429 l 618 393 l 621 393 q 655 469 647 441 l 653 471 l 651 471 m 623 456 l 614 438 l 612 430 l 612 427 l 616 427 l 625 454 l 625 456 l 623 456 m 709 430 l 712 430 l 725 445 l 720 449 l 718 449 q 709 430 713 449 m 286 447 l 284 438 l 286 436 l 291 436 l 291 443 l 286 447 m 284 423 l 284 419 l 286 419 l 286 423 l 284 423 m 608 423 l 597 395 l 601 395 l 612 421 l 612 423 l 608 423 m 343 416 l 347 408 l 349 408 l 349 410 l 347 421 l 343 416 m 300 412 l 300 408 q 332 358 328 358 l 343 343 q 347 336 347 343 l 349 334 l 354 334 q 302 412 354 353 l 300 412 m 351 408 l 351 404 l 354 404 l 354 408 l 351 408 m 633 406 l 633 401 l 638 406 l 633 406 m 226 397 l 232 397 q 252 367 235 397 l 275 336 l 275 332 l 271 332 q 226 393 245 359 l 226 397 m 358 393 l 358 389 l 362 384 l 365 384 l 365 387 l 358 393 m 593 302 q 629 391 598 302 q 593 302 616 391 m 604 387 q 557 295 590 365 l 557 293 l 560 293 q 608 384 608 365 l 606 387 l 604 387 m 367 371 l 367 367 l 371 367 l 367 371 m 376 362 l 376 356 l 378 356 l 378 362 l 376 362 m 351 326 l 351 323 l 356 323 l 356 326 l 351 326 m 525 226 q 543 182 543 209 q 584 297 551 182 l 586 317 q 525 230 582 317 l 525 226 m 382 300 l 387 295 l 387 300 l 382 300 m 419 300 q 486 197 419 288 l 499 215 l 499 221 q 434 284 495 230 l 423 300 l 419 300 m 387 293 l 391 289 l 391 293 l 387 293 m 501 180 l 501 178 q 528 134 501 168 q 538 170 538 156 q 514 202 538 179 l 512 202 q 501 180 507 202 m 490 191 l 490 186 l 492 186 l 497 191 l 497 193 l 490 191 m 528 100 l 528 91 l 530 91 l 534 96 l 534 100 l 528 100 z "},"h":{"ha":802,"x_min":149,"x_max":652,"o":"m 583 877 q 590 864 587 877 l 587 846 l 590 844 l 592 844 q 601 859 597 859 l 603 859 l 607 855 l 555 541 l 568 536 q 592 623 578 536 q 625 785 614 711 q 637 840 632 840 l 640 840 l 644 836 q 601 536 644 734 l 612 534 l 648 534 l 652 530 l 640 517 l 623 517 l 603 519 q 585 465 592 519 q 529 221 579 459 q 481 45 506 90 l 475 45 l 484 170 l 484 176 l 475 159 l 473 159 l 471 161 l 471 163 q 490 401 477 349 l 511 506 l 507 514 l 498 512 l 451 517 l 446 517 l 446 514 l 332 521 l 273 519 l 271 517 l 271 452 l 277 232 l 275 215 l 277 213 l 275 202 l 275 159 q 260 85 273 85 q 245 208 245 85 l 245 250 l 247 256 l 245 267 l 245 360 l 247 362 l 245 365 l 245 406 l 243 514 l 232 519 q 218 497 220 519 l 218 362 l 221 354 l 218 351 l 218 349 l 221 87 l 221 28 l 223 9 l 216 0 q 193 130 210 0 q 178 311 184 176 l 182 521 l 184 523 l 149 530 l 149 534 l 156 541 l 173 541 l 175 538 l 184 541 l 186 562 l 158 568 l 156 571 l 156 573 l 160 577 l 182 577 q 191 627 186 577 l 189 629 l 189 631 l 193 653 l 191 666 l 195 686 l 195 705 l 197 714 l 195 716 l 199 764 l 197 770 l 199 779 l 199 794 l 205 794 l 208 783 l 208 774 l 195 577 l 212 573 q 216 579 216 573 l 225 831 q 232 840 229 840 l 238 833 l 238 812 l 245 753 l 243 729 l 247 716 l 247 653 l 249 640 l 247 638 l 247 636 l 249 627 l 245 616 q 251 593 251 616 l 251 586 l 249 575 l 256 571 l 258 571 l 258 616 l 260 625 l 258 640 l 258 716 l 262 833 l 264 836 l 269 836 l 273 831 l 273 818 l 275 805 l 273 796 l 275 794 l 273 783 l 273 774 l 275 766 l 273 751 l 273 682 l 275 669 l 273 658 l 273 649 l 275 629 l 273 608 l 273 573 l 277 568 l 288 568 l 303 566 l 310 568 l 390 566 l 516 566 q 527 618 522 566 l 540 696 q 579 875 570 859 l 581 877 l 583 877 m 574 840 l 529 582 l 527 562 q 559 696 532 562 q 581 818 581 778 l 581 836 l 576 840 l 574 840 m 232 758 l 229 747 l 232 738 l 227 707 l 229 694 q 223 573 223 672 l 225 573 l 240 571 l 243 577 l 240 644 l 243 653 q 236 758 238 671 l 232 758 m 618 671 l 618 666 l 620 666 l 620 671 l 618 671 m 612 642 l 612 627 l 614 627 l 614 642 l 612 642 m 607 625 l 607 621 l 612 625 l 607 625 m 607 616 l 607 610 l 609 610 l 609 616 l 607 616 m 603 599 l 601 588 l 605 588 l 605 599 l 603 599 m 598 575 l 598 564 l 601 564 l 601 575 l 598 575 m 191 547 l 197 538 l 210 538 l 214 543 l 214 560 l 201 564 q 191 547 191 560 m 221 555 l 221 543 l 225 538 l 243 538 l 243 555 l 238 560 l 225 560 l 221 555 m 381 560 l 381 555 l 392 553 l 399 555 q 514 543 399 551 l 518 555 l 496 560 l 494 557 l 492 557 l 481 560 l 460 557 l 438 560 l 416 557 l 401 560 l 399 557 l 397 557 l 388 560 l 381 560 m 254 557 l 249 541 l 251 538 l 258 538 l 258 553 l 254 557 m 271 553 q 279 538 271 538 l 288 536 l 492 534 l 492 538 l 477 538 l 355 551 l 349 549 l 279 557 l 271 553 m 496 538 l 496 536 l 500 536 l 500 538 l 496 538 m 249 499 l 254 469 l 251 443 l 251 269 l 254 224 l 251 197 l 254 191 l 251 182 l 254 134 l 258 134 l 258 139 q 262 154 258 154 l 260 165 l 260 508 l 258 519 l 256 519 q 249 499 251 519 m 191 508 l 186 423 l 189 406 l 186 373 l 189 362 l 184 343 l 186 336 l 184 334 l 186 319 l 186 280 q 193 206 186 232 l 191 197 l 197 167 l 195 165 l 195 163 q 214 54 209 54 l 214 56 l 212 495 l 214 512 l 212 514 l 210 514 q 191 508 191 513 m 536 510 l 509 369 l 509 367 l 514 362 l 533 463 l 540 499 l 540 510 l 536 510 m 549 508 l 507 275 l 509 262 q 533 360 513 262 l 568 503 l 566 510 l 559 510 l 549 508 m 498 315 l 488 230 l 488 215 l 492 210 q 496 282 496 239 l 500 297 l 500 315 l 498 315 m 533 308 l 533 302 l 536 302 l 536 308 l 533 308 m 527 280 l 522 260 l 522 256 l 527 256 l 527 264 l 529 278 l 529 280 l 527 280 m 505 256 l 505 252 l 509 252 l 509 260 l 505 256 m 516 237 l 509 206 l 509 197 l 514 197 l 514 204 l 518 228 l 518 237 l 516 237 m 488 145 l 490 143 l 490 141 l 484 78 l 486 78 q 503 163 495 78 q 490 145 490 163 l 488 145 z "},"i":{"ha":309,"x_min":64,"x_max":244,"o":"m 232 811 q 244 750 239 811 l 242 738 q 224 582 242 680 l 227 579 q 168 131 193 402 q 150 53 155 53 q 140 77 142 53 l 191 514 q 195 541 191 536 l 193 547 l 198 596 l 193 596 l 156 382 l 159 380 l 144 294 l 146 292 l 146 289 l 132 182 l 134 180 q 96 -45 134 117 l 94 -47 l 85 -47 l 85 14 l 94 14 l 94 -1 l 96 -1 q 113 63 100 -1 l 105 82 l 105 99 l 107 114 l 105 116 l 107 129 l 107 236 l 105 248 q 83 111 99 248 l 74 60 l 69 60 l 66 63 l 64 63 q 123 555 88 366 l 120 565 q 140 726 130 591 q 146 804 144 726 l 150 806 l 159 806 l 159 804 q 140 604 159 737 l 142 602 l 134 526 l 132 526 l 134 518 l 127 455 l 132 455 l 174 638 q 201 760 193 699 q 215 777 215 760 q 227 809 220 782 l 229 811 l 232 811 m 222 774 l 213 736 l 218 720 l 218 691 l 213 672 l 213 665 q 227 724 217 665 l 224 726 l 227 743 l 227 774 l 222 774 m 213 658 l 210 645 l 213 643 l 215 643 l 218 645 l 218 652 l 213 658 m 183 616 l 183 612 l 189 612 l 189 616 l 183 616 m 181 604 l 181 599 l 183 599 l 183 604 l 181 604 m 176 585 l 176 579 l 181 579 l 181 589 l 176 585 m 174 570 l 174 553 l 181 560 l 178 570 l 174 570 m 164 516 l 164 511 l 166 511 l 166 516 l 164 516 m 164 506 l 164 496 l 168 496 l 168 506 l 164 506 m 117 316 l 120 313 l 117 302 l 117 284 l 123 279 q 144 457 144 431 q 150 470 150 457 l 152 470 l 150 472 l 150 477 l 154 496 q 123 351 142 496 l 117 316 m 159 479 l 159 470 l 164 470 l 164 484 l 159 479 m 117 481 l 117 475 l 120 475 l 120 481 l 117 481 m 115 457 l 94 284 l 91 282 l 91 279 l 94 277 l 91 264 l 91 245 l 85 238 l 85 227 q 120 452 100 227 l 120 455 l 117 457 l 115 457 m 156 455 l 154 443 l 154 433 l 159 433 l 159 455 l 156 455 m 150 416 l 150 404 l 154 404 l 154 411 l 150 416 m 144 380 l 144 370 l 150 370 l 150 380 l 144 380 m 140 362 l 140 357 l 144 353 l 146 362 l 140 362 m 130 277 l 130 273 l 134 277 l 130 277 m 117 270 l 115 258 l 115 256 l 117 256 l 123 260 l 123 264 l 117 270 m 117 248 l 117 236 l 120 236 l 120 248 l 117 248 z "},"j":{"ha":555,"x_min":68,"x_max":487,"o":"m 481 816 l 483 816 l 487 812 q 459 625 479 783 l 452 528 l 457 523 l 457 519 l 454 495 l 457 467 l 454 447 l 457 434 l 457 430 l 454 430 l 457 419 l 457 367 l 454 354 l 457 351 l 457 349 l 452 295 l 454 278 l 452 262 l 454 250 q 450 224 454 224 l 452 213 l 452 161 l 454 123 l 452 123 l 454 121 l 454 83 q 463 65 463 75 l 459 47 q 465 18 459 26 l 465 13 l 459 7 l 454 11 l 454 22 l 448 24 q 435 4 440 5 l 431 4 q 414 52 423 4 l 411 52 q 407 28 407 52 q 396 7 401 7 l 394 7 l 387 13 q 400 43 399 13 l 394 45 q 381 39 381 43 l 387 26 l 387 18 l 383 18 q 374 37 380 18 l 366 43 l 363 41 l 361 41 l 353 43 q 311 0 346 0 q 201 28 275 0 q 134 69 172 28 q 101 139 117 88 q 68 204 72 178 q 94 210 73 210 l 96 213 l 96 239 q 105 271 96 271 l 107 269 l 103 243 l 105 241 l 107 241 q 116 256 107 248 l 118 264 l 118 295 l 123 300 l 127 280 l 125 256 l 127 226 l 127 221 l 134 213 l 132 193 q 175 117 148 140 q 190 104 175 113 q 259 76 227 76 q 359 98 322 76 l 359 100 l 357 156 l 357 161 l 355 170 l 357 178 l 357 210 l 361 224 l 359 232 l 361 235 l 361 237 l 359 239 l 359 241 l 361 256 l 359 269 l 374 486 l 372 521 l 372 545 l 374 547 l 372 549 l 372 551 l 374 564 l 372 566 l 372 568 l 374 575 l 372 588 l 372 593 l 374 593 l 372 618 l 372 631 l 370 714 l 374 734 l 372 751 l 374 770 l 378 770 l 381 749 l 381 738 l 378 725 q 387 590 383 710 l 389 582 l 392 582 l 394 588 l 396 684 l 396 688 l 394 729 l 396 738 l 400 738 q 418 729 400 730 l 416 720 l 420 616 l 418 614 l 418 612 l 420 610 l 420 608 l 418 606 l 418 604 l 420 590 l 418 573 l 420 538 l 418 523 l 420 521 l 420 519 l 418 508 l 420 475 l 420 471 l 418 469 l 420 467 l 418 452 l 418 432 l 420 412 l 418 401 l 420 399 l 425 399 l 425 404 l 427 425 l 425 436 q 444 593 431 450 l 444 614 l 441 644 l 444 651 q 435 699 439 656 l 437 701 l 439 701 q 450 649 444 696 q 472 783 457 649 l 476 805 l 479 805 l 476 807 l 476 812 l 481 816 m 407 636 l 407 629 l 409 629 l 405 579 l 407 568 l 403 564 l 407 551 l 407 528 l 405 512 l 407 492 l 407 416 l 409 416 l 411 419 l 414 419 l 411 434 l 411 463 l 414 481 l 411 495 l 414 503 l 411 523 l 411 560 l 409 568 l 414 584 l 411 586 l 411 588 l 414 604 l 411 614 l 414 614 l 411 616 l 411 636 l 407 636 m 394 528 l 394 519 l 396 512 l 394 501 l 394 481 l 398 481 l 398 532 l 394 528 m 376 525 l 376 521 l 381 525 l 376 525 m 444 508 l 439 463 l 435 458 l 435 456 l 425 291 l 427 241 q 439 193 431 241 l 441 193 l 448 260 l 446 275 l 448 412 l 448 508 l 444 508 m 381 412 l 381 367 l 378 343 l 381 326 l 378 326 l 381 323 l 381 321 l 378 315 l 381 295 l 381 289 l 378 278 l 381 264 l 381 232 l 378 230 l 381 228 l 381 199 l 378 189 l 383 121 l 385 119 l 387 119 q 407 170 398 119 q 400 252 407 205 l 407 258 l 407 260 q 394 395 407 306 l 396 406 l 392 410 l 392 419 l 389 452 q 381 412 385 452 m 366 284 l 366 282 l 370 264 l 363 256 l 368 243 l 368 224 l 363 219 l 366 204 l 366 195 l 363 189 l 366 178 l 366 172 l 363 145 l 368 104 l 372 109 l 372 139 l 370 145 l 372 156 l 372 271 q 366 284 372 283 m 114 239 l 114 235 l 118 230 l 121 232 l 121 235 l 116 239 l 114 239 m 105 237 l 103 226 l 103 210 l 112 210 q 105 237 110 237 m 422 219 l 422 199 l 425 189 l 422 176 l 422 161 l 425 161 q 431 208 431 186 l 429 208 q 425 219 425 208 l 422 219 m 77 199 q 94 165 77 186 l 96 165 l 96 191 l 94 202 l 81 202 l 79 199 l 77 199 m 103 195 l 105 174 l 105 156 q 140 117 117 132 l 142 119 l 142 121 l 127 148 l 127 167 q 112 199 118 199 l 110 199 l 103 195 m 433 167 l 431 152 q 441 113 436 113 l 441 126 l 437 167 l 433 167 m 422 159 l 422 152 l 425 152 l 425 159 l 422 159 m 422 148 l 420 137 l 420 76 q 431 15 420 41 l 435 15 q 448 58 448 33 l 446 61 l 446 63 l 448 69 q 425 148 425 119 l 422 148 m 118 121 l 118 115 q 146 65 118 105 q 188 39 164 48 l 197 39 q 125 119 149 104 l 123 121 l 118 121 m 396 119 q 389 104 389 111 l 394 100 l 396 100 l 400 117 l 398 119 l 396 119 m 376 54 l 378 52 l 385 52 q 403 83 403 52 l 407 96 l 405 98 l 403 98 l 385 65 q 376 54 376 63 m 370 91 l 370 80 l 374 76 q 385 94 385 82 l 383 96 l 374 96 l 370 91 m 170 87 q 255 28 205 28 q 318 41 289 28 q 268 52 318 46 q 248 56 268 56 q 181 85 243 62 l 179 91 l 177 91 l 170 87 m 292 69 l 283 69 l 283 67 q 333 54 283 61 q 338 61 333 61 l 346 56 l 363 63 l 363 80 l 357 87 q 292 69 322 74 m 277 69 l 277 67 l 281 67 l 281 69 l 277 69 m 264 22 l 262 22 l 262 13 l 273 13 l 277 9 l 279 11 l 316 9 l 324 9 q 342 39 342 16 l 335 39 q 264 22 316 28 z "},"k":{"ha":741,"x_min":45,"x_max":696,"o":"m 186 918 l 191 918 l 191 905 l 193 894 l 191 888 l 193 855 l 191 807 q 199 783 199 793 l 203 783 l 199 827 l 199 829 l 203 829 l 240 579 l 245 579 q 254 590 249 581 l 225 844 l 225 861 l 229 866 l 234 861 l 234 816 l 236 805 l 240 810 l 240 861 l 245 866 l 249 853 l 247 840 l 249 825 l 247 810 l 249 807 l 249 805 l 247 796 l 251 772 l 249 755 q 273 601 264 601 q 368 703 317 625 q 486 783 440 783 l 492 783 l 492 779 l 486 772 l 477 777 q 375 701 440 769 q 340 658 348 658 l 340 651 l 342 651 q 529 785 444 720 l 533 785 l 536 783 l 536 781 l 500 745 l 500 742 q 522 758 509 743 q 629 836 604 821 l 631 833 l 631 829 q 549 749 609 803 l 549 747 q 564 753 557 753 l 566 751 l 566 747 q 373 566 476 671 l 373 564 q 471 406 373 541 q 648 232 524 364 q 692 182 648 227 l 696 174 l 696 172 l 692 167 q 666 197 688 176 l 661 197 q 657 186 661 186 q 618 215 633 195 l 616 217 l 614 217 q 607 206 612 206 l 605 206 q 542 271 542 262 l 462 356 q 442 380 442 374 l 440 380 l 435 376 l 435 373 q 581 213 476 317 q 601 195 587 213 l 594 189 q 444 343 503 266 q 327 473 411 387 q 292 488 306 487 l 288 484 l 327 219 l 325 217 l 327 206 l 327 182 l 330 170 l 327 163 l 323 163 q 294 252 312 163 l 290 248 l 290 197 l 292 176 l 288 128 l 290 117 l 288 102 l 290 87 l 288 87 q 303 52 288 66 l 303 50 l 299 45 l 297 45 q 286 65 286 52 q 277 45 283 65 l 271 45 l 269 47 l 267 47 l 264 45 l 264 15 q 275 7 269 7 l 275 4 l 271 0 l 267 0 q 240 39 250 7 q 214 387 230 39 l 212 389 l 212 391 l 214 393 l 214 395 l 208 425 l 210 427 l 210 430 l 205 447 l 208 447 l 201 463 l 205 477 l 201 488 l 203 495 l 199 512 q 151 479 186 512 l 151 475 l 167 477 l 167 475 q 145 467 167 471 l 140 475 l 136 475 q 45 425 58 425 l 45 432 q 73 445 45 438 q 160 503 142 485 q 197 545 197 536 q 153 816 180 677 q 138 886 146 870 l 138 892 l 142 897 l 156 859 l 153 859 l 160 842 l 158 836 l 182 753 l 184 753 l 184 760 l 167 864 l 169 866 l 171 866 q 180 838 178 866 l 184 838 l 184 907 l 186 918 m 182 751 l 182 742 l 184 742 l 184 751 l 182 751 m 514 731 l 514 729 q 527 740 523 732 l 527 742 l 525 742 l 514 731 m 492 736 l 492 734 l 496 738 l 496 740 l 492 736 m 201 736 l 199 727 q 218 625 208 668 l 221 625 l 221 627 q 203 736 221 659 l 201 736 m 303 597 l 305 597 q 464 718 417 674 l 477 734 l 475 736 l 321 625 l 303 597 m 503 725 l 503 720 l 509 727 l 503 725 m 408 653 l 408 651 q 475 705 425 657 l 475 709 q 408 653 450 696 m 332 545 l 332 543 l 338 543 l 498 699 l 498 701 l 496 701 q 355 566 422 647 l 332 545 m 279 562 l 279 560 l 281 560 q 368 629 349 607 l 364 629 q 279 562 307 593 m 373 614 l 377 614 l 384 621 l 384 623 q 373 614 374 618 m 273 582 l 273 579 l 277 579 q 299 610 296 595 q 273 582 273 595 m 312 560 q 323 549 313 554 l 327 549 q 373 601 364 587 l 368 601 l 312 560 m 243 566 l 243 555 q 256 568 256 555 l 256 575 l 254 575 l 243 566 m 359 555 l 359 547 l 364 547 l 364 551 l 359 555 m 251 551 l 251 545 l 254 545 l 258 549 l 258 551 l 251 551 m 281 538 l 281 532 l 297 517 l 301 521 l 301 525 q 290 543 290 536 l 286 543 l 281 538 m 338 532 l 359 503 l 362 503 l 349 538 l 342 538 q 338 532 338 538 m 357 536 q 388 486 370 505 q 427 438 403 457 l 427 443 q 359 536 395 496 l 357 536 m 254 519 l 254 512 l 258 508 l 260 508 l 260 525 l 254 519 m 184 517 l 189 517 l 193 521 l 193 523 l 184 517 m 273 519 l 273 508 l 277 503 l 279 506 l 279 508 q 273 519 277 519 m 312 503 l 312 499 l 319 499 l 319 508 l 316 508 l 312 503 m 321 499 l 321 492 l 325 492 l 323 499 l 321 499 m 351 499 l 355 495 l 355 499 l 351 499 m 254 497 l 254 495 q 260 477 254 479 l 264 484 q 254 497 264 497 m 229 486 l 240 423 l 243 423 l 243 438 l 236 488 l 234 488 l 232 486 l 229 486 m 362 486 l 362 481 l 368 481 l 368 486 l 362 486 m 277 479 q 308 224 277 395 l 316 189 l 321 193 l 321 197 q 281 479 316 258 l 277 479 m 377 477 l 377 473 l 379 473 l 379 477 l 377 477 m 260 467 l 260 465 l 264 430 l 269 430 q 262 467 269 467 l 260 467 m 216 430 l 216 414 l 221 419 l 221 430 l 216 430 m 406 425 l 406 423 l 414 414 l 414 416 l 406 425 m 414 412 l 422 404 l 425 404 l 416 412 l 414 412 m 221 406 l 218 395 l 227 306 l 225 297 l 229 278 l 227 269 l 232 232 l 229 213 l 234 189 l 232 178 q 238 119 234 132 l 236 104 l 240 91 l 238 91 q 254 33 246 33 l 254 35 l 249 113 l 251 115 l 251 117 q 234 326 247 127 l 223 406 l 221 406 m 267 378 l 267 371 l 269 371 l 269 378 l 267 378 m 505 365 l 505 362 q 536 330 505 357 l 538 330 l 538 334 l 505 365 m 481 360 l 481 356 l 484 356 l 484 360 l 481 360 m 492 345 l 492 343 q 527 308 496 334 l 527 311 q 494 345 527 316 l 492 345 m 542 326 l 547 321 l 547 326 l 542 326 m 264 317 l 269 304 l 267 302 l 275 208 l 279 208 l 277 226 l 279 237 l 269 321 l 264 317 m 531 306 l 531 297 l 536 302 l 531 306 m 581 262 l 581 260 q 644 202 599 239 l 648 206 l 648 208 l 585 262 l 581 262 m 275 186 l 275 182 l 277 182 l 277 186 l 275 186 m 271 130 l 271 123 l 275 123 l 275 130 l 271 130 m 271 89 l 269 83 q 275 63 271 63 l 277 74 l 277 78 l 275 89 l 271 89 z "},"l":{"ha":618,"x_min":115,"x_max":503,"o":"m 218 836 q 232 712 224 836 l 229 709 l 229 707 l 234 684 l 232 682 q 245 419 240 599 l 249 404 l 251 404 l 254 425 l 254 543 l 251 664 l 254 673 q 247 764 247 683 l 249 766 l 251 766 q 281 543 260 766 q 290 432 288 500 q 264 134 290 233 l 267 134 l 392 143 l 399 141 l 449 148 l 455 145 l 462 152 q 481 132 462 148 l 481 128 l 471 117 l 471 115 l 503 78 l 503 72 q 475 65 503 66 l 468 67 l 462 65 l 429 69 l 420 67 l 386 72 l 384 69 l 381 69 l 362 72 l 359 72 l 349 69 q 321 76 321 72 l 310 74 l 299 74 l 275 76 l 267 74 l 251 76 q 245 15 245 61 l 247 9 l 254 9 l 267 22 l 269 22 l 269 15 q 256 0 259 0 l 247 0 l 236 15 l 229 13 q 223 45 223 23 l 223 63 q 205 72 223 68 q 201 80 205 80 l 193 80 q 184 41 189 80 l 178 41 l 175 47 l 178 76 l 175 85 l 160 85 q 115 100 115 94 l 115 102 l 119 106 l 164 106 q 178 115 178 106 q 191 701 178 283 l 193 709 l 189 731 l 191 768 l 197 772 l 201 760 l 203 760 l 214 799 l 212 827 l 218 836 m 212 766 q 203 658 205 718 l 210 590 l 208 584 l 210 553 l 210 534 q 214 519 210 519 l 212 503 l 212 501 l 214 481 l 212 479 q 218 408 214 408 l 216 393 l 221 345 l 218 334 l 223 293 l 221 278 l 223 275 l 223 273 l 221 271 l 225 150 q 232 132 227 132 l 238 132 l 238 182 l 236 291 l 238 297 l 236 317 q 216 760 236 427 l 214 766 l 212 766 m 260 653 l 258 642 l 258 629 l 262 597 l 260 582 l 262 573 l 260 564 l 262 562 l 262 560 l 260 557 l 262 543 l 262 528 l 260 492 l 262 486 l 260 471 l 260 467 l 262 467 l 260 456 l 260 445 l 262 434 l 258 384 l 260 369 l 256 343 l 251 170 l 254 145 l 251 137 l 254 134 l 256 134 q 281 376 281 216 l 281 393 l 283 395 l 281 397 l 283 414 q 264 653 283 473 l 260 653 m 197 601 l 199 579 l 201 579 l 203 599 l 201 601 l 197 601 m 199 566 l 197 555 l 197 545 l 195 469 l 197 436 l 195 340 l 197 338 l 195 328 l 195 262 l 197 252 l 195 239 l 195 195 l 197 186 q 193 130 193 172 l 195 128 l 199 128 l 218 134 l 218 137 l 203 566 l 199 566 m 249 397 l 247 384 l 249 376 l 251 376 l 251 397 l 249 397 m 184 237 l 184 230 l 186 230 l 186 237 l 184 237 m 186 208 l 186 204 l 189 204 l 189 208 l 186 208 m 184 197 l 184 182 l 189 182 l 189 197 l 184 197 m 332 126 l 332 121 l 342 121 l 395 126 l 397 126 l 401 130 l 397 130 l 397 132 l 332 126 m 429 126 l 433 121 l 435 123 l 435 126 l 429 126 m 193 115 l 193 111 l 195 109 l 195 106 l 210 109 l 218 109 l 218 113 l 203 115 l 193 115 m 229 111 l 232 109 l 234 109 l 236 111 l 236 115 l 234 115 l 229 111 m 433 106 l 431 109 l 416 104 l 390 106 l 323 96 l 316 98 q 283 87 316 95 l 283 83 l 290 80 l 297 83 l 357 80 l 366 83 q 438 78 392 78 l 446 78 l 460 80 l 473 76 l 486 76 l 490 80 q 464 106 469 105 l 462 100 l 460 100 l 455 104 l 457 113 l 455 115 l 453 115 q 449 109 449 115 l 446 106 l 433 106 m 249 100 l 249 94 l 254 89 l 264 89 l 292 98 l 308 98 l 312 102 l 312 104 l 297 106 l 249 100 m 227 96 l 227 91 l 232 87 l 234 87 l 238 91 l 238 98 l 234 102 l 227 96 m 164 96 l 175 91 l 175 94 l 178 96 l 178 98 l 175 100 l 169 100 l 164 96 m 191 96 l 191 94 q 208 89 191 89 l 212 85 l 214 85 l 221 91 l 221 96 l 216 100 l 195 100 l 191 96 m 275 87 l 275 83 l 281 83 l 277 87 l 275 87 m 232 74 l 229 52 l 229 43 l 234 39 l 236 45 l 234 47 l 234 50 l 238 63 l 236 69 l 238 72 l 236 74 l 232 74 z "},"m":{"ha":926,"x_min":184,"x_max":742,"o":"m 713 910 l 720 869 l 718 867 l 718 864 l 720 856 l 718 840 l 720 831 l 718 821 l 722 797 l 718 760 l 720 753 l 718 739 l 718 706 l 739 417 l 742 387 l 739 357 l 739 287 l 737 241 l 739 235 q 724 111 731 142 l 720 111 q 711 183 711 111 l 711 200 l 709 211 l 707 211 l 705 196 l 705 -47 l 703 -60 l 705 -62 l 705 -64 l 701 -88 l 694 -88 l 699 -10 l 699 187 l 694 211 l 694 259 l 690 263 l 690 261 l 685 137 l 688 135 l 688 133 l 683 107 l 685 104 l 679 55 l 681 48 q 674 35 679 35 l 670 39 l 670 90 q 661 98 661 90 l 659 98 l 661 142 l 661 272 q 637 632 661 389 l 635 632 l 579 554 l 507 473 l 507 471 q 566 380 564 397 l 562 376 l 559 376 l 533 400 l 531 400 l 531 393 l 568 332 q 585 304 585 315 l 585 302 l 581 298 l 481 433 l 479 433 l 479 428 l 481 426 l 481 424 l 479 422 l 477 422 l 453 441 l 451 441 q 522 332 475 398 l 522 330 l 518 326 l 516 326 q 440 435 490 353 q 395 506 416 479 q 342 574 359 546 q 336 587 338 574 l 327 587 l 327 585 q 422 441 365 514 l 422 437 q 435 424 429 437 l 435 417 l 431 413 q 349 493 376 460 l 349 498 l 355 498 l 386 465 l 399 450 l 401 450 l 401 452 l 366 504 l 321 580 l 319 580 l 316 578 l 316 567 q 349 509 320 543 l 349 500 l 345 500 q 334 517 340 500 q 321 532 329 517 l 316 532 l 316 526 l 319 506 l 316 504 l 316 502 l 319 482 l 316 463 l 319 460 q 294 207 310 301 l 297 118 q 281 33 297 33 l 277 37 l 277 57 l 275 57 l 262 44 l 260 44 q 234 227 238 44 q 225 380 229 380 l 227 391 l 225 413 l 223 413 l 221 397 l 221 372 l 223 363 l 221 361 l 223 346 l 223 178 l 218 174 l 216 174 q 212 180 212 174 l 214 183 l 212 194 l 212 202 l 214 222 l 212 229 l 214 231 l 212 245 l 212 274 l 214 276 l 212 278 l 212 317 l 208 428 l 210 430 l 210 433 q 205 491 205 454 l 205 498 l 208 495 l 210 495 l 212 498 l 212 502 q 205 506 212 506 l 205 526 q 212 530 212 526 q 184 858 212 663 l 186 886 l 186 888 l 191 892 l 195 882 l 193 873 q 212 745 199 848 l 210 739 l 214 715 l 212 715 q 223 574 223 639 l 223 571 l 227 554 l 225 543 l 229 513 l 227 511 l 227 509 l 232 463 l 229 463 l 234 446 l 232 424 l 236 382 l 236 378 l 234 378 l 236 363 q 243 237 236 286 l 240 235 l 240 233 l 243 224 l 240 216 l 243 209 l 240 209 l 245 172 l 243 170 l 243 168 l 247 155 l 245 140 q 256 55 249 83 l 262 55 q 277 129 277 69 l 277 176 l 275 196 l 277 198 l 275 220 l 275 294 l 273 326 l 275 341 q 238 667 267 454 q 221 777 238 705 l 227 788 q 214 827 214 816 l 214 829 l 218 834 q 227 821 222 834 l 229 821 q 240 836 229 833 l 210 882 l 210 884 l 214 888 l 262 821 l 264 823 l 264 825 l 262 888 l 262 897 l 267 901 l 273 901 l 301 755 q 332 697 301 750 q 375 619 353 665 l 375 612 l 373 612 q 345 663 359 623 q 319 708 339 663 l 316 710 l 308 723 l 303 723 l 303 721 q 388 578 315 675 l 390 578 l 390 580 l 377 602 l 377 610 l 379 610 q 390 595 385 610 l 392 595 l 392 597 q 377 650 377 628 l 377 654 l 379 654 q 399 621 387 648 q 422 587 408 614 l 425 585 l 427 585 l 431 591 q 392 656 414 609 q 373 699 373 685 l 375 699 q 399 656 384 692 q 446 567 437 595 q 494 493 486 500 q 629 712 576 614 l 629 726 l 627 806 l 633 810 q 646 753 638 810 l 648 753 q 655 769 655 762 l 655 795 l 652 817 l 659 821 q 666 810 664 821 l 670 814 l 670 817 l 668 869 l 670 878 l 674 878 l 679 873 l 681 810 l 681 808 l 683 808 l 699 821 l 701 821 l 701 817 q 683 791 683 798 l 711 814 l 711 849 l 709 907 l 711 910 l 713 910 m 269 862 l 269 860 q 273 849 269 849 l 271 834 l 271 825 l 281 782 l 286 782 l 286 793 l 273 867 l 269 862 m 243 831 l 243 825 q 251 810 243 818 l 260 788 l 264 788 l 264 791 q 247 829 264 803 l 247 831 l 243 831 m 681 760 l 681 758 l 685 758 q 701 793 701 785 l 699 793 q 681 760 681 781 m 267 784 l 267 780 l 269 780 l 269 784 l 267 784 m 699 755 q 709 701 701 731 l 711 701 l 711 773 q 699 755 704 770 m 277 771 l 277 758 l 294 730 l 294 734 q 277 771 288 771 m 254 769 l 254 766 l 264 734 l 271 734 q 254 769 271 753 m 238 751 l 251 695 l 256 699 q 238 751 256 733 m 635 749 l 635 743 l 640 747 l 637 749 l 635 749 m 663 745 l 663 730 l 668 730 l 668 745 l 663 745 m 692 736 l 690 730 l 703 484 l 705 484 l 709 489 l 711 612 q 694 736 711 648 l 692 736 m 652 732 l 650 730 l 650 710 l 655 710 l 657 721 l 657 728 l 652 732 m 277 726 l 277 723 q 301 682 288 690 l 301 684 q 279 726 301 696 l 277 726 m 640 706 l 637 695 l 640 693 l 642 693 l 644 695 l 644 706 l 640 706 m 601 636 q 633 686 633 673 l 633 690 l 631 690 q 601 636 601 650 m 668 690 l 668 658 l 672 654 l 674 667 l 672 690 l 668 690 m 264 688 q 275 647 267 647 l 277 647 q 267 688 272 688 l 264 688 m 245 677 l 245 675 q 264 517 256 562 l 267 515 l 269 515 l 269 517 q 254 665 262 665 l 254 675 l 245 677 m 659 667 l 659 663 l 661 663 l 661 667 l 659 667 m 299 661 l 299 656 l 301 656 l 301 661 l 299 661 m 316 658 l 316 656 l 321 652 l 321 658 l 316 658 m 659 658 l 657 652 l 661 621 l 666 621 l 661 658 l 659 658 m 644 634 q 663 435 659 447 l 661 426 l 666 404 l 668 404 l 668 413 l 666 467 l 668 467 l 650 654 q 644 634 645 654 m 281 650 l 281 645 q 305 578 281 612 l 308 576 l 310 576 l 310 591 q 286 650 302 627 l 281 650 m 629 647 l 629 641 l 633 645 l 633 647 l 629 647 m 314 641 q 366 554 314 621 q 377 530 377 538 l 388 534 q 340 608 388 549 q 332 617 340 617 q 321 641 321 633 l 314 641 m 338 625 l 338 619 l 342 623 l 340 625 l 338 625 m 672 621 l 672 617 l 674 617 l 674 621 l 672 621 m 661 606 l 663 593 l 666 593 l 666 606 l 661 606 m 271 604 l 271 600 l 273 600 l 273 604 l 271 604 m 283 591 l 283 549 l 286 536 l 283 528 l 286 517 l 283 487 l 283 469 l 286 437 l 283 424 l 286 408 l 283 402 l 292 272 l 294 272 q 310 493 310 349 l 310 541 q 286 591 294 591 l 283 591 m 395 591 l 395 587 l 401 580 l 401 582 q 395 591 397 591 m 663 580 q 670 571 667 571 l 670 576 l 668 587 q 663 580 663 587 m 572 576 l 572 574 l 574 574 l 579 578 l 579 580 l 576 580 l 572 576 m 275 578 l 275 574 l 277 574 l 277 578 l 275 578 m 401 578 l 406 574 l 406 578 l 401 578 m 412 565 l 412 558 l 416 558 l 416 560 l 412 565 m 559 556 l 559 552 l 564 556 l 564 560 l 559 556 m 668 560 l 668 556 l 666 556 l 668 549 l 672 549 l 670 560 l 668 560 m 715 554 q 711 428 715 467 l 713 426 l 713 424 l 711 422 l 711 419 l 713 404 l 711 378 l 713 339 l 711 332 l 713 319 l 713 296 q 718 256 713 267 l 715 248 l 718 231 l 715 220 l 718 180 l 718 165 l 720 157 l 718 151 l 720 148 l 724 148 q 733 348 733 233 l 733 380 q 720 560 733 482 q 715 554 715 560 m 416 547 l 416 541 l 420 541 l 420 543 l 416 547 m 440 545 l 440 541 l 442 541 l 442 545 l 440 545 m 444 538 l 444 536 q 464 506 444 530 l 477 484 l 481 484 l 481 487 q 444 538 450 538 m 668 534 l 668 526 l 672 511 l 670 498 l 672 465 l 672 448 l 677 448 l 677 471 l 672 534 l 668 534 m 406 524 q 460 452 420 479 l 462 452 l 462 460 q 408 524 458 460 l 406 524 m 267 509 l 264 502 l 267 495 l 269 495 l 271 502 l 269 509 l 267 509 m 446 448 l 446 444 l 451 444 l 451 448 l 446 448 m 511 448 q 542 408 529 408 q 514 448 535 425 l 511 448 m 494 444 l 494 441 q 516 411 509 414 l 516 415 q 496 444 501 443 l 494 444 m 666 395 l 666 389 l 668 389 l 668 395 l 666 395 m 666 370 l 666 365 l 668 365 l 668 370 l 666 370 m 690 337 l 690 326 l 692 326 l 692 337 l 690 337 m 692 319 l 690 298 l 690 289 l 692 289 l 694 300 l 694 319 l 692 319 m 707 229 l 707 218 l 709 218 l 709 229 l 707 229 m 286 107 l 288 104 l 288 102 l 286 100 l 286 98 l 288 96 l 290 96 l 290 109 l 288 107 l 286 107 m 286 85 l 286 77 l 288 77 l 288 85 l 286 85 z "}}}
